<svg xmlns="http://www.w3.org/2000/svg" xmlns:xlink="http://www.w3.org/1999/xlink" id="Layer_1" style="enable-background:new 0 0 566.93 170.04" xml:space="preserve" version="1.1" y="0px" x="0px" width="175" height="175" fill="#fff"><path d="m87.996 1.277c-46.249 0-83.743 37.493-83.743 83.742 0 46.254 37.494 83.745 83.743 83.745 46.251 0 83.743-37.491 83.743-83.745 0-46.246-37.49-83.738-83.744-83.738zm38.404 120.78c-1.504 2.467-4.718 3.24-7.177 1.737-19.665-12.019-44.417-14.734-73.567-8.075-2.809 0.644-5.609-1.117-6.249-3.925-0.643-2.809 1.11-5.609 3.926-6.249 31.9-7.293 59.263-4.154 81.336 9.334 2.46 1.51 3.24 4.72 1.73 7.18zm10.25-22.799c-1.894 3.073-5.912 4.037-8.981 2.15-22.505-13.834-56.822-17.841-83.447-9.759-3.453 1.043-7.1-0.903-8.148-4.35-1.04-3.453 0.907-7.093 4.354-8.143 30.413-9.228 68.221-4.758 94.071 11.127 3.07 1.89 4.04 5.91 2.15 8.976zm0.88-23.744c-26.994-16.031-71.52-17.505-97.289-9.684-4.138 1.255-8.514-1.081-9.768-5.219-1.254-4.14 1.08-8.513 5.221-9.771 29.581-8.98 78.756-7.245 109.83 11.202 3.722 2.209 4.943 7.016 2.737 10.733-2.2 3.722-7.02 4.949-10.73 2.739z"/></svg>