<svg width="40" height="39" viewBox="0 0 40 39" fill="none" xmlns="http://www.w3.org/2000/svg">
<path d="M24.3125 21.3719C24.9979 20.5509 25.435 19.5514 25.5726 18.4908C25.7102 17.4301 25.5426 16.3522 25.0894 15.3835C24.6361 14.4147 23.9161 13.5953 23.0137 13.0212C22.1113 12.4471 21.0639 12.1421 19.9944 12.1421C18.9248 12.1421 17.8775 12.4471 16.9751 13.0212C16.0727 13.5953 15.3526 14.4147 14.8994 15.3835C14.4462 16.3522 14.2785 17.4301 14.4161 18.4908C14.5537 19.5514 14.9908 20.5509 15.6763 21.3719C14.9078 21.6341 14.2331 22.1158 13.7356 22.7575C13.3508 23.2482 13.084 23.8208 12.9559 24.4311C12.8278 25.0414 12.8418 25.6729 12.9969 26.2769L15.2806 35.2769C15.5117 36.1742 16.0359 36.9685 16.77 37.5337C17.5041 38.099 18.406 38.4028 19.3325 38.3969H20.6675C21.593 38.4015 22.4936 38.0972 23.2266 37.532C23.9595 36.9668 24.4829 36.1732 24.7138 35.2769L26.9975 26.2769C27.1526 25.6729 27.1666 25.0414 27.0385 24.4311C26.9104 23.8208 26.6436 23.2482 26.2588 22.7575C25.7598 22.1149 25.083 21.6331 24.3125 21.3719ZM20 14.3969C20.6675 14.3969 21.32 14.5949 21.8751 14.9657C22.4301 15.3366 22.8627 15.8637 23.1181 16.4804C23.3735 17.0971 23.4404 17.7757 23.3102 18.4304C23.1799 19.085 22.8585 19.6864 22.3865 20.1584C21.9145 20.6304 21.3131 20.9518 20.6584 21.0821C20.0037 21.2123 19.3251 21.1455 18.7084 20.89C18.0917 20.6346 17.5646 20.202 17.1938 19.647C16.8229 19.092 16.625 18.4394 16.625 17.7719C16.625 16.8768 16.9806 16.0184 17.6135 15.3854C18.2465 14.7525 19.1049 14.3969 20 14.3969ZM24.8169 25.7219L22.5331 34.7219C22.4251 35.1332 22.1829 35.4966 21.845 35.7548C21.5071 36.0129 21.0927 36.1509 20.6675 36.1469H19.3325C18.9057 36.153 18.4892 36.0159 18.1493 35.7577C17.8095 35.4994 17.566 35.1348 17.4575 34.7219L15.1738 25.7219C15.1043 25.4502 15.0982 25.1662 15.1561 24.8918C15.214 24.6174 15.3342 24.3599 15.5075 24.1394C15.6877 23.9052 15.9195 23.7157 16.1848 23.5856C16.4502 23.4555 16.742 23.3884 17.0375 23.3894H22.9438C23.2393 23.3884 23.5311 23.4555 23.7964 23.5856C24.0618 23.7157 24.2936 23.9052 24.4738 24.1394C24.6486 24.3591 24.7706 24.6162 24.8301 24.8906C24.8896 25.1651 24.8851 25.4495 24.8169 25.7219ZM30.875 19.2719C30.8729 17.7205 30.5389 16.1875 29.8954 14.7759C29.2519 13.3642 28.3139 12.1066 27.1442 11.0874C25.9745 10.0683 24.6003 9.31115 23.1139 8.86694C21.6274 8.42273 20.0631 8.30169 18.5261 8.51196C16.989 8.72223 15.5147 9.25894 14.2021 10.0861C12.8896 10.9132 11.7692 12.0115 10.9163 13.3074C10.0633 14.6033 9.49744 16.0666 9.25672 17.5992C9.016 19.1318 9.10599 20.6982 9.52063 22.1932C9.59346 22.4783 9.55164 22.7807 9.40414 23.0354C9.25664 23.2901 9.01521 23.4768 8.73162 23.5556C8.44803 23.6343 8.14488 23.5988 7.88718 23.4566C7.62948 23.3144 7.43776 23.0769 7.35313 22.795C6.81204 20.8456 6.72894 18.7975 7.1103 16.8106C7.49167 14.8238 8.32719 12.952 9.5516 11.3414C10.776 9.73088 12.3562 8.42518 14.1686 7.52632C15.9811 6.62745 17.9769 6.15975 20 6.15975C22.0231 6.15975 24.0189 6.62745 25.8314 7.52632C27.6438 8.42518 29.224 9.73088 30.4484 11.3414C31.6728 12.952 32.5083 14.8238 32.8897 16.8106C33.2711 18.7975 33.188 20.8456 32.6469 22.795C32.5623 23.0769 32.3705 23.3144 32.1128 23.4566C31.8551 23.5988 31.552 23.6343 31.2684 23.5556C30.9848 23.4768 30.7434 23.2901 30.5959 23.0354C30.4484 22.7807 30.4065 22.4783 30.4794 22.1932C30.7425 21.2418 30.8756 20.2591 30.875 19.2719ZM39.125 19.2719C39.1267 22.416 38.3526 25.5119 36.8713 28.2851C35.39 31.0584 33.2473 33.4232 30.6331 35.1701C30.3845 35.3361 30.0801 35.3967 29.7868 35.3383C29.4935 35.2799 29.2355 35.1074 29.0694 34.8588C28.9033 34.6102 28.8428 34.3057 28.9011 34.0125C28.9595 33.7192 29.132 33.4611 29.3806 33.2951C32.3896 31.2829 34.6717 28.3565 35.8902 24.948C37.1087 21.5396 37.1989 17.8296 36.1474 14.3659C35.096 10.9023 32.9587 7.8685 30.0511 5.71251C27.1435 3.55651 23.6197 2.3926 20 2.3926C16.3803 2.3926 12.8565 3.55651 9.94888 5.71251C7.04128 7.8685 4.90399 10.9023 3.85257 14.3659C2.80116 17.8296 2.89134 21.5396 4.10981 24.948C5.32828 28.3565 7.61046 31.2829 10.6194 33.2951C10.868 33.4611 11.0405 33.7192 11.0989 34.0125C11.1572 34.3057 11.0967 34.6102 10.9306 34.8588C10.7645 35.1074 10.5065 35.2799 10.2132 35.3383C9.91996 35.3967 9.61552 35.3361 9.36688 35.1701C6.62092 33.3333 4.39757 30.8166 2.91346 27.865C1.42936 24.9135 0.735113 21.6279 0.89837 18.3283C1.06163 15.0287 2.07682 11.8277 3.84503 9.03711C5.61324 6.24652 8.07417 3.96154 10.988 2.40483C13.9019 0.84811 17.1693 0.0727397 20.4719 0.154263C23.7746 0.235785 26.9998 1.17142 29.8333 2.87001C32.6668 4.5686 35.012 6.9722 36.6403 9.84663C38.2687 12.7211 39.1247 15.9683 39.125 19.2719Z" fill="currentColor"/>
</svg>
