<svg width="36" height="39" viewBox="0 0 36 39" fill="none" xmlns="http://www.w3.org/2000/svg">
<path d="M33 3.72559H28.125V1.85059C28.125 1.55222 28.0065 1.26607 27.7955 1.05509C27.5845 0.844112 27.2984 0.725586 27 0.725586C26.7016 0.725586 26.4155 0.844112 26.2045 1.05509C25.9935 1.26607 25.875 1.55222 25.875 1.85059V3.72559L10.125 3.72559V1.85059C10.125 1.55222 10.0065 1.26607 9.79549 1.05509C9.58452 0.844112 9.29837 0.725586 9 0.725586C8.70163 0.725586 8.41548 0.844112 8.20451 1.05509C7.99353 1.26607 7.875 1.55222 7.875 1.85059V3.72559H3C2.30381 3.72559 1.63613 4.00215 1.14384 4.49443C0.651562 4.98671 0.375 5.65439 0.375 6.35059L0.375 36.3506C0.375 37.0468 0.651562 37.7145 1.14384 38.2067C1.63613 38.699 2.30381 38.9756 3 38.9756H33C33.6962 38.9756 34.3639 38.699 34.8562 38.2067C35.3484 37.7145 35.625 37.0468 35.625 36.3506V6.35059C35.625 5.65439 35.3484 4.98671 34.8562 4.49443C34.3639 4.00215 33.6962 3.72559 33 3.72559ZM33.375 36.3506C33.375 36.45 33.3355 36.5454 33.2652 36.6158C33.1948 36.6861 33.0995 36.7256 33 36.7256H3C2.90054 36.7256 2.80516 36.6861 2.73483 36.6158C2.66451 36.5454 2.625 36.45 2.625 36.3506L2.625 6.35059C2.625 6.25113 2.66451 6.15575 2.73483 6.08542C2.80516 6.01509 2.90054 5.97559 3 5.97559H7.875V7.85059C7.875 8.14895 7.99353 8.4351 8.20451 8.64608C8.41548 8.85706 8.70163 8.97559 9 8.97559C9.29837 8.97559 9.58452 8.85706 9.79549 8.64608C10.0065 8.4351 10.125 8.14895 10.125 7.85059V5.97559L25.875 5.97559V7.85059C25.875 8.14895 25.9935 8.4351 26.2045 8.64608C26.4155 8.85706 26.7016 8.97559 27 8.97559C27.2984 8.97559 27.5845 8.85706 27.7955 8.64608C28.0065 8.4351 28.125 8.14895 28.125 7.85059V5.97559H33C33.0995 5.97559 33.1948 6.01509 33.2652 6.08542C33.3355 6.15575 33.375 6.25113 33.375 6.35059V36.3506ZM27.0863 19.0312L21.2738 18.5812L19.0331 13.4043C18.9456 13.2036 18.8014 13.0328 18.6182 12.9128C18.4351 12.7928 18.2208 12.7289 18.0019 12.7289C17.7829 12.7289 17.5687 12.7928 17.3855 12.9128C17.2023 13.0328 17.0581 13.2036 16.9706 13.4043L14.7375 18.5812L8.925 19.0312C8.70135 19.0484 8.48793 19.132 8.31216 19.2714C8.13639 19.4107 8.00629 19.5994 7.93857 19.8133C7.87085 20.0271 7.8686 20.2563 7.93212 20.4714C7.99563 20.6866 8.122 20.8778 8.295 21.0206L12.6994 24.6562L11.3569 30.0806C11.3037 30.2956 11.3152 30.5215 11.3899 30.73C11.4646 30.9385 11.5991 31.1204 11.7767 31.2527C11.9543 31.3851 12.1671 31.462 12.3882 31.474C12.6094 31.486 12.8292 31.4324 13.02 31.32L18 28.3818L22.9912 31.32C23.1821 31.4324 23.4019 31.486 23.623 31.474C23.8442 31.462 24.0569 31.3851 24.2345 31.2527C24.4121 31.1204 24.5467 30.9385 24.6214 30.73C24.6961 30.5215 24.7075 30.2956 24.6544 30.0806L23.3119 24.6562L27.7163 21.0206C27.8893 20.8778 28.0156 20.6866 28.0791 20.4714C28.1426 20.2563 28.1404 20.0271 28.0727 19.8133C28.005 19.5994 27.8749 19.4107 27.6991 19.2714C27.5233 19.132 27.3099 19.0484 27.0863 19.0312ZM21.3337 23.3718C21.1704 23.5069 21.0485 23.6854 20.9821 23.8868C20.9158 24.0882 20.9077 24.3042 20.9587 24.51L21.8269 28.0237L18.5625 26.1075C18.3897 26.0059 18.1929 25.9524 17.9925 25.9524C17.7921 25.9524 17.5953 26.0059 17.4225 26.1075L14.1656 28.0237L15.0338 24.51C15.0848 24.3042 15.0767 24.0882 15.0104 23.8868C14.944 23.6854 14.8221 23.5069 14.6588 23.3718L11.865 21.06L15.5831 20.7731C15.786 20.7557 15.9804 20.6835 16.1455 20.5643C16.3106 20.4451 16.4403 20.2833 16.5206 20.0962L18 16.6893L19.47 20.0962C19.5504 20.2833 19.68 20.4451 19.8451 20.5643C20.0102 20.6835 20.2046 20.7557 20.4075 20.7731L24.1256 21.06L21.3337 23.3718Z" fill="currentColor"/>
</svg>
