<svg viewBox="0 0 48 48" fill="none" xmlns="http://www.w3.org/2000/svg">
	<path d="M41.505 6.57562C41.0259 6.37601 40.4984 6.32291 39.9891 6.42303C39.4798 6.52315 39.0116 6.772 38.6438 7.13812L38.5894 7.19437L35.1412 11.1712C31.8241 9.01874 27.9544 7.87323 24 7.87323C20.0456 7.87323 16.1759 9.01874 12.8588 11.1712L9.41062 7.20187L9.35625 7.14562C8.98925 6.77859 8.52167 6.52859 8.01262 6.42723C7.50357 6.32586 6.9759 6.37769 6.4963 6.57615C6.01669 6.77462 5.60669 7.11081 5.31811 7.54223C5.02953 7.97366 4.87533 8.48096 4.875 9V25.5C4.875 35.2181 13.455 43.125 24 43.125C34.545 43.125 43.125 35.2181 43.125 25.5V9C43.1249 8.48101 42.9709 7.97371 42.6826 7.5422C42.3942 7.11068 41.9844 6.77432 41.505 6.57562ZM40.875 25.5C40.875 33.6337 33.9075 40.3125 25.125 40.8394V36.465L27.795 33.795C28.0033 33.5836 28.1196 33.2984 28.1185 33.0016C28.1175 32.7048 27.9992 32.4205 27.7895 32.2105C27.5798 32.0005 27.2955 31.8819 26.9988 31.8805C26.702 31.8792 26.4167 31.9951 26.205 32.2031L24 34.4081L21.795 32.2031C21.5833 31.9951 21.298 31.8792 21.0012 31.8805C20.7045 31.8819 20.4202 32.0005 20.2105 32.2105C20.0008 32.4205 19.8825 32.7048 19.8815 33.0016C19.8804 33.2984 19.9967 33.5836 20.205 33.795L22.875 36.465V40.8394C14.0925 40.3125 7.125 33.6337 7.125 25.5V9C7.12247 8.92535 7.14334 8.85178 7.18469 8.78958C7.22605 8.72738 7.28581 8.67967 7.35562 8.65312C7.40447 8.6331 7.4566 8.62229 7.50937 8.62125C7.59708 8.62185 7.68137 8.6553 7.74563 8.715L11.8256 13.4025C12.0116 13.6166 12.2716 13.7526 12.5536 13.7832C12.8355 13.8138 13.1187 13.7367 13.3463 13.5675C14.4392 12.7628 15.6237 12.0906 16.875 11.565V16.5C16.875 16.7984 16.9935 17.0845 17.2045 17.2955C17.4155 17.5065 17.7016 17.625 18 17.625C18.2984 17.625 18.5845 17.5065 18.7955 17.2955C19.0065 17.0845 19.125 16.7984 19.125 16.5V10.7831C20.3501 10.4463 21.6068 10.2377 22.875 10.1606V16.5C22.875 16.7984 22.9935 17.0845 23.2045 17.2955C23.4155 17.5065 23.7016 17.625 24 17.625C24.2984 17.625 24.5845 17.5065 24.7955 17.2955C25.0065 17.0845 25.125 16.7984 25.125 16.5V10.1606C26.3932 10.2377 27.6499 10.4463 28.875 10.7831V16.5C28.875 16.7984 28.9935 17.0845 29.2045 17.2955C29.4155 17.5065 29.7016 17.625 30 17.625C30.2984 17.625 30.5845 17.5065 30.7955 17.2955C31.0065 17.0845 31.125 16.7984 31.125 16.5V11.565C32.3768 12.0936 33.5613 12.7689 34.6538 13.5769C34.8813 13.7461 35.1645 13.8231 35.4464 13.7926C35.7284 13.762 35.9884 13.626 36.1744 13.4119L40.2544 8.72437C40.3082 8.67769 40.3742 8.64731 40.4447 8.63678C40.5152 8.62626 40.5872 8.63603 40.6523 8.66495C40.7174 8.69386 40.7729 8.74074 40.8124 8.80008C40.8518 8.85942 40.8735 8.92876 40.875 9V25.5ZM17.625 26.25C17.625 26.6208 17.515 26.9834 17.309 27.2917C17.103 27.6 16.8101 27.8404 16.4675 27.9823C16.1249 28.1242 15.7479 28.1613 15.3842 28.089C15.0205 28.0166 14.6864 27.838 14.4242 27.5758C14.162 27.3136 13.9834 26.9795 13.911 26.6158C13.8387 26.2521 13.8758 25.8751 14.0177 25.5325C14.1596 25.1899 14.4 24.897 14.7083 24.691C15.0166 24.485 15.3792 24.375 15.75 24.375C16.2473 24.375 16.7242 24.5725 17.0758 24.9242C17.4275 25.2758 17.625 25.7527 17.625 26.25ZM34.125 26.25C34.125 26.6208 34.015 26.9834 33.809 27.2917C33.603 27.6 33.3101 27.8404 32.9675 27.9823C32.6249 28.1242 32.2479 28.1613 31.8842 28.089C31.5205 28.0166 31.1864 27.838 30.9242 27.5758C30.6619 27.3136 30.4834 26.9795 30.411 26.6158C30.3387 26.2521 30.3758 25.8751 30.5177 25.5325C30.6596 25.1899 30.9 24.897 31.2083 24.691C31.5166 24.485 31.8792 24.375 32.25 24.375C32.7473 24.375 33.2242 24.5725 33.5758 24.9242C33.9275 25.2758 34.125 25.7527 34.125 26.25Z" fill="currentColor" />
</svg>
