<svg viewBox="0 0 48 48" fill="none" xmlns="http://www.w3.org/2000/svg">
	<path d="M15.375 10.5V4.5C15.375 4.20163 15.4935 3.91548 15.7045 3.7045C15.9155 3.49353 16.2016 3.375 16.5 3.375C16.7984 3.375 17.0845 3.49353 17.2955 3.7045C17.5065 3.91548 17.625 4.20163 17.625 4.5V10.5C17.625 10.7984 17.5065 11.0845 17.2955 11.2955C17.0845 11.5065 16.7984 11.625 16.5 11.625C16.2016 11.625 15.9155 11.5065 15.7045 11.2955C15.4935 11.0845 15.375 10.7984 15.375 10.5ZM22.5 11.625C22.7984 11.625 23.0845 11.5065 23.2955 11.2955C23.5065 11.0845 23.625 10.7984 23.625 10.5V4.5C23.625 4.20163 23.5065 3.91548 23.2955 3.7045C23.0845 3.49353 22.7984 3.375 22.5 3.375C22.2016 3.375 21.9155 3.49353 21.7045 3.7045C21.4935 3.91548 21.375 4.20163 21.375 4.5V10.5C21.375 10.7984 21.4935 11.0845 21.7045 11.2955C21.9155 11.5065 22.2016 11.625 22.5 11.625ZM28.5 11.625C28.7984 11.625 29.0845 11.5065 29.2955 11.2955C29.5065 11.0845 29.625 10.7984 29.625 10.5V4.5C29.625 4.20163 29.5065 3.91548 29.2955 3.7045C29.0845 3.49353 28.7984 3.375 28.5 3.375C28.2016 3.375 27.9155 3.49353 27.7045 3.7045C27.4935 3.91548 27.375 4.20163 27.375 4.5V10.5C27.375 10.7984 27.4935 11.0845 27.7045 11.2955C27.9155 11.5065 28.2016 11.625 28.5 11.625ZM46.125 22.5V24C46.1257 25.8557 45.4024 27.6385 44.1089 28.9691C42.8154 30.2998 41.0538 31.0732 39.1987 31.125C38.0948 34.3831 36.0667 37.2495 33.3619 39.375H39C39.2984 39.375 39.5845 39.4935 39.7955 39.7045C40.0065 39.9155 40.125 40.2016 40.125 40.5C40.125 40.7984 40.0065 41.0845 39.7955 41.2955C39.5845 41.5065 39.2984 41.625 39 41.625H6C5.70163 41.625 5.41548 41.5065 5.2045 41.2955C4.99353 41.0845 4.875 40.7984 4.875 40.5C4.875 40.2016 4.99353 39.9155 5.2045 39.7045C5.41548 39.4935 5.70163 39.375 6 39.375H11.6381C9.53558 37.7237 7.83468 35.6173 6.66329 33.2141C5.4919 30.8109 4.88048 28.1735 4.875 25.5V16.5C4.875 16.2016 4.99353 15.9155 5.2045 15.7045C5.41548 15.4935 5.70163 15.375 6 15.375H39C40.8897 15.375 42.7019 16.1257 44.0381 17.4619C45.3743 18.7981 46.125 20.6103 46.125 22.5ZM37.875 25.5V17.625H7.125V25.5C7.13095 28.4017 7.9552 31.2428 9.50308 33.6971C11.051 36.1514 13.2597 38.1194 15.8756 39.375H29.1244C31.7403 38.1194 33.949 36.1514 35.4969 33.6971C37.0448 31.2428 37.869 28.4017 37.875 25.5ZM43.875 22.5C43.8747 21.4029 43.5043 20.3381 42.8238 19.4776C42.1433 18.6171 41.1924 18.0113 40.125 17.7581V25.5C40.1247 26.6101 40.0186 27.7176 39.8081 28.8075C40.945 28.6164 41.9773 28.0286 42.7219 27.1485C43.4664 26.2683 43.875 25.1528 43.875 24V22.5Z" fill="currentColor" />
</svg>
