<svg viewBox="0 0 48 48" fill="none" xmlns="http://www.w3.org/2000/svg">
	<path d="M43.5 10.875H4.5C3.80381 10.875 3.13613 11.1516 2.64384 11.6438C2.15156 12.1361 1.875 12.8038 1.875 13.5V34.5C1.875 35.1962 2.15156 35.8639 2.64384 36.3562C3.13613 36.8484 3.80381 37.125 4.5 37.125H43.5C44.1962 37.125 44.8639 36.8484 45.3562 36.3562C45.8484 35.8639 46.125 35.1962 46.125 34.5V13.5C46.125 12.8038 45.8484 12.1361 45.3562 11.6438C44.8639 11.1516 44.1962 10.875 43.5 10.875ZM43.875 34.5C43.875 34.5995 43.8355 34.6948 43.7652 34.7652C43.6948 34.8355 43.5995 34.875 43.5 34.875H4.5C4.40054 34.875 4.30516 34.8355 4.23484 34.7652C4.16451 34.6948 4.125 34.5995 4.125 34.5V13.5C4.125 13.4005 4.16451 13.3052 4.23484 13.2348C4.30516 13.1645 4.40054 13.125 4.5 13.125H43.5C43.5995 13.125 43.6948 13.1645 43.7652 13.2348C43.8355 13.3052 43.875 13.4005 43.875 13.5V34.5ZM23.625 19.125V22.875H25.5C25.7984 22.875 26.0845 22.9935 26.2955 23.2045C26.5065 23.4155 26.625 23.7016 26.625 24C26.625 24.2984 26.5065 24.5845 26.2955 24.7955C26.0845 25.0065 25.7984 25.125 25.5 25.125H23.625V28.875H27C27.2984 28.875 27.5845 28.9935 27.7955 29.2045C28.0065 29.4155 28.125 29.7016 28.125 30C28.125 30.2984 28.0065 30.5845 27.7955 30.7955C27.5845 31.0065 27.2984 31.125 27 31.125H22.5C22.2016 31.125 21.9155 31.0065 21.7045 30.7955C21.4935 30.5845 21.375 30.2984 21.375 30V18C21.375 17.7016 21.4935 17.4155 21.7045 17.2045C21.9155 16.9935 22.2016 16.875 22.5 16.875H27C27.2984 16.875 27.5845 16.9935 27.7955 17.2045C28.0065 17.4155 28.125 17.7016 28.125 18C28.125 18.2984 28.0065 18.5845 27.7955 18.7955C27.5845 19.0065 27.2984 19.125 27 19.125H23.625ZM40.0837 18.3038L36.7087 30.3037C36.6428 30.5405 36.5012 30.7491 36.3055 30.8978C36.1098 31.0464 35.8708 31.1269 35.625 31.1269C35.3792 31.1269 35.1402 31.0464 34.9445 30.8978C34.7488 30.7491 34.6072 30.5405 34.5413 30.3037L31.1663 18.3038C31.0857 18.0163 31.1226 17.7087 31.2689 17.4485C31.4152 17.1882 31.6588 16.9968 31.9463 16.9163C32.2337 16.8357 32.5413 16.8726 32.8015 17.0189C33.0617 17.1652 33.2532 17.4088 33.3337 17.6962L35.625 25.845L37.9163 17.6962C37.9968 17.4088 38.1883 17.1652 38.4485 17.0189C38.7087 16.8726 39.0163 16.8357 39.3037 16.9163C39.5912 16.9968 39.8348 17.1882 39.9811 17.4485C40.1274 17.7087 40.1643 18.0163 40.0837 18.3038ZM12 16.875H10.5C10.2016 16.875 9.91548 16.9935 9.7045 17.2045C9.49353 17.4155 9.375 17.7016 9.375 18V30C9.375 30.2984 9.49353 30.5845 9.7045 30.7955C9.91548 31.0065 10.2016 31.125 10.5 31.125H12C13.4918 31.125 14.9226 30.5324 15.9775 29.4775C17.0324 28.4226 17.625 26.9918 17.625 25.5V22.5C17.625 21.0082 17.0324 19.5774 15.9775 18.5225C14.9226 17.4676 13.4918 16.875 12 16.875ZM15.375 25.5C15.375 26.3951 15.0194 27.2535 14.3865 27.8865C13.7535 28.5194 12.8951 28.875 12 28.875H11.625V19.125H12C12.8951 19.125 13.7535 19.4806 14.3865 20.1135C15.0194 20.7465 15.375 21.6049 15.375 22.5V25.5Z" fill="currentColor" />
</svg>
