<svg width="24" height="18" viewBox="0 0 24 18" fill="none" xmlns="http://www.w3.org/2000/svg">
<path d="M9.74985 9.62473C9.74985 9.84724 9.68387 10.0647 9.56025 10.2498C9.43663 10.4348 9.26093 10.579 9.05537 10.6641C8.8498 10.7492 8.6236 10.7715 8.40537 10.7281C8.18714 10.6847 7.98669 10.5776 7.82935 10.4202C7.67202 10.2629 7.56487 10.0624 7.52146 9.84421C7.47806 9.62598 7.50033 9.39978 7.58548 9.19422C7.67063 8.98865 7.81483 8.81295 7.99983 8.68933C8.18484 8.56572 8.40234 8.49973 8.62485 8.49973C8.92322 8.49973 9.20936 8.61826 9.42034 8.82924C9.63132 9.04022 9.74985 9.32637 9.74985 9.62473ZM15.3748 8.49973C15.1523 8.49973 14.9348 8.56572 14.7498 8.68933C14.5648 8.81295 14.4206 8.98865 14.3355 9.19422C14.2503 9.39978 14.2281 9.62598 14.2715 9.84421C14.3149 10.0624 14.422 10.2629 14.5794 10.4202C14.7367 10.5776 14.9371 10.6847 15.1554 10.7281C15.3736 10.7715 15.5998 10.7492 15.8054 10.6641C16.0109 10.579 16.1866 10.4348 16.3102 10.2498C16.4339 10.0647 16.4998 9.84724 16.4998 9.62473C16.4998 9.32637 16.3813 9.04022 16.1703 8.82924C15.9594 8.61826 15.6732 8.49973 15.3748 8.49973ZM22.3545 14.5841L16.0733 17.3694C15.8844 17.4534 15.6804 17.4978 15.4737 17.5001C15.267 17.5023 15.0621 17.4622 14.8714 17.3823C14.6808 17.3024 14.5085 17.1843 14.3652 17.0354C14.2219 16.8865 14.1105 16.7098 14.038 16.5163L13.2777 14.4538C12.8577 14.4819 12.4317 14.4963 11.9998 14.4969C11.568 14.4975 11.142 14.4832 10.722 14.4538L9.96172 16.5163C9.88906 16.7098 9.77764 16.8863 9.63428 17.0352C9.49093 17.184 9.31868 17.302 9.12809 17.3819C8.9375 17.4618 8.7326 17.5019 8.52596 17.4997C8.31932 17.4976 8.1153 17.4532 7.92641 17.3694L1.64516 14.5841C1.32096 14.4424 1.05762 14.1901 0.902063 13.8723C0.746508 13.5545 0.708845 13.1918 0.795785 12.8488L3.56235 1.93724C3.63536 1.65346 3.78954 1.39714 4.00601 1.19965C4.22247 1.00217 4.49183 0.872096 4.7811 0.82536L8.16172 0.269423C8.5344 0.209481 8.91606 0.290294 9.23246 0.496145C9.54886 0.701996 9.77739 1.01817 9.8736 1.38317L10.1792 2.58692C10.7748 2.5288 11.3817 2.49974 11.9998 2.49974C12.618 2.49974 13.2242 2.5288 13.8186 2.58692L14.1242 1.38317C14.2202 1.01806 14.4487 0.701754 14.7652 0.49587C15.0816 0.289986 15.4634 0.209263 15.8361 0.269423L19.2186 0.82536C19.5079 0.872096 19.7772 1.00217 19.9937 1.19965C20.2102 1.39714 20.3643 1.65346 20.4373 1.93724L23.2058 12.8479C23.2928 13.1912 23.255 13.5543 23.0991 13.8724C22.9432 14.1904 22.6793 14.4427 22.3545 14.5841ZM21.7498 13.2135L18.9814 2.31224C18.9814 2.31224 18.9814 2.31224 18.9739 2.31224L15.5933 1.74974C15.5909 1.74834 15.5881 1.7476 15.5853 1.7476C15.5825 1.7476 15.5798 1.74834 15.5773 1.74974L15.312 2.79411C15.7808 2.88224 16.2495 2.98724 16.7023 3.11474C16.8809 3.16024 17.0364 3.26986 17.1393 3.42269C17.2421 3.57553 17.2852 3.76088 17.2601 3.9434C17.2351 4.12592 17.1438 4.29285 17.0035 4.41234C16.8633 4.53183 16.684 4.59553 16.4998 4.5913C16.4314 4.5911 16.3633 4.58164 16.2973 4.56317C14.8967 4.1831 13.4512 3.99358 11.9998 3.99974C10.5486 3.99327 9.10306 4.18248 7.70235 4.56224C7.60666 4.59182 7.50602 4.60193 7.40636 4.59199C7.3067 4.58205 7.21004 4.55224 7.12209 4.50434C7.03414 4.45643 6.95667 4.39139 6.89425 4.31306C6.83184 4.23473 6.78575 4.1447 6.7587 4.04827C6.73165 3.95183 6.72419 3.85096 6.73675 3.7516C6.74932 3.65224 6.78166 3.5564 6.83186 3.46974C6.88207 3.38307 6.94912 3.30734 7.02907 3.24702C7.10902 3.18669 7.20024 3.14299 7.29735 3.11849C7.74922 2.99099 8.21422 2.88599 8.68672 2.79786L8.42141 1.74974C8.42141 1.74974 8.42141 1.74974 8.41016 1.74974L5.02578 2.30567C5.02302 2.30491 5.02011 2.30491 5.01735 2.30567L2.24985 13.2182L8.5311 15.9997C8.53426 16.0015 8.53781 16.0024 8.54141 16.0024C8.54501 16.0024 8.54856 16.0015 8.55172 15.9997L9.18735 14.286C8.55049 14.1886 7.92 14.0533 7.29922 13.881C7.11432 13.8219 6.95953 13.6934 6.86738 13.5226C6.77524 13.3517 6.75292 13.1518 6.80513 12.9649C6.85733 12.7779 6.97998 12.6185 7.14731 12.5201C7.31463 12.4217 7.51359 12.392 7.70235 12.4372C9.10297 12.8174 10.5485 13.0067 11.9998 12.9997C13.4511 13.0067 14.8967 12.8174 16.2973 12.4372C16.4889 12.3835 16.694 12.4081 16.8674 12.5056C17.0409 12.6031 17.1685 12.7655 17.2222 12.9571C17.2759 13.1487 17.2513 13.3537 17.1538 13.5272C17.0563 13.7006 16.8939 13.8282 16.7023 13.8819C16.0809 14.054 15.4498 14.1889 14.8123 14.286L15.4452 15.9997C15.4482 16.0014 15.4516 16.0022 15.455 16.0022C15.4584 16.0022 15.4618 16.0014 15.4648 15.9997L21.7498 13.2135Z" fill="white"/>
</svg>
