<svg width="21" height="21" viewBox="0 0 21 21" fill="none" xmlns="http://www.w3.org/2000/svg">
<path d="M19.5291 5.59501C19.7583 4.85551 19.8318 4.07653 19.745 3.30719C19.6582 2.53785 19.413 1.79484 19.0247 1.12501C18.9588 1.01097 18.8641 0.916279 18.7501 0.850451C18.636 0.784623 18.5067 0.749983 18.375 0.750012C17.5014 0.748184 16.6395 0.950697 15.8582 1.34137C15.0768 1.73205 14.3977 2.30006 13.875 3.00001H11.625C11.1023 2.30006 10.4232 1.73205 9.64182 1.34137C8.86047 0.950697 7.99857 0.748184 7.125 0.750012C6.99332 0.749983 6.86395 0.784623 6.7499 0.850451C6.63586 0.916279 6.54115 1.01097 6.47531 1.12501C6.08704 1.79484 5.84177 2.53785 5.75497 3.30719C5.66816 4.07653 5.74169 4.85551 5.97094 5.59501C5.50756 6.40381 5.25934 7.31793 5.25 8.25001V9.00001C5.25158 10.269 5.71225 11.4946 6.54696 12.4504C7.38166 13.4063 8.53402 14.0278 9.79125 14.2003C9.27807 14.857 8.99952 15.6666 9 16.5V17.25H6.75C6.15326 17.25 5.58097 17.013 5.15901 16.591C4.73705 16.169 4.5 15.5968 4.5 15C4.5 14.5076 4.403 14.0199 4.21455 13.5649C4.02609 13.11 3.74987 12.6966 3.40165 12.3484C3.05343 12.0001 2.64003 11.7239 2.18506 11.5355C1.73009 11.347 1.24246 11.25 0.75 11.25C0.551088 11.25 0.360322 11.329 0.21967 11.4697C0.0790176 11.6103 0 11.8011 0 12C0 12.1989 0.0790176 12.3897 0.21967 12.5303C0.360322 12.671 0.551088 12.75 0.75 12.75C1.34674 12.75 1.91903 12.9871 2.34099 13.409C2.76295 13.831 3 14.4033 3 15C3 15.9946 3.39509 16.9484 4.09835 17.6517C4.80161 18.3549 5.75544 18.75 6.75 18.75H9V20.25C9 20.4489 9.07902 20.6397 9.21967 20.7803C9.36032 20.921 9.55109 21 9.75 21C9.94891 21 10.1397 20.921 10.2803 20.7803C10.421 20.6397 10.5 20.4489 10.5 20.25V16.5C10.5 15.9033 10.7371 15.331 11.159 14.909C11.581 14.4871 12.1533 14.25 12.75 14.25C13.3467 14.25 13.919 14.4871 14.341 14.909C14.7629 15.331 15 15.9033 15 16.5V20.25C15 20.4489 15.079 20.6397 15.2197 20.7803C15.3603 20.921 15.5511 21 15.75 21C15.9489 21 16.1397 20.921 16.2803 20.7803C16.421 20.6397 16.5 20.4489 16.5 20.25V16.5C16.5005 15.6666 16.2219 14.857 15.7087 14.2003C16.966 14.0278 18.1183 13.4063 18.953 12.4504C19.7877 11.4946 20.2484 10.269 20.25 9.00001V8.25001C20.2407 7.31793 19.9924 6.40381 19.5291 5.59501ZM18.75 9.00001C18.75 9.99457 18.3549 10.9484 17.6516 11.6517C16.9484 12.3549 15.9946 12.75 15 12.75H10.5C9.50544 12.75 8.55161 12.3549 7.84835 11.6517C7.14509 10.9484 6.75 9.99457 6.75 9.00001V8.25001C6.7592 7.50004 6.98373 6.7685 7.39688 6.14251C7.47389 6.041 7.52377 5.92154 7.54182 5.7954C7.55986 5.66926 7.54547 5.54061 7.5 5.42157C7.30465 4.91776 7.21063 4.38035 7.22334 3.84013C7.23605 3.29992 7.35523 2.76752 7.57406 2.27345C8.18786 2.33948 8.77892 2.54281 9.30344 2.86836C9.82796 3.19391 10.2725 3.63334 10.6041 4.15407C10.6716 4.25974 10.7646 4.34676 10.8745 4.4072C10.9844 4.46763 11.1077 4.49955 11.2331 4.50001H14.2659C14.3918 4.50002 14.5157 4.46833 14.6261 4.40787C14.7366 4.34742 14.83 4.26014 14.8978 4.15407C15.2293 3.6333 15.6738 3.19383 16.1984 2.86827C16.7229 2.54271 17.314 2.33941 17.9278 2.27345C18.1463 2.76765 18.2652 3.30011 18.2776 3.84032C18.29 4.38053 18.1956 4.91788 18 5.42157C17.9547 5.53947 17.9395 5.66682 17.9559 5.79206C17.9722 5.91731 18.0196 6.03648 18.0938 6.13876C18.511 6.76475 18.7388 7.4978 18.75 8.25001V9.00001Z" fill="white"/>
</svg>
