<svg width="17" height="18" viewBox="0 0 17 18" fill="none" xmlns="http://www.w3.org/2000/svg">
<path d="M6.25391 0.75H1.75391C1.35608 0.75 0.974551 0.908035 0.693246 1.18934C0.411941 1.47064 0.253906 1.85218 0.253906 2.25V6.75C0.253906 7.14782 0.411941 7.52936 0.693246 7.81066C0.974551 8.09196 1.35608 8.25 1.75391 8.25H6.25391C6.65173 8.25 7.03326 8.09196 7.31457 7.81066C7.59587 7.52936 7.75391 7.14782 7.75391 6.75V2.25C7.75391 1.85218 7.59587 1.47064 7.31457 1.18934C7.03326 0.908035 6.65173 0.75 6.25391 0.75ZM6.25391 6.75H1.75391V2.25H6.25391V6.75ZM15.2539 0.75H10.7539C10.3561 0.75 9.97455 0.908035 9.69325 1.18934C9.41194 1.47064 9.25391 1.85218 9.25391 2.25V6.75C9.25391 7.14782 9.41194 7.52936 9.69325 7.81066C9.97455 8.09196 10.3561 8.25 10.7539 8.25H15.2539C15.6517 8.25 16.0333 8.09196 16.3146 7.81066C16.5959 7.52936 16.7539 7.14782 16.7539 6.75V2.25C16.7539 1.85218 16.5959 1.47064 16.3146 1.18934C16.0333 0.908035 15.6517 0.75 15.2539 0.75ZM15.2539 6.75H10.7539V2.25H15.2539V6.75ZM6.25391 9.75H1.75391C1.35608 9.75 0.974551 9.90804 0.693246 10.1893C0.411941 10.4706 0.253906 10.8522 0.253906 11.25V15.75C0.253906 16.1478 0.411941 16.5294 0.693246 16.8107C0.974551 17.092 1.35608 17.25 1.75391 17.25H6.25391C6.65173 17.25 7.03326 17.092 7.31457 16.8107C7.59587 16.5294 7.75391 16.1478 7.75391 15.75V11.25C7.75391 10.8522 7.59587 10.4706 7.31457 10.1893C7.03326 9.90804 6.65173 9.75 6.25391 9.75ZM6.25391 15.75H1.75391V11.25H6.25391V15.75ZM15.2539 9.75H10.7539C10.3561 9.75 9.97455 9.90804 9.69325 10.1893C9.41194 10.4706 9.25391 10.8522 9.25391 11.25V15.75C9.25391 16.1478 9.41194 16.5294 9.69325 16.8107C9.97455 17.092 10.3561 17.25 10.7539 17.25H15.2539C15.6517 17.25 16.0333 17.092 16.3146 16.8107C16.5959 16.5294 16.7539 16.1478 16.7539 15.75V11.25C16.7539 10.8522 16.5959 10.4706 16.3146 10.1893C16.0333 9.90804 15.6517 9.75 15.2539 9.75ZM15.2539 15.75H10.7539V11.25H15.2539V15.75Z" fill="black"/>
</svg>
