<svg width="20" height="21" viewBox="0 0 20 21" fill="none" xmlns="http://www.w3.org/2000/svg">
<path d="M10 6C9.10998 6 8.23995 6.26392 7.49993 6.75839C6.75991 7.25285 6.18314 7.95566 5.84254 8.77792C5.50195 9.60019 5.41283 10.505 5.58647 11.3779C5.7601 12.2508 6.18868 13.0526 6.81802 13.682C7.44736 14.3113 8.24918 14.7399 9.12209 14.9135C9.99501 15.0872 10.8998 14.9981 11.7221 14.6575C12.5443 14.3169 13.2471 13.7401 13.7416 13.0001C14.2361 12.26 14.5 11.39 14.5 10.5C14.4988 9.30691 14.0243 8.16303 13.1806 7.31939C12.337 6.47575 11.1931 6.00124 10 6ZM10 13.5C9.40666 13.5 8.82664 13.3241 8.33329 12.9944C7.83994 12.6648 7.45542 12.1962 7.22836 11.6481C7.0013 11.0999 6.94189 10.4967 7.05764 9.91473C7.1734 9.33279 7.45912 8.79824 7.87868 8.37868C8.29824 7.95912 8.83279 7.6734 9.41473 7.55764C9.99667 7.44189 10.5999 7.5013 11.1481 7.72836C11.6962 7.95542 12.1648 8.33994 12.4944 8.83329C12.8241 9.32664 13 9.90666 13 10.5C13 11.2956 12.6839 12.0587 12.1213 12.6213C11.5587 13.1839 10.7956 13.5 10 13.5ZM14.5 0.75H5.5C4.10807 0.751489 2.77358 1.30509 1.78933 2.28933C0.805091 3.27358 0.251489 4.60807 0.25 6V15C0.251489 16.3919 0.805091 17.7264 1.78933 18.7107C2.77358 19.6949 4.10807 20.2485 5.5 20.25H14.5C15.8919 20.2485 17.2264 19.6949 18.2107 18.7107C19.1949 17.7264 19.7485 16.3919 19.75 15V6C19.7485 4.60807 19.1949 3.27358 18.2107 2.28933C17.2264 1.30509 15.8919 0.751489 14.5 0.75ZM18.25 15C18.25 15.9946 17.8549 16.9484 17.1516 17.6516C16.4484 18.3549 15.4946 18.75 14.5 18.75H5.5C4.50544 18.75 3.55161 18.3549 2.84835 17.6516C2.14509 16.9484 1.75 15.9946 1.75 15V6C1.75 5.00544 2.14509 4.05161 2.84835 3.34835C3.55161 2.64509 4.50544 2.25 5.5 2.25H14.5C15.4946 2.25 16.4484 2.64509 17.1516 3.34835C17.8549 4.05161 18.25 5.00544 18.25 6V15ZM16 5.625C16 5.8475 15.934 6.06501 15.8104 6.25002C15.6868 6.43502 15.5111 6.57922 15.3055 6.66436C15.1 6.74951 14.8738 6.77179 14.6555 6.72838C14.4373 6.68498 14.2368 6.57783 14.0795 6.4205C13.9222 6.26316 13.815 6.06271 13.7716 5.84448C13.7282 5.62625 13.7505 5.40005 13.8356 5.19448C13.9208 4.98891 14.065 4.81321 14.25 4.6896C14.435 4.56598 14.6525 4.5 14.875 4.5C15.1734 4.5 15.4595 4.61853 15.6705 4.8295C15.8815 5.04048 16 5.32663 16 5.625Z" fill="white"/>
</svg>
