<svg width="24" height="25" viewBox="0 0 24 25" fill="none" xmlns="http://www.w3.org/2000/svg">
<path d="M22 0.271484H2C1.46957 0.271484 0.960859 0.482198 0.585786 0.857271C0.210714 1.23234 0 1.74105 0 2.27148V22.2715C0 22.8019 0.210714 23.3106 0.585786 23.6857C0.960859 24.0608 1.46957 24.2715 2 24.2715H22C22.5304 24.2715 23.0391 24.0608 23.4142 23.6857C23.7893 23.3106 24 22.8019 24 22.2715V2.27148C24 1.74105 23.7893 1.23234 23.4142 0.857271C23.0391 0.482198 22.5304 0.271484 22 0.271484ZM22 22.2715H2V2.27148H22V22.2715ZM7.2925 16.979C7.19952 16.8861 7.12576 16.7758 7.07544 16.6544C7.02512 16.533 6.99921 16.4029 6.99921 16.2715C6.99921 16.1401 7.02512 16.0099 7.07544 15.8885C7.12576 15.7671 7.19952 15.6569 7.2925 15.564L13.5863 9.27148H10C9.73478 9.27148 9.48043 9.16613 9.29289 8.97859C9.10536 8.79105 9 8.5367 9 8.27148C9 8.00627 9.10536 7.75191 9.29289 7.56438C9.48043 7.37684 9.73478 7.27148 10 7.27148H16C16.2652 7.27148 16.5196 7.37684 16.7071 7.56438C16.8946 7.75191 17 8.00627 17 8.27148V14.2715C17 14.5367 16.8946 14.7911 16.7071 14.9786C16.5196 15.1661 16.2652 15.2715 16 15.2715C15.7348 15.2715 15.4804 15.1661 15.2929 14.9786C15.1054 14.7911 15 14.5367 15 14.2715V10.6852L8.7075 16.979C8.61463 17.072 8.50434 17.1457 8.38294 17.196C8.26154 17.2464 8.13142 17.2723 8 17.2723C7.86858 17.2723 7.73846 17.2464 7.61706 17.196C7.49566 17.1457 7.38537 17.072 7.2925 16.979Z" fill="currentColor"/>
</svg>
