<svg width="19" height="16" viewBox="0 0 19 16" fill="none" xmlns="http://www.w3.org/2000/svg">
<path d="M17.0039 8.75H2.00391C1.60608 8.75 1.22455 8.90804 0.943246 9.18934C0.661941 9.47064 0.503906 9.85218 0.503906 10.25V14C0.503906 14.3978 0.661941 14.7794 0.943246 15.0607C1.22455 15.342 1.60608 15.5 2.00391 15.5H17.0039C17.4017 15.5 17.7833 15.342 18.0646 15.0607C18.3459 14.7794 18.5039 14.3978 18.5039 14V10.25C18.5039 9.85218 18.3459 9.47064 18.0646 9.18934C17.7833 8.90804 17.4017 8.75 17.0039 8.75ZM17.0039 14H2.00391V10.25H17.0039V14ZM17.0039 0.5H2.00391C1.60608 0.5 1.22455 0.658035 0.943246 0.93934C0.661941 1.22064 0.503906 1.60218 0.503906 2V5.75C0.503906 6.14782 0.661941 6.52936 0.943246 6.81066C1.22455 7.09196 1.60608 7.25 2.00391 7.25H17.0039C17.4017 7.25 17.7833 7.09196 18.0646 6.81066C18.3459 6.52936 18.5039 6.14782 18.5039 5.75V2C18.5039 1.60218 18.3459 1.22064 18.0646 0.93934C17.7833 0.658035 17.4017 0.5 17.0039 0.5ZM17.0039 5.75H2.00391V2H17.0039V5.75Z" fill="currentColor"/>
</svg>
