<svg width="48" height="48" viewBox="0 0 48 48" fill="none" xmlns="http://www.w3.org/2000/svg">
<path d="M0.4 2.26687L11.52 13.3869L8.42667 16.0002H0V32.0002H8.42667L24 45.1469V25.8935L30.5333 32.4269C30.1333 32.6135 29.7333 32.7735 29.3333 32.9069V35.6802C30.48 35.4135 31.5467 34.9602 32.5333 34.4002L37.36 39.2269C35.0133 40.8802 32.2933 42.0002 29.3333 42.4269V45.1202C33.04 44.6669 36.4267 43.2269 39.28 41.1469L45.7333 47.6002L47.6267 45.7069L2.29333 0.373535L0.4 2.26687ZM21.3333 23.2269V39.4135L9.38667 29.3335H2.66667V18.6669H9.38667L13.3867 15.2802L21.3333 23.2269ZM19.5467 10.1069L17.6533 8.21353L24 2.85354V14.5602L21.3333 11.8935V8.58687L19.5467 10.1069ZM29.3333 15.0935V12.3202C34.6667 13.5469 38.6667 18.2935 38.6667 24.0002C38.6667 25.5469 38.32 27.0135 37.7867 28.3735L35.68 26.2669C35.8667 25.5469 36 24.8002 36 24.0002C36 19.7869 33.1733 16.2669 29.3333 15.0935ZM29.3333 5.54687V2.85354C39.8667 4.1602 48 13.1202 48 24.0002C48 28.1602 46.7733 32.0269 44.72 35.3069L42.7733 33.3602C44.4 30.6135 45.3333 27.4135 45.3333 24.0002C45.3333 14.6135 38.3733 6.85353 29.3333 5.54687Z" fill="currentColor"/>
</svg>
