<svg viewBox="0 0 48 48" fill="none" xmlns="http://www.w3.org/2000/svg">
	<path d="M37.5 9.375H25.125V3C25.125 2.70163 25.0065 2.41548 24.7955 2.2045C24.5845 1.99353 24.2984 1.875 24 1.875C23.7016 1.875 23.4155 1.99353 23.2045 2.2045C22.9935 2.41548 22.875 2.70163 22.875 3V9.375H10.5C9.00816 9.375 7.57742 9.96763 6.52252 11.0225C5.46763 12.0774 4.875 13.5082 4.875 15V36C4.875 37.4918 5.46763 38.9226 6.52252 39.9775C7.57742 41.0324 9.00816 41.625 10.5 41.625H37.5C38.9918 41.625 40.4226 41.0324 41.4775 39.9775C42.5324 38.9226 43.125 37.4918 43.125 36V15C43.125 13.5082 42.5324 12.0774 41.4775 11.0225C40.4226 9.96763 38.9918 9.375 37.5 9.375ZM40.875 36C40.875 36.8951 40.5194 37.7535 39.8865 38.3865C39.2535 39.0194 38.3951 39.375 37.5 39.375H10.5C9.60489 39.375 8.74645 39.0194 8.11351 38.3865C7.48058 37.7535 7.125 36.8951 7.125 36V15C7.125 14.1049 7.48058 13.2465 8.11351 12.6135C8.74645 11.9806 9.60489 11.625 10.5 11.625H37.5C38.3951 11.625 39.2535 11.9806 39.8865 12.6135C40.5194 13.2465 40.875 14.1049 40.875 15V36ZM13.875 20.25C13.875 19.8792 13.985 19.5166 14.191 19.2083C14.397 18.9 14.6899 18.6596 15.0325 18.5177C15.3751 18.3758 15.7521 18.3387 16.1158 18.411C16.4795 18.4834 16.8136 18.662 17.0758 18.9242C17.338 19.1864 17.5166 19.5205 17.589 19.8842C17.6613 20.2479 17.6242 20.6249 17.4823 20.9675C17.3404 21.3101 17.1 21.603 16.7917 21.809C16.4834 22.015 16.1208 22.125 15.75 22.125C15.2527 22.125 14.7758 21.9275 14.4242 21.5758C14.0725 21.2242 13.875 20.7473 13.875 20.25ZM30.375 20.25C30.375 19.8792 30.485 19.5166 30.691 19.2083C30.897 18.9 31.1899 18.6596 31.5325 18.5177C31.8751 18.3758 32.2521 18.3387 32.6158 18.411C32.9795 18.4834 33.3136 18.662 33.5758 18.9242C33.8381 19.1864 34.0166 19.5205 34.089 19.8842C34.1613 20.2479 34.1242 20.6249 33.9823 20.9675C33.8404 21.3101 33.6 21.603 33.2917 21.809C32.9834 22.015 32.6208 22.125 32.25 22.125C31.7527 22.125 31.2758 21.9275 30.9242 21.5758C30.5725 21.2242 30.375 20.7473 30.375 20.25ZM30.75 25.875H17.25C15.9571 25.875 14.7171 26.3886 13.8029 27.3029C12.8886 28.2171 12.375 29.4571 12.375 30.75C12.375 32.0429 12.8886 33.2829 13.8029 34.1971C14.7171 35.1114 15.9571 35.625 17.25 35.625H30.75C32.0429 35.625 33.2829 35.1114 34.1971 34.1971C35.1114 33.2829 35.625 32.0429 35.625 30.75C35.625 29.4571 35.1114 28.2171 34.1971 27.3029C33.2829 26.3886 32.0429 25.875 30.75 25.875ZM26.625 28.125V33.375H21.375V28.125H26.625ZM14.625 30.75C14.625 30.0538 14.9016 29.3861 15.3938 28.8938C15.8861 28.4016 16.5538 28.125 17.25 28.125H19.125V33.375H17.25C16.5538 33.375 15.8861 33.0984 15.3938 32.6062C14.9016 32.1139 14.625 31.4462 14.625 30.75ZM30.75 33.375H28.875V28.125H30.75C31.4462 28.125 32.1139 28.4016 32.6062 28.8938C33.0984 29.3861 33.375 30.0538 33.375 30.75C33.375 31.4462 33.0984 32.1139 32.6062 32.6062C32.1139 33.0984 31.4462 33.375 30.75 33.375Z" fill="currentColor" />
</svg>
