<svg width="21" height="20" viewBox="0 0 21 20" fill="none" xmlns="http://www.w3.org/2000/svg">
<path d="M20.0347 18.4696L15.3407 13.7765C16.7012 12.1431 17.3796 10.048 17.2348 7.92715C17.09 5.80629 16.1332 3.82289 14.5633 2.38956C12.9933 0.956234 10.9313 0.183327 8.80603 0.231627C6.68078 0.279927 4.65596 1.14571 3.15279 2.64888C1.64962 4.15205 0.783833 6.17687 0.735533 8.30213C0.687233 10.4274 1.46014 12.4894 2.89347 14.0593C4.3268 15.6293 6.31019 16.5861 8.43106 16.7309C10.5519 16.8757 12.647 16.1973 14.2804 14.8368L18.9735 19.5308C19.0432 19.6005 19.1259 19.6558 19.2169 19.6935C19.308 19.7312 19.4056 19.7506 19.5041 19.7506C19.6027 19.7506 19.7003 19.7312 19.7913 19.6935C19.8823 19.6558 19.9651 19.6005 20.0347 19.5308C20.1044 19.4612 20.1597 19.3784 20.1974 19.2874C20.2351 19.1963 20.2545 19.0988 20.2545 19.0002C20.2545 18.9017 20.2351 18.8041 20.1974 18.713C20.1597 18.622 20.1044 18.5393 20.0347 18.4696ZM2.25412 8.50021C2.25412 7.16519 2.65 5.86015 3.3917 4.75011C4.1334 3.64008 5.18761 2.77492 6.42101 2.26403C7.65441 1.75314 9.01161 1.61946 10.321 1.87991C11.6304 2.14036 12.8331 2.78324 13.7771 3.72724C14.7211 4.67125 15.364 5.87398 15.6244 7.18335C15.8849 8.49273 15.7512 9.84993 15.2403 11.0833C14.7294 12.3167 13.8643 13.3709 12.7542 14.1126C11.6442 14.8543 10.3391 15.2502 9.00412 15.2502C7.21452 15.2482 5.49878 14.5364 4.23334 13.271C2.9679 12.0056 2.25611 10.2898 2.25412 8.50021Z" fill="currentColor"/>
</svg>
