<svg width="22" height="22" viewBox="0 0 22 22" fill="none" xmlns="http://www.w3.org/2000/svg">
<path d="M21.3112 0.894077C21.1226 0.705576 20.8871 0.570766 20.629 0.503534C20.371 0.436302 20.0997 0.439079 19.843 0.511577H19.829L1.83461 5.97158C1.54248 6.05577 1.28283 6.22674 1.09007 6.46183C0.897302 6.69693 0.780525 6.98505 0.75521 7.28801C0.729895 7.59098 0.797238 7.89448 0.948314 8.15831C1.09939 8.42213 1.32707 8.63382 1.60117 8.76533L9.56242 12.6428L13.4343 20.5994C13.5547 20.8564 13.7462 21.0735 13.9861 21.2252C14.226 21.3769 14.5042 21.4567 14.788 21.4553C14.8312 21.4553 14.8743 21.4535 14.9174 21.4497C15.2201 21.4252 15.5081 21.3087 15.7427 21.1158C15.9773 20.9229 16.1473 20.6629 16.2299 20.3706L21.6862 2.37627C21.6862 2.37158 21.6862 2.36689 21.6862 2.3622C21.7596 2.10623 21.7636 1.83532 21.6977 1.57731C21.6318 1.31929 21.4984 1.08347 21.3112 0.894077ZM14.7965 19.9413L14.7918 19.9544V19.9478L11.0362 12.2322L15.5362 7.7322C15.6709 7.59041 15.7449 7.40159 15.7424 7.20602C15.7399 7.01045 15.6611 6.82359 15.5228 6.68529C15.3845 6.54699 15.1976 6.46819 15.002 6.46568C14.8065 6.46318 14.6177 6.53717 14.4759 6.67189L9.97586 11.1719L2.25742 7.41626H2.25086H2.26399L20.2499 1.95533L14.7965 19.9413Z" fill="currentColor"/>
</svg>
