<svg width="40" height="40" viewBox="0 0 40 40" fill="none" xmlns="http://www.w3.org/2000/svg">
<path d="M20 0.771484C16.1433 0.771484 12.3731 1.91514 9.16639 4.05783C5.95963 6.20051 3.46027 9.246 1.98436 12.8092C0.508449 16.3723 0.122284 20.2931 0.874696 24.0757C1.62711 27.8584 3.4843 31.3329 6.21143 34.0601C8.93855 36.7872 12.4131 38.6444 16.1957 39.3968C19.9784 40.1492 23.8992 39.763 27.4623 38.2871C31.0255 36.8112 34.071 34.3119 36.2137 31.1051C38.3564 27.8983 39.5 24.1282 39.5 20.2715C39.4945 15.1014 37.4383 10.1447 33.7826 6.48893C30.1268 2.83316 25.1701 0.776944 20 0.771484ZM20 36.7715C16.7366 36.7715 13.5465 35.8038 10.8331 33.9907C8.11969 32.1777 6.00484 29.6007 4.756 26.5858C3.50715 23.5708 3.1804 20.2532 3.81705 17.0525C4.45371 13.8518 6.02518 10.9118 8.33275 8.60422C10.6403 6.29666 13.5803 4.72518 16.781 4.08853C19.9817 3.45187 23.2993 3.77863 26.3143 5.02747C29.3293 6.27632 31.9062 8.39116 33.7193 11.1046C35.5323 13.818 36.5 17.0081 36.5 20.2715C36.495 24.646 34.7551 28.84 31.6618 31.9333C28.5685 35.0265 24.3746 36.7665 20 36.7715ZM25.8256 28.0977C25.6396 28.4492 25.3216 28.7125 24.9415 28.8296C24.5614 28.9467 24.1504 28.908 23.7988 28.7221C22.631 28.0944 21.3258 27.7658 20 27.7658C18.6742 27.7658 17.369 28.0944 16.2013 28.7221C15.8506 28.8984 15.4449 28.9302 15.0711 28.8108C14.6972 28.6914 14.3851 28.4302 14.2016 28.0833C14.0181 27.7365 13.9778 27.3315 14.0895 26.9552C14.2011 26.579 14.4557 26.2615 14.7988 26.0709C16.4014 25.2232 18.187 24.78 20 24.78C21.813 24.78 23.5986 25.2232 25.2013 26.0709C25.5528 26.2569 25.816 26.5749 25.9331 26.955C26.0502 27.3351 26.0115 27.7461 25.8256 28.0977ZM31.8256 17.5977C31.7329 17.7716 31.6067 17.9255 31.4545 18.0507C31.3022 18.1758 31.1267 18.2697 30.9382 18.327C30.7496 18.3843 30.5515 18.4038 30.3554 18.3846C30.1593 18.3653 29.9688 18.3075 29.795 18.2146C26.7829 16.6013 23.4189 15.7571 20.0019 15.7571C16.5849 15.7571 13.2209 16.6013 10.2088 18.2146C9.85768 18.4021 9.4465 18.4424 9.06569 18.3267C8.68487 18.211 8.36561 17.9488 8.17813 17.5977C7.99066 17.2467 7.95033 16.8355 8.06602 16.4547C8.1817 16.0738 8.44393 15.7546 8.79501 15.5671C12.2424 13.7222 16.0919 12.7568 20.0019 12.7568C23.9119 12.7568 27.7614 13.7222 31.2088 15.5671C31.383 15.66 31.5372 15.7864 31.6624 15.9391C31.7877 16.0917 31.8816 16.2676 31.9387 16.4566C31.9958 16.6456 32.0151 16.844 31.9954 17.0405C31.9757 17.237 31.9173 17.4276 31.8238 17.6015L31.8256 17.5977ZM28.8256 22.8477C28.6386 23.1988 28.3198 23.4612 27.9394 23.5772C27.5589 23.6932 27.148 23.6534 26.7969 23.4665C24.7057 22.351 22.372 21.7675 20.0019 21.7675C17.6318 21.7675 15.2981 22.351 13.2069 23.4665C12.8566 23.6454 12.45 23.6796 12.0747 23.5616C11.6994 23.4436 11.3855 23.183 11.2006 22.8358C11.0157 22.4886 10.9746 22.0826 11.0861 21.7054C11.1977 21.3281 11.4529 21.0098 11.7969 20.819C14.3221 19.4724 17.14 18.768 20.0019 18.768C22.8638 18.768 25.6816 19.4724 28.2069 20.819C28.381 20.9117 28.5352 21.038 28.6604 21.1904C28.7857 21.3428 28.8797 21.5184 28.937 21.7072C28.9943 21.896 29.0138 22.0943 28.9944 22.2906C28.975 22.487 28.917 22.6776 28.8238 22.8515L28.8256 22.8477Z" fill="currentColor"/>
</svg>
