<svg viewBox="0 0 32 32" fill="none" xmlns="http://www.w3.org/2000/svg">
<title>threads</title><g class="nc-icon-wrapper"
			><path
				d="M22.7,14.977c-.121-.058-.243-.113-.367-.167-.216-3.982-2.392-6.262-6.046-6.285-.017,0-.033,0-.05,0-2.185,0-4.003,.933-5.122,2.63l2.009,1.378c.836-1.268,2.147-1.538,3.113-1.538,.011,0,.022,0,.033,0,1.203,.008,2.111,.357,2.698,1.04,.428,.497,.714,1.183,.855,2.049-1.067-.181-2.22-.237-3.453-.166-3.474,.2-5.707,2.226-5.557,5.041,.076,1.428,.788,2.656,2.003,3.459,1.028,.678,2.351,1.01,3.727,.935,1.817-.1,3.242-.793,4.236-2.06,.755-.963,1.233-2.21,1.444-3.781,.866,.523,1.507,1.21,1.862,2.037,.603,1.405,.638,3.714-1.246,5.596-1.651,1.649-3.635,2.363-6.634,2.385-3.326-.025-5.842-1.091-7.478-3.171-1.532-1.947-2.323-4.759-2.353-8.359,.03-3.599,.821-6.412,2.353-8.359,1.636-2.079,4.151-3.146,7.478-3.171,3.35,.025,5.91,1.097,7.608,3.186,.833,1.025,1.461,2.313,1.874,3.815l2.355-.628c-.502-1.849-1.291-3.443-2.365-4.764-2.177-2.679-5.361-4.051-9.464-4.08h-.016c-4.094,.028-7.243,1.406-9.358,4.095-1.882,2.393-2.853,5.722-2.886,9.895v.01s0,.01,0,.01c.033,4.173,1.004,7.503,2.886,9.895,2.115,2.689,5.264,4.067,9.358,4.095h.016c3.64-.025,6.206-.978,8.32-3.09,2.765-2.763,2.682-6.226,1.771-8.352-.654-1.525-1.901-2.763-3.605-3.581Zm-6.285,5.909c-1.522,.086-3.104-.598-3.182-2.061-.058-1.085,.772-2.296,3.276-2.441,.287-.017,.568-.025,.844-.025,.909,0,1.76,.088,2.533,.257-.288,3.602-1.98,4.187-3.471,4.269Z"
				stroke="none"
			></path></g
		>
</svg>
