<svg width="20" height="21" viewBox="0 0 20 21" fill="none" xmlns="http://www.w3.org/2000/svg">
<path d="M19 5.25C17.8069 5.24876 16.663 4.77425 15.8194 3.93061C14.9757 3.08697 14.5012 1.94309 14.5 0.75C14.5 0.551088 14.421 0.360322 14.2803 0.21967C14.1397 0.0790176 13.9489 0 13.75 0H10C9.80109 0 9.61032 0.0790176 9.46967 0.21967C9.32902 0.360322 9.25 0.551088 9.25 0.75V13.125C9.24985 13.4605 9.15967 13.7898 8.98887 14.0786C8.81807 14.3674 8.57291 14.6051 8.27896 14.7668C7.98501 14.9286 7.65304 15.0085 7.31768 14.9983C6.98232 14.988 6.65586 14.888 6.37234 14.7085C6.08883 14.5291 5.85865 14.2769 5.70582 13.9782C5.55299 13.6795 5.4831 13.3453 5.50345 13.0104C5.5238 12.6755 5.63364 12.3522 5.82151 12.0742C6.00939 11.7962 6.26841 11.5738 6.57156 11.43C6.6998 11.3691 6.80813 11.2731 6.88397 11.1532C6.95981 11.0332 7.00005 10.8941 7 10.7522V6.75C7.00005 6.64037 6.97606 6.53206 6.92972 6.4327C6.88339 6.33334 6.81584 6.24535 6.73182 6.17492C6.6478 6.10449 6.54937 6.05333 6.44345 6.02505C6.33752 5.99678 6.22669 5.99206 6.11875 6.01125C2.77281 6.6075 0.25 9.66562 0.25 13.125C0.25 15.0147 1.00067 16.8269 2.33686 18.1631C3.67306 19.4993 5.48533 20.25 7.375 20.25C9.26467 20.25 11.0769 19.4993 12.4131 18.1631C13.7493 16.8269 14.5 15.0147 14.5 13.125V9.40219C15.889 10.1269 17.4333 10.5036 19 10.5C19.1989 10.5 19.3897 10.421 19.5303 10.2803C19.671 10.1397 19.75 9.94891 19.75 9.75V6C19.75 5.80109 19.671 5.61032 19.5303 5.46967C19.3897 5.32902 19.1989 5.25 19 5.25ZM18.25 8.96625C16.7843 8.83637 15.3809 8.31329 14.1878 7.45219C14.0757 7.37156 13.9434 7.32347 13.8057 7.31321C13.668 7.30295 13.5301 7.33092 13.4072 7.39404C13.2844 7.45716 13.1814 7.55298 13.1095 7.67093C13.0376 7.78888 12.9997 7.92438 13 8.0625V13.125C13 14.6168 12.4074 16.0476 11.3525 17.1025C10.2976 18.1574 8.86684 18.75 7.375 18.75C5.88316 18.75 4.45242 18.1574 3.39752 17.1025C2.34263 16.0476 1.75 14.6168 1.75 13.125C1.75 10.6969 3.31 8.51906 5.5 7.725V10.3191C5.01517 10.643 4.62254 11.087 4.36037 11.6079C4.09821 12.1287 3.97545 12.7086 4.00407 13.2909C4.03268 13.8733 4.2117 14.4384 4.52366 14.931C4.83562 15.4236 5.26989 15.827 5.78414 16.1018C6.29839 16.3767 6.87508 16.5136 7.458 16.4993C8.04091 16.4849 8.61017 16.3198 9.11028 16.02C9.6104 15.7202 10.0243 15.296 10.3117 14.7886C10.599 14.2812 10.7501 13.7081 10.75 13.125V1.5H13.0469C13.2155 2.82101 13.818 4.04866 14.7597 4.99034C15.7013 5.93203 16.929 6.53446 18.25 6.70312V8.96625Z" fill="white"/>
</svg>
