<svg width="48" height="36" viewBox="0 0 48 36" fill="none" xmlns="http://www.w3.org/2000/svg">
<path d="M46.2418 5.66992L36.5349 0.371174C36.3702 0.280121 36.185 0.232379 35.9968 0.232424L29.9968 0.232424C29.6984 0.232424 29.4123 0.35095 29.2013 0.561929C28.9903 0.772907 28.8718 1.05906 28.8718 1.35742C28.8718 2.65035 28.3582 3.89033 27.444 4.80457C26.5297 5.71881 25.2897 6.23242 23.9968 6.23242C22.7039 6.23242 21.4639 5.71881 20.5497 4.80457C19.6354 3.89033 19.1218 2.65035 19.1218 1.35742C19.1218 1.05906 19.0033 0.772907 18.7923 0.561929C18.5813 0.35095 18.2952 0.232424 17.9968 0.232424L11.9968 0.232424C11.8079 0.232061 11.6221 0.279813 11.4568 0.371174L1.75181 5.66992C1.148 5.98858 0.694995 6.53343 0.491893 7.18525C0.288791 7.83708 0.352132 8.54281 0.668059 9.14805L4.28306 16.0499C4.51416 16.4855 4.86027 16.8494 5.28375 17.1019C5.70723 17.3545 6.19187 17.4861 6.68493 17.4824H10.8718L10.8718 32.8574C10.8718 33.5536 11.1484 34.2213 11.6407 34.7136C12.1329 35.2059 12.8006 35.4824 13.4968 35.4824H34.4968C35.193 35.4824 35.8607 35.2059 36.353 34.7136C36.8452 34.2213 37.1218 33.5536 37.1218 32.8574V17.4824H41.3106C41.8036 17.4861 42.2883 17.3545 42.7117 17.1019C43.1352 16.8494 43.4813 16.4855 43.7124 16.0499L47.3274 9.14805C47.6432 8.54258 47.7063 7.83667 47.5028 7.18482C47.2994 6.53296 46.8459 5.98826 46.2418 5.66992ZM6.67931 15.2324C6.597 15.2353 6.51547 15.2156 6.44347 15.1757C6.37146 15.1357 6.31169 15.0769 6.27056 15.0055L2.66118 8.10742C2.64084 8.06611 2.62907 8.0211 2.62658 7.97511C2.62409 7.92913 2.63093 7.88311 2.6467 7.83984C2.66247 7.79657 2.68683 7.75694 2.71832 7.72333C2.74981 7.68972 2.78778 7.66284 2.82993 7.6443L10.8718 3.25305V15.2324H6.67931ZM34.8718 32.8574C34.8718 32.9569 34.8323 33.0523 34.762 33.1226C34.6917 33.1929 34.5963 33.2324 34.4968 33.2324H13.4968C13.3974 33.2324 13.302 33.1929 13.2316 33.1226C13.1613 33.0523 13.1218 32.9569 13.1218 32.8574L13.1218 2.48242H16.9618C17.2351 4.15015 18.0922 5.66646 19.3802 6.76059C20.6681 7.85471 22.3031 8.4554 23.9931 8.4554C25.683 8.4554 27.318 7.85471 28.6059 6.76059C29.8939 5.66646 30.7511 4.15015 31.0243 2.48242H34.8718V32.8574ZM45.3343 8.10742L41.7193 15.0074C41.6782 15.0788 41.6184 15.1376 41.5464 15.1776C41.4744 15.2175 41.3929 15.2371 41.3106 15.2343H37.1218V3.25305L45.1656 7.64055C45.2079 7.65945 45.2459 7.68671 45.2774 7.72071C45.3088 7.7547 45.3331 7.79472 45.3487 7.83835C45.3643 7.88197 45.3709 7.92831 45.3681 7.97455C45.3653 8.0208 45.3532 8.066 45.3324 8.10742H45.3343Z" fill="currentColor"/>
</svg>
