<svg width="34" height="37" viewBox="0 0 34 37" fill="none" xmlns="http://www.w3.org/2000/svg">
<path d="M32.9482 34.502L21.057 15.8158L32.832 2.8558C32.9465 2.74954 33.0376 2.62061 33.0995 2.47721C33.1614 2.33381 33.1928 2.17908 33.1916 2.02289C33.1904 1.8667 33.1568 1.71246 33.0927 1.57C33.0287 1.42753 32.9357 1.29997 32.8196 1.19542C32.7036 1.09087 32.5671 1.01163 32.4187 0.962755C32.2703 0.913875 32.1134 0.896423 31.958 0.91151C31.8025 0.926598 31.6519 0.973893 31.5157 1.05039C31.3795 1.12688 31.2608 1.23089 31.167 1.3558L19.812 13.8471L11.9557 1.50205C11.8535 1.34131 11.7121 1.20917 11.5449 1.118C11.3776 1.02683 11.19 0.979621 10.9995 0.980801L1.99948 0.980801C1.79796 0.980894 1.60015 1.03512 1.42675 1.13781C1.25335 1.24049 1.11072 1.38788 1.01376 1.56455C0.916803 1.74122 0.869082 1.94069 0.875586 2.14211C0.88209 2.34353 0.942579 2.5395 1.05073 2.70955L12.942 21.3958L1.16698 34.3558C0.998271 34.5805 0.919763 34.8602 0.946905 35.1399C0.974047 35.4196 1.10487 35.679 1.31364 35.8671C1.52241 36.0552 1.79401 36.1583 2.075 36.1562C2.35599 36.1541 2.62603 36.047 2.83198 35.8558L14.187 23.3646L22.0432 35.7095C22.1455 35.8703 22.2868 36.0024 22.4541 36.0936C22.6213 36.1848 22.809 36.232 22.9995 36.2308H31.9995C32.201 36.2307 32.3988 36.1765 32.5722 36.0738C32.7456 35.9711 32.8882 35.8237 32.9852 35.6471C33.0822 35.4704 33.1299 35.2709 33.1234 35.0695C33.1169 34.8681 33.0564 34.6721 32.9482 34.502ZM23.6164 33.9808L4.04886 3.2308L10.3826 3.2308L29.9501 33.9808H23.6164Z" fill="currentColor"/>
</svg>
