<svg width="42" height="34" viewBox="0 0 42 34" fill="none" xmlns="http://www.w3.org/2000/svg">
<path d="M27.8325 16.0227L18.8325 10.0227C18.6065 9.87199 18.3439 9.78542 18.0726 9.77227C17.8013 9.75913 17.5315 9.8199 17.292 9.94811C17.0526 10.0763 16.8524 10.2671 16.7129 10.5002C16.5734 10.7333 16.4998 10.9999 16.5 11.2715V23.2715C16.4998 23.5431 16.5734 23.8097 16.7129 24.0428C16.8524 24.2758 17.0526 24.4667 17.292 24.5949C17.5315 24.7231 17.8013 24.7839 18.0726 24.7707C18.3439 24.7576 18.6065 24.671 18.8325 24.5202L27.8325 18.5202C28.0383 18.3833 28.207 18.1977 28.3237 17.9798C28.4404 17.762 28.5015 17.5186 28.5015 17.2715C28.5015 17.0243 28.4404 16.781 28.3237 16.5632C28.207 16.3453 28.0383 16.1597 27.8325 16.0227ZM19.5 20.4684V14.084L24.2962 17.2715L19.5 20.4684ZM40.9369 6.30649C40.7602 5.61527 40.4217 4.97596 39.9493 4.4413C39.4769 3.90665 38.8842 3.49197 38.22 3.23149C31.7925 0.748991 21.5625 0.771492 21 0.771492C20.4375 0.771492 10.2075 0.748991 3.78 3.23149C3.11581 3.49197 2.52306 3.90665 2.05068 4.4413C1.57829 4.97596 1.2398 5.61527 1.06313 6.30649C0.5775 8.17774 0 11.5977 0 17.2715C0 22.9452 0.5775 26.3652 1.06313 28.2365C1.23953 28.9281 1.57791 29.5677 2.05031 30.1027C2.52271 30.6377 3.11559 31.0527 3.78 31.3134C9.9375 33.689 19.575 33.7715 20.8762 33.7715H21.1238C22.425 33.7715 32.0681 33.689 38.22 31.3134C38.8844 31.0527 39.4773 30.6377 39.9497 30.1027C40.4221 29.5677 40.7605 28.9281 40.9369 28.2365C41.4225 26.3615 42 22.9452 42 17.2715C42 11.5977 41.4225 8.17774 40.9369 6.30649ZM38.0325 27.494C37.9754 27.724 37.8645 27.9373 37.709 28.1162C37.5536 28.2951 37.3579 28.4347 37.1381 28.5234C31.2038 30.8146 21.1106 30.7734 21.0131 30.7734H21C20.8988 30.7734 10.8131 30.8109 4.875 28.5234C4.65519 28.4347 4.45954 28.2951 4.30408 28.1162C4.14861 27.9373 4.03777 27.724 3.98062 27.494C3.525 25.7821 3 22.6284 3 17.2715C3 11.9146 3.525 8.76087 3.9675 7.05837C4.02358 6.82696 4.13395 6.61222 4.28947 6.43192C4.44499 6.25162 4.6412 6.11093 4.86188 6.02149C10.5844 3.81087 20.1731 3.77149 20.9587 3.77149H21.0094C21.1106 3.77149 31.2056 3.73774 37.1344 6.02149C37.3542 6.1102 37.5498 6.24974 37.7053 6.42867C37.8608 6.6076 37.9716 6.82083 38.0288 7.05087C38.475 8.76087 39 11.9146 39 17.2715C39 22.6284 38.475 25.7821 38.0325 27.4846V27.494Z" fill="currentColor"/>
</svg>
