<svg xmlns="http://www.w3.org/2000/svg" width="256" height="256" fill="none" viewBox="0 0 256 256"><rect width="256" height="256" x="1" y="1" fill="#000" stroke="#000" rx="10"/><path fill="#FABF46" d="M48.0616 123.194C55.2411 122.937 61.5758 121.329 67.0658 118.371C72.5559 115.413 76.7585 111.298 79.6738 106.028C82.5892 100.758 83.9319 94.751 83.7021 88.0077C83.4618 80.9579 81.6705 75.2679 78.3282 70.9376C74.9858 66.6073 71.0069 63.3739 66.3916 61.2374C61.7762 59.1009 56.0897 57.0283 49.3322 55.0195C42.7741 53.0037 38.0686 51.1517 35.2157 49.4636C32.3627 47.7755 30.8823 45.3478 30.7743 42.1805C30.6803 39.4219 31.7049 37.2626 33.8481 35.7026C35.9914 34.1426 38.9077 33.2967 42.5972 33.1646C51.5715 32.8435 59.3355 36.5553 65.8892 44.2998L78.2667 29.5867C72.9862 24.0471 67.4365 20.1282 61.6176 17.8302C55.7987 15.5322 49.5487 14.5027 42.8678 14.7417C32.3978 15.1163 23.9867 18.0514 17.6347 23.5469C11.2827 29.0424 8.26689 36.4901 8.58725 45.8898C8.79966 52.1223 10.4196 57.1791 13.4472 61.0603C16.4747 64.9415 20.0933 67.8553 24.3028 69.8018C28.5124 71.7482 33.793 73.6308 40.1447 75.4494C45.1861 76.9058 49.1238 78.197 51.9576 79.3232C54.7914 80.4493 57.0872 81.9016 58.845 83.68C60.6029 85.4585 61.5305 87.7781 61.628 90.6389C61.7534 94.317 60.5332 97.3273 57.9673 99.6696C55.4015 102.012 51.875 103.263 47.3878 103.424C42.3023 103.606 37.487 102.193 32.9417 99.184C28.3964 96.1755 24.3224 91.6157 20.7197 85.5045L4.99941 98.8028C9.97504 107.115 16.1773 113.338 23.6062 117.471C31.0352 121.604 39.1869 123.512 48.0616 123.194ZM90.0005 147.779C98.6757 147.468 105.558 146.557 110.648 145.045C115.738 143.533 119.891 140.878 123.106 137.081C126.321 133.283 129.153 127.76 131.602 120.512L158.49 39.452L135.008 40.2923L121.312 95.4083L120.265 95.4458L102.999 41.4376L79.6658 42.2725L110.242 117.747C108.968 121.373 106.746 124.291 103.577 126.501C100.408 128.712 95.6819 129.93 89.3999 130.154L90.0005 147.779ZM188.605 116.938L187.022 70.5009C186.865 65.9032 188.185 62.1477 190.981 59.2346C193.777 56.3214 197.468 54.7827 202.055 54.6186C206.144 54.4723 209.374 55.5076 211.745 57.7244C214.117 59.9412 215.381 63.3484 215.538 67.9461L217.173 115.916L239.011 115.134L237.24 63.1801C236.954 54.802 234.306 48.1197 229.294 43.1331C224.282 38.1465 217.787 35.7959 209.81 36.0813C204.525 36.2704 199.924 37.4836 196.007 39.7208C192.089 41.9581 188.992 44.8053 186.713 48.2626L185.966 48.2894L185.631 38.4809L163.943 39.2569L166.618 117.724L188.605 116.938ZM56.7534 237.615L56.1579 220.144L47.034 220.47C44.6408 220.556 42.8998 220.004 41.8111 218.816C40.7223 217.627 40.1291 215.603 40.0316 212.742L38.7206 174.274L54.5753 173.707L54.0791 159.148L38.2244 159.715L37.2947 132.435L15.4571 133.217L16.3868 160.496L5.76716 160.876L6.26336 175.436L16.883 175.056L18.3821 219.04C18.598 225.375 20.3356 230.223 23.595 233.584C26.8544 236.946 31.3759 238.523 37.1593 238.316L56.7534 237.615ZM88.4388 238.169C92.5271 238.023 96.7843 236.975 101.211 235.027C105.637 233.078 109.488 230.358 112.763 226.865L113.061 235.6L132.356 234.91L130.533 181.423C130.23 172.534 126.862 166.006 120.431 161.837C113.999 157.669 105.698 155.766 95.5266 156.13C87.7488 156.408 81.2387 157.997 75.9962 160.895C70.7537 163.794 66.3748 167.863 62.8595 173.104L76.6814 183.197C79.2553 179.627 82.0368 177.021 85.0259 175.379C88.015 173.738 91.7531 172.837 96.2403 172.676C101.326 172.495 105.044 173.205 107.395 174.809C109.746 176.413 111.037 179.154 111.269 183.033C109.096 183.725 107.465 184.192 106.375 184.436C97.6803 187.1 91.3594 189.116 87.4126 190.485C83.4658 191.854 79.8251 193.416 76.4905 195.172C67.085 200.419 62.5442 207.793 62.868 217.295C63.0978 224.038 65.5225 229.271 70.142 232.993C74.7615 236.715 80.8604 238.44 88.4388 238.169ZM93.8523 221.25C91.5589 221.332 89.6425 220.761 88.1033 219.538C86.564 218.314 85.7544 216.527 85.6743 214.177C85.5489 210.499 87.6933 207.507 92.1073 205.201C94.0668 204.108 96.8962 202.907 100.595 201.598C104.295 200.289 108.02 199.005 111.771 197.746L112.241 211.539C109.849 214.591 107.059 216.942 103.87 218.59C100.682 220.239 97.3423 221.125 93.8523 221.25ZM163.984 233.778L178.378 207.945L194.496 232.686L221.12 231.734L192.999 193.152L218.446 153.266L191.822 154.219L177.407 179.439L161.309 155.311L134.685 156.263L162.486 194.243L137.36 234.731L163.984 233.778ZM254.244 230.549L253.419 206.334L226.944 207.281L227.77 231.496L254.244 230.549Z"/></svg>