<?xml version="1.0" encoding="UTF-8"?><svg id="Layer_1" xmlns="http://www.w3.org/2000/svg" viewBox="0 0 1080 1080"><defs><style>.cls-1,.cls-2{fill:none;}.cls-3{fill:#fff;}.cls-4{fill:#f3370e;stroke-width:9px;}.cls-4,.cls-2{stroke:#000;stroke-miterlimit:10;}.cls-5{fill:#ffae00;}.cls-6{fill:#f5eeda;}.cls-2{stroke-width:17px;}</style></defs><circle class="cls-4" cx="524.91" cy="541.82" r="402.16"/><path class="cls-6" d="M524.93,84.7c-251.65,0-455.66,203.83-455.67,455.28,0,251.46,203.98,455.31,455.63,455.32,251.64,0,455.65-203.83,455.66-455.28,0-251.45-203.98-455.3-455.62-455.31ZM524.9,877.81c-186.72,0-338.07-151.26-338.06-337.83,0-186.57,151.37-337.8,338.09-337.79,186.71,0,338.06,151.25,338.05,337.82s-151.37,337.81-338.08,337.8Z"/><path class="cls-2" d="M524.93,84.7c-251.65,0-455.66,203.83-455.67,455.28,0,251.46,203.98,455.31,455.63,455.32,251.64,0,455.65-203.83,455.66-455.28,0-251.45-203.98-455.3-455.62-455.31Z"/><path class="cls-2" d="M524.9,877.81c-186.72,0-338.07-151.26-338.06-337.83,0-186.57,151.37-337.8,338.09-337.79,186.71,0,338.06,151.25,338.05,337.82,0,186.57-151.37,337.81-338.08,337.8Z"/><g id="Y2K_Shapes"><path d="M850.09,456.82c-.38-1.42-.71-2.89-1.13-4.32-7.92-30.05-20.03-58.75-36-85.44-.92-1.55-1.89-3.14-2.85-4.69-13.54-21.79-29.63-42.16-48.23-60.72-14.46-14.46-29.96-27.41-46.43-38.8-2.68-1.89-5.41-3.73-8.17-5.49h0c-52.93-34.53-114.65-53.3-179.27-53.89h-6.29c-64.62.59-126.34,19.36-179.31,53.85h0l-.67.46c-2.51,1.63-4.99,3.31-7.46,5.03-16.43,11.4-31.97,24.35-46.43,38.8-18.56,18.56-34.7,38.93-48.23,60.72l-.8,1.34-1.8,2.98-.25.38c-15.97,26.69-28.03,55.4-36,85.44l-1.13,4.32c-6.62,26.48-10.02,53.89-10.02,81.88s3.39,55.44,10.02,81.88c.38,1.42.75,2.89,1.13,4.32,7.92,30.05,20.03,58.75,36,85.4.92,1.55,1.89,3.14,2.85,4.69,13.54,21.79,29.63,42.16,48.23,60.72,14.46,14.46,30,27.45,46.47,38.85,2.68,1.89,5.41,3.69,8.13,5.49,52.97,34.49,114.69,53.26,179.31,53.85h6.29c64.62-.59,126.3-19.36,179.31-53.85h0c2.72-1.8,5.45-3.6,8.13-5.49,16.43-11.4,32.02-24.39,46.47-38.85,18.56-18.56,34.7-38.93,48.23-60.72.96-1.55,1.93-3.1,2.85-4.69h0c15.97-26.69,28.03-55.4,36-85.4.38-1.42.75-2.89,1.13-4.32,6.62-26.48,10.02-53.93,10.02-81.88s-3.39-55.44-10.02-81.88l-.08.04ZM855.87,536.61h-79.07c-.13-29.33-3.06-58.04-8.67-85.65h0c26.02,1.55,51.88,3.39,77.4,5.49,6.58,25.65,10.18,52.51,10.35,80.16ZM686.58,442.7c-4.82-32.39-12.11-63.11-21.66-91.27h0c22.5,1.51,44.88,3.44,67.17,5.7h0c13.62,27.62,23.97,57.66,30.8,89.3-25.23-1.47-50.7-2.72-76.31-3.73h0ZM526.96,346.7h0c21.33,0,42.7.38,64.03,1.05h0c4.99,28.41,8.8,59.55,11.36,92.48-25.1-.46-50.24-.71-75.39-.71h0v-92.82ZM526.96,342.34h0v-92.69h0c12.4,0,24.81.21,37.21.54h0c6.33,14.46,12.24,32.39,17.52,53.43,3.1,12.45,5.95,25.73,8.51,39.73-20.99-.67-42.07-1.01-63.23-1.01ZM562.16,245.75c-11.73-.34-23.47-.5-35.2-.5h0v-37.42c12.19,1.38,24.3,14.62,35.2,37.92h0ZM522.77,245.24c-11.73,0-23.47.17-35.2.5h0c10.9-23.3,23.01-36.54,35.2-37.92v37.42ZM485.52,250.23h0c12.4-.38,24.81-.54,37.21-.54v92.69c-21.12,0-42.24.38-63.23,1.01,2.56-13.95,5.36-27.24,8.51-39.73,5.24-21.04,11.15-38.97,17.52-53.43ZM458.74,347.74h0c21.29-.67,42.66-1.05,64.03-1.05v92.82c-25.14,0-50.29.25-75.39.71,2.56-32.94,6.37-64.11,11.36-92.48ZM447.05,444.5c25.18-.46,50.45-.71,75.68-.71v92.86h-79.07c.04-31.64,1.22-62.56,3.35-92.11l.04-.04ZM522.77,540.8v92.82c-25.27,0-50.5-.25-75.68-.71-2.18-29.54-3.31-60.47-3.35-92.11h79.07-.04ZM522.77,637.89v92.82c-21.33,0-42.7-.38-64.03-1.05h0c-4.99-28.41-8.8-59.55-11.36-92.53,25.1.46,50.24.71,75.39.71v.04ZM522.77,735.07v92.69c-12.4,0-24.81-.21-37.21-.54h0c-6.33-14.5-12.24-32.43-17.52-53.43-3.1-12.45-5.95-25.73-8.51-39.73,20.99.67,42.11,1.01,63.23,1.01ZM487.57,831.7c11.73.34,23.47.5,35.2.5v37.42c-12.19-1.38-24.3-14.62-35.2-37.92h0ZM526.96,832.2h0c11.73,0,23.47-.17,35.2-.5-10.9,23.3-23.01,36.54-35.2,37.92v-37.42h0ZM564.21,827.22c-12.4.38-24.81.54-37.21.54h0v-92.69h0c21.12,0,42.24-.38,63.23-1.01-2.56,13.95-5.36,27.28-8.51,39.73-5.24,21.04-11.15,38.97-17.52,53.43ZM590.99,729.66h0c-21.29.67-42.66,1.05-64.03,1.05h0v-92.82h0c25.14,0,50.29-.25,75.39-.71-2.56,32.94-6.37,64.11-11.36,92.53v-.04ZM602.68,632.95c-25.18.46-50.45.71-75.68.71h0v-92.82h79.07c-.04,31.64-1.22,62.56-3.35,92.11h-.04ZM526.96,536.61v-92.86h0c25.27,0,50.5.25,75.68.71,2.18,29.54,3.31,60.47,3.35,92.11h-79.07l.04.04ZM595.31,347.91c21.71.71,43.41,1.8,64.99,3.23,9.51,27.74,16.97,58.5,21.96,91.44-25.1-.96-50.33-1.68-75.64-2.18-2.51-32.9-6.33-64.03-11.27-92.44l-.04-.04ZM594.51,343.51h0c-2.6-14.37-5.49-28.08-8.72-40.86-5.11-20.45-10.81-37.92-16.93-52.3h0c12.74.38,25.48.96,38.18,1.72h0c20.41,23.8,38.05,56.15,51.67,94.58-21.33-1.38-42.74-2.43-64.24-3.14h.04ZM566.9,245.87h0c-8-17.56-16.72-29.92-25.86-36.58,22.21,4.4,43.16,17.68,61.89,38.13-11.98-.67-24.01-1.22-36.04-1.55ZM482.84,245.87h0c-12.03.38-24.05.88-36.04,1.55,18.77-20.45,39.68-33.78,61.89-38.13-9.14,6.66-17.85,19.02-25.86,36.58ZM442.69,252.07c12.7-.75,25.44-1.34,38.18-1.72h0c-6.12,14.37-11.82,31.85-16.93,52.3-3.18,12.82-6.12,26.48-8.72,40.86h0c-21.5.71-42.91,1.76-64.24,3.14,13.66-38.47,31.3-70.82,51.67-94.58h.04ZM389.43,351.1c21.58-1.42,43.25-2.47,64.99-3.23h0c-4.99,28.41-8.76,59.55-11.27,92.44-25.31.5-50.54,1.22-75.64,2.18,4.99-32.94,12.45-63.7,21.96-91.44l-.04.04ZM366.88,446.76c25.23-.96,50.54-1.72,75.97-2.22-2.18,29.54-3.31,60.43-3.35,92.02h-79.07c.08-31.14,2.35-61.26,6.45-89.84v.04ZM439.46,540.8c.04,31.6,1.17,62.48,3.35,92.02-25.39-.5-50.75-1.22-75.97-2.18-4.11-28.54-6.37-58.71-6.45-89.84,0,0,79.07,0,79.07,0ZM443.15,637.05c2.51,32.9,6.33,64.03,11.27,92.44h0c-21.71-.71-43.41-1.8-64.99-3.23-9.51-27.74-16.97-58.5-21.96-91.44,25.1.96,50.33,1.68,75.64,2.18l.04.04ZM455.22,733.9h0c2.6,14.37,5.49,28.08,8.72,40.9,5.11,20.45,10.81,37.92,16.93,52.3h0c-12.74-.38-25.48-.96-38.18-1.72h0c-20.41-23.8-38.05-56.15-51.71-94.62,21.33,1.38,42.74,2.43,64.24,3.14h0ZM482.84,831.58h0c8,17.56,16.72,29.92,25.86,36.58-22.21-4.4-43.16-17.68-61.89-38.13,11.98.67,24.01,1.22,36.04,1.55h0ZM566.9,831.58h0c12.03-.38,24.05-.88,36.04-1.55-18.73,20.45-39.68,33.73-61.89,38.13,9.14-6.66,17.85-19.02,25.86-36.58h0ZM607.04,825.33c-12.7.75-25.44,1.34-38.18,1.72h0c6.12-14.37,11.82-31.85,16.93-52.3,3.18-12.82,6.12-26.48,8.72-40.9h0c21.5-.71,42.91-1.76,64.24-3.14-13.66,38.47-31.3,70.82-51.71,94.62ZM660.3,726.31c-21.58,1.42-43.25,2.47-64.99,3.23,4.99-28.41,8.76-59.55,11.27-92.44,25.31-.5,50.54-1.22,75.64-2.18-4.99,32.94-12.45,63.7-21.96,91.44l.04-.04ZM682.85,630.64c-25.23.96-50.54,1.68-75.97,2.18,2.18-29.54,3.31-60.43,3.35-92.02h79.07c-.08,31.14-2.35,61.26-6.45,89.84ZM610.27,536.61c-.04-31.6-1.17-62.48-3.35-92.02,25.39.5,50.75,1.22,75.97,2.22,4.11,28.54,6.37,58.71,6.45,89.84h-79.07v-.04ZM663.36,346.99h0c-5.57-15.84-11.86-30.8-18.82-44.75-9.64-19.28-20.24-35.91-31.64-49.78h0c13.54.84,27.03,1.93,40.48,3.18,16.68,13.58,32.27,29.88,46.43,48.78,11.19,14.96,21.2,31.05,29.92,48.15-22-2.22-44.13-4.11-66.42-5.57h.04ZM608.97,247.76h0c-14.83-16.97-30.88-29.29-47.73-36.54,30.38,5.95,59.38,19.32,85.86,39.43-12.66-1.13-25.39-2.1-38.13-2.85v-.04ZM488.49,211.22c-16.8,7.29-32.85,19.57-47.73,36.54h0c-12.74.75-25.48,1.72-38.13,2.85,26.44-20.11,55.48-33.48,85.86-39.43v.04ZM396.34,255.64c13.45-1.26,26.94-2.35,40.48-3.18h0c-11.36,13.87-22,30.51-31.64,49.78-7,13.95-13.28,28.96-18.82,44.75h0c-22.25,1.51-44.38,3.35-66.42,5.57,8.72-17.1,18.73-33.23,29.92-48.15,14.16-18.9,29.75-35.2,46.43-48.78h.04ZM317.69,357.13h0c22.25-2.26,44.67-4.15,67.17-5.7h0c-9.55,28.16-16.85,58.88-21.66,91.27h0c-25.6,1.01-51.04,2.22-76.31,3.73,6.83-31.64,17.18-61.68,30.8-89.3ZM285.92,450.7c25.35-1.51,50.91-2.77,76.6-3.77h0c-4.11,28.83-6.24,58.92-6.33,89.68h-79.07c.13-29.42,3.1-58.25,8.8-85.9h0ZM356.2,540.8c.08,30.76,2.26,60.85,6.33,89.68h0c-25.69-1.01-51.25-2.26-76.6-3.77h0c-5.66-27.66-8.67-56.49-8.8-85.9h79.07ZM363.16,634.71h0c4.82,32.39,12.11,63.11,21.66,91.27h0c-22.5-1.51-44.92-3.44-67.17-5.7h0c-13.62-27.62-23.97-57.66-30.84-89.3,25.27,1.47,50.7,2.72,76.31,3.73h.04ZM386.37,730.42h0c5.57,15.84,11.86,30.8,18.82,44.8,9.64,19.28,20.28,35.91,31.64,49.78h0c-13.49-.84-27.03-1.93-40.48-3.18-16.68-13.58-32.27-29.88-46.47-48.82-11.19-14.96-21.2-31.05-29.92-48.15,22,2.22,44.17,4.11,66.42,5.57h0ZM440.76,829.65h0c14.83,16.97,30.88,29.29,47.69,36.54-30.38-5.95-59.38-19.32-85.82-39.43,12.66,1.13,25.39,2.1,38.13,2.85v.04ZM608.93,829.65h0c12.74-.75,25.44-1.72,38.13-2.85-26.44,20.11-55.48,33.48-85.82,39.43,16.8-7.29,32.85-19.57,47.69-36.54v-.04ZM653.39,821.81c-13.45,1.26-26.94,2.3-40.48,3.18h0c11.36-13.87,22-30.51,31.64-49.78,7-13.95,13.28-28.96,18.82-44.8h0c22.25-1.51,44.42-3.35,66.42-5.57-8.72,17.1-18.73,33.23-29.92,48.15-14.16,18.9-29.79,35.24-46.47,48.82h0ZM732.04,720.32c-22.25,2.26-44.67,4.15-67.17,5.7h0c9.55-28.16,16.85-58.88,21.66-91.27h0c25.6-1.01,51.04-2.22,76.31-3.73-6.83,31.64-17.18,61.68-30.84,89.3h.04ZM763.81,626.7c-25.35,1.51-50.91,2.77-76.6,3.77h0c4.11-28.83,6.24-58.92,6.33-89.68h79.07c-.13,29.42-3.1,58.25-8.8,85.9h0ZM693.53,536.61c-.08-30.76-2.26-60.85-6.33-89.68h0c25.69,1.01,51.25,2.26,76.6,3.77,5.66,27.66,8.67,56.49,8.8,85.9h-79.07ZM844.39,452.13c-25.44-2.05-51.17-3.9-77.15-5.45h0c-6.7-31.47-16.89-61.43-30.26-89.05h0c23.59,2.47,47.06,5.32,70.27,8.63,16.22,26.4,28.79,55.27,37.09,85.86h.04ZM804.37,361.57c-23.01-3.23-46.22-6.08-69.6-8.51h0c-9.14-18.19-19.7-35.37-31.55-51.21-13.03-17.39-27.24-32.6-42.41-45.55h0c14.96,1.47,29.88,3.18,44.75,5.15,39.6,25.9,73.38,60.09,98.77,100.07l.04.04ZM586.05,213.35c39.89,7.46,77.31,22.17,110.84,42.62-13.95-1.76-27.95-3.31-42.03-4.65h0c-21.41-17.18-44.54-29.96-68.81-37.97h0ZM463.69,213.35c-24.26,8-47.39,20.78-68.77,37.97h0c-14.04,1.3-28.08,2.85-42.03,4.65,33.52-20.45,70.9-35.16,110.84-42.62h-.04ZM344.13,261.5c14.88-1.97,29.79-3.69,44.75-5.15-15.13,12.95-29.38,28.2-42.41,45.55-11.9,15.84-22.42,32.98-31.55,51.21-23.38,2.43-46.6,5.24-69.6,8.51,25.39-39.98,59.17-74.13,98.77-100.07l.04-.04ZM242.43,366.22h0c23.26-3.31,46.68-6.16,70.27-8.63h0c-13.37,27.62-23.55,57.58-30.26,89.05h0c-25.94,1.55-51.71,3.39-77.15,5.45,8.3-30.59,20.91-59.46,37.09-85.86h.04ZM204.17,456.44c25.52-2.1,51.33-3.9,77.4-5.49h0c-5.57,27.62-8.55,56.32-8.67,85.65h-79.03c.17-27.66,3.77-54.52,10.35-80.16h-.04ZM193.86,540.8h79.07c.13,29.33,3.06,58.04,8.67,85.65h0c-26.02-1.55-51.88-3.39-77.4-5.49-6.58-25.65-10.18-52.51-10.35-80.16ZM205.34,625.32c25.44,2.05,51.17,3.9,77.15,5.45h0c6.7,31.47,16.89,61.43,30.26,89.05h0c-23.59-2.47-47.06-5.32-70.32-8.63-16.18-26.4-28.79-55.27-37.09-85.86ZM245.32,715.84c23.01,3.23,46.22,6.08,69.6,8.51,9.14,18.23,19.7,35.37,31.55,51.21,13.03,17.39,27.24,32.6,42.41,45.55h0c-14.96-1.47-29.88-3.18-44.75-5.15-39.64-25.9-73.42-60.09-98.81-100.07v-.04ZM352.85,821.44c13.95,1.76,27.95,3.31,42.03,4.65h0c21.41,17.18,44.54,29.96,68.81,38.01h0c-39.94-7.46-77.36-22.17-110.88-42.62l.04-.04ZM586.05,864.05h0c24.26-8,47.44-20.78,68.81-38.01h0c14.08-1.3,28.08-2.85,42.03-4.65-33.52,20.45-70.9,35.16-110.84,42.62v.04ZM705.56,815.95h0c-14.83,1.97-29.79,3.69-44.71,5.15h0c15.17-12.95,29.38-28.2,42.41-45.55,11.9-15.84,22.42-32.98,31.55-51.21,23.38-2.43,46.6-5.24,69.6-8.51-25.44,39.98-59.17,74.17-98.81,100.07l-.04.04ZM807.3,711.18c-23.26,3.31-46.68,6.16-70.32,8.63h0c13.37-27.62,23.55-57.58,30.26-89.05h0c25.94-1.55,51.71-3.39,77.15-5.45-8.3,30.59-20.91,59.46-37.09,85.86ZM845.56,620.96c-25.52,2.1-51.38,3.9-77.4,5.49h0c5.57-27.62,8.55-56.32,8.67-85.65h79.07c-.17,27.66-3.77,54.52-10.35,80.16Z"/></g><circle class="cls-1" cx="524.91" cy="531.59" r="358.57"/><path d="M218.01,318.64l12.27,7.68-21.34,34.08-11.02-6.9-7.88-34.27-3.07-1.92-2.49.58-3.13,5,.57,2.49,4.77,2.99-8.14,13.01-9.37-5.87-2.83-12.28,11.88-18.97,12.29-2.83,12.5,7.82,5.61,24.38,9.39-15Z"/><path d="M195.4,279.84l15.62-19,12.55-1.22,29.35,24.14,1.22,12.55-15.62,19-12.55,1.22-29.35-24.14-1.22-12.55ZM215.51,275.12l-5.19,6.31.25,2.55,20.96,17.24,2.5-.29,5.19-6.31-.24-2.45-20.96-17.24-2.5.2Z"/><path d="M282.53,247.41l9.92,10.54-29.27,27.57-8.91-9.46,1.05-35.15-2.48-2.63-2.56-.08-4.29,4.04-.08,2.56,3.86,4.1-11.17,10.52-7.58-8.05.38-12.6,16.3-15.35,12.6.38,10.11,10.73-.75,25.01,12.88-12.13Z"/><path d="M303.48,207.78l12.45,1.99,9.2,12.7-1.99,12.45-19.92,14.43-12.45-1.99-22.29-30.78,1.99-12.45,19.92-14.43,12.45,1.99,5.35,7.38-12.43,9-2.16-2.99-2.47-.44-6.62,4.8-.41,2.53,4.68,6.46,14.71-10.65ZM300.02,233.96l2.49.35,6.62-4.8.39-2.43-2.83-3.91-2.47-.44-6.62,4.8-.4,2.53,2.83,3.91Z"/><path d="M362.55,173.65l-2.99-6.44-2.34-.91-7.42,3.44-.88,2.4,11.43,24.62,2.38.82,7.42-3.44.85-2.32-2.82-6.08,13.92-6.47,5.11,11-4.33,11.84-22.31,10.36-11.84-4.33-16.01-34.46,4.33-11.84,22.31-10.36,11.84,4.33,5.28,11.37-13.92,6.46Z"/><path d="M417.49,166.54l-10.46,3.17,2.7,8.92,3.21-.97,3.65,12.06-21.1,6.39-3.65-12.06,3.21-.97-8.9-29.38-3.21.97-3.63-11.99,21.1-6.39,3.63,11.99-3.21.97,2.22,7.31,10.46-3.17-2.22-7.31-3.21.97-3.64-11.99,21.1-6.39,3.63,11.99-3.21.97,8.9,29.38,3.21-.97,3.65,12.06-21.1,6.39-3.65-12.06,3.21-.97-2.7-8.92Z"/><path d="M482.59,131.76l-2.79.39,16.38,28.71,3.32-.46,1.74,12.48-21.24,2.96-1.74-12.48,1.79-.25-1.15-2.41-14.67,2.04-.51,2.64,1.79-.25,1.74,12.48-21.18,2.95-1.74-12.48,3.32-.46,7.91-32.09-2.39.33-1.73-12.41,29.41-4.1,1.73,12.41ZM473.59,150.68l-4.74-8.27-2.3,9.25,7.04-.98Z"/><path d="M524.3,145.72l-.51,14.47,3.35.12-.44,12.59-22.04-.77.44-12.59,3.35.12,1.07-30.68-3.35-.12.44-12.53,17.95.63,12.17,22.02,13.68-21.12,17.95.63-.44,12.52-3.35-.12-1.07,30.68,3.35.12-.44,12.59-22.04-.77.44-12.59,3.35.12.51-14.47-12.9,19.8-11.48-20.65Z"/><path d="M593.29,158.02l-1.65,8.42,3.29.65-2.43,12.36-21.63-4.25,2.43-12.36,3.29.65,5.92-30.12-3.29-.65,2.42-12.3,33.93,6.67,7.03,10.46-3.24,16.51-10.46,7.03-15.58-3.06ZM603.21,147.19l2.12-1.43,1.15-5.85-1.43-2.12-7.5-1.47-1.85,9.4,7.5,1.47Z"/><path d="M618.75,185.25l3.73-12.04,3.2.99,9.08-29.32-3.2-.99,3.71-11.97,21.06,6.52-3.71,11.97-3.2-.99-9.08,29.32,3.2.99-3.73,12.04-21.06-6.52Z"/><path d="M675.06,145.03l22.6,9.7,4.68,11.71-14.99,34.92-11.71,4.67-22.6-9.7-4.68-11.71,14.99-34.92,11.71-4.68ZM685.21,163.03l-7.51-3.22-2.38.95-10.7,24.94.98,2.32,7.51,3.22,2.29-.91,10.71-24.94-.89-2.35Z"/><path d="M717.61,199.78l-6.5,10.56,2.85,1.76-6.6,10.73-18.78-11.56,6.6-10.73,2.85,1.76,16.09-26.14-2.85-1.76,6.57-10.67,15.47,9.52-.31,29.79,6.81-11.07-2.85-1.76,6.57-10.67,18.78,11.56-6.57,10.67-2.85-1.76-16.09,26.14,2.85,1.76-6.6,10.73-15.75-9.7.32-29.16Z"/><path d="M757.43,230.63l-1.12-12.56,10.57-12.65,12.56-1.12,18.87,15.77,1.12,12.56-7.05,8.43-11.78-9.84,3.57-4.27-.18-2.5-6.27-5.25-2.55.23-3.61,4.32.23,2.55,12.55,10.49,1.12,12.56-10.4,12.44-12.55,1.12-18.87-15.78-1.12-12.55,6.88-8.23,11.77,9.84-3.39,4.06.27,2.5,6.27,5.24,2.45-.22,3.44-4.11-.18-2.5-12.6-10.53Z"/><path d="M809.25,278.8l-7.34-8.09-6.9,6.26,2.25,2.48-9.33,8.47-14.82-16.33,9.33-8.47,2.25,2.48,22.73-20.62-2.25-2.48,9.28-8.42,14.82,16.33-9.28,8.42-2.25-2.48-5.66,5.13,7.34,8.09,5.66-5.13-2.25-2.48,9.28-8.42,14.82,16.33-9.28,8.42-2.25-2.48-22.73,20.62,2.25,2.48-9.33,8.47-14.82-16.33,9.33-8.47,2.25,2.48,6.9-6.26Z"/><path d="M808.35,311.59l10.22-7.37,1.96,2.72,24.9-17.95-1.96-2.72,10.17-7.33,12.9,17.88-10.17,7.33-1.96-2.72-24.9,17.95,1.96,2.72-10.22,7.37-12.9-17.88Z"/><path d="M852.34,339.09l-7.45,4.25,1.66,2.91-10.95,6.24-10.92-19.16,10.95-6.24,1.66,2.91,26.67-15.2-1.66-2.91,10.89-6.21,17.12,30.04-3.33,12.16-14.61,8.33-12.16-3.33-7.87-13.8ZM867.01,339.52l2.47.68,5.18-2.95.67-2.47-3.78-6.64-8.33,4.75,3.78,6.64Z"/><circle class="cls-1" cx="524.91" cy="547.67" r="356.29"/><path d="M299.96,874.17l-2.72-12.31,8.87-13.9,12.31-2.72,20.73,13.23,2.72,12.31-5.91,9.26-12.94-8.26,2.99-4.69-.5-2.46-6.89-4.4-2.5.55-3.03,4.75.55,2.5,13.79,8.8,2.72,12.31-8.72,13.67-12.31,2.72-20.73-13.23-2.72-12.31,5.77-9.04,12.94,8.26-2.85,4.46.59,2.44,6.89,4.4,2.41-.53,2.88-4.52-.5-2.46-13.84-8.83Z"/><path d="M368.84,921.66l3.07,1.34-5.04,11.55-20.21-8.83,5.04-11.55,3.07,1.34,5.04-11.55-9.34-23.83-4.79-2.09,5.02-11.48,24.32,10.63-5.02,11.48-2.03-.88,3.46,8.82,8.82-3.46-2.09-.91,5.02-11.48,23.58,10.3-5.02,11.48-4.05-1.77-23.83,9.34-5.04,11.55Z"/><path d="M421.41,926.71l-2.97,12.04,3.25.8-3.02,12.23-21.41-5.28,3.02-12.23,3.25.8,7.35-29.8-3.25-.8,3-12.17,17.63,4.35,8.78,28.47,3.11-12.62-3.25-.8,3-12.17,21.41,5.28-3,12.17-3.25-.8-7.35,29.8,3.25.8-3.02,12.23-17.96-4.43-8.59-27.87Z"/><path d="M499.44,924.71l.31-3.34-3.34-.31-2.81,30.57,3.34.31-1.15,12.55-21.96-2.02,1.15-12.55,3.34.31,2.81-30.57-3.34-.31-.31,3.34-12.55-1.15,1.45-15.82,46.98,4.31-1.45,15.82-12.48-1.15Z"/><path d="M552.53,921.32l-2.81.1,13.39,30.22,3.35-.12.47,12.59-21.43.79-.47-12.59,1.81-.07-.9-2.52-14.8.55-.78,2.58,1.81-.07.47,12.59-21.36.79-.47-12.59,3.35-.12,11.12-31.13-2.41.09-.46-12.52,29.67-1.1.46,12.52ZM541.66,939.23l-3.88-8.71-3.22,8.97,7.1-.26Z"/><path d="M601.72,945.57l2.16-.46,2.62,12.32-25.96,5.51-2.62-12.33,5.11-1.08,11.89-18.21-18.26-11.81-5.11,1.08-2.6-12.26,25.96-5.51,2.6,12.26-2.16.46,7.95,5.17,5.17-7.95-2.23.47-2.6-12.26,25.17-5.34,2.6,12.26-4.33.92-11.83,18.2,18.2,11.83,4.33-.92,2.62,12.33-25.17,5.34-2.62-12.33,2.23-.47-7.95-5.17-5.17,7.95Z"/><path d="M650.71,946.19l-4.6-13.51,13.52-4.6,4.59,13.51-13.51,4.6Z"/><path d="M682.87,910.98l3.68,8.26,5.88-2.62,5.13,11.51-22.96,10.23-5.13-11.51,3.06-1.36-12.49-28.04-3.06,1.36-5.1-11.45,37.53-16.72,6,13.47-11.51,5.13-.9-2.02-8.94,3.98,3.71,8.33,2.08-.93-.9-2.02,11.45-5.1,6.9,15.49-11.45,5.1-.9-2.02-2.08.93Z"/><path d="M724.82,883.64l7.86,12.16,2.81-1.82,6.84,10.58-18.52,11.97-6.84-10.58,2.81-1.82-16.67-25.78-2.81,1.82-6.8-10.52,15.08-9.75,22.58,11.1-.86-25.15,15.08-9.75,6.8,10.52-2.81,1.82,16.67,25.78,2.81-1.82,6.84,10.58-18.52,11.97-6.84-10.58,2.81-1.82-7.86-12.16.75,23.62-21.23-10.37Z"/><path d="M939.97,553.09l-1.49-5c-.9-3.03-3.21-7.45-9.01-11.26-2.7-1.78-5.65-3.84-7.03-5.59-.27-.34-1.2-1.69-2.1-4.78-10.97-37.89-21.95-75.79-32.92-113.68,1.03-.77,1.97-1.64,2.79-2.6,3.34-3.91,4.43-8.91,3-13.72l-1.16-3.88c-.98-3.29-3.03-6.26-6.1-8.81-2.56-2.14-5.6-3.75-9.02-4.78l-.4-.12-.41-.1c-17.18-4.41-34.52-9.23-53-14.73l-.39-.12-.4-.1c-2-.51-4.04-.77-6.06-.77-3.81,0-7.51.91-10.67,2.64-.2.11-.39.22-.58.33-1.13-1.9-2.68-3.65-4.6-5.18-2.78-2.23-6.25-3.86-10.01-4.72l-.44-.1-.44-.08c-16.56-3.02-33.87-6.56-51.44-10.51l-.43-.1-.43-.08c-1.47-.27-2.95-.4-4.42-.4-1.26,0-2.51.1-3.72.29-2.4-1.31-5-2.2-7.75-2.66-3.14-.53-4.77-.79-7.93-1.3-1.43-.23-2.85-.35-4.22-.35-1.44,0-2.84.12-4.21.37-7.1-3.55-15.2-5.98-23.45-6.99-4.22-.52-8.42-.78-12.5-.78-7.4,0-14.56.86-21.31,2.55-10.48,2.64-20,7.49-26.79,13.67-2.93,2.67-5.6,5.54-8,8.6-4.44-8.62-11.14-15.52-20.07-20.64-18.11-10.39-39.52-11.59-54.05-11.59-.98,0-1.96,0-2.94.02-2.74.03-5.48.06-8.23.09-5.71.06-11.62.12-17.44.22-2.59.04-5.18.1-7.77.15-5.75.12-11.69.24-17.43.24h-1.64s-.42.01-.42.01c-4.69.17-9.08,1.62-12.67,4.17-4.45,3.16-7.11,7.74-7.31,12.57l-.14,3.54c-.18,4.65,1.88,9.03,5.53,12.28l-32.55-21.52c-1.62-1.49-3.35-2.52-4.88-3.23-3.4-2.03-7.38-3.2-11.58-3.39-1.1-.05-2.36-.08-3.75-.08h-.47c-1.95,0-4.05.12-6.26.34h-.14c-.4.05-1.38.15-2.96.31-1.92.2-3.31.34-4.17.43-1.44.15-3.13.41-5.17.8-3.16.59-6.03,1.49-8.55,2.67-2.36,1.11-5.1,2.56-7.49,4.9-1.81,1.77-2.85,3.51-3.95,5.34l-.36.61c-1.12,1.87-2.1,3.69-2.89,5.43-.65,1.43-1.38,3.12-2.17,5.03-.49,1.19-.75,1.79-.86,2.03l-.06.1-.19.41c-3.62,7.61-7.24,15.21-10.86,22.81-3.03,6.37-6.09,12.78-9.16,19.23l-6.27-40.4c.13-2.07-.2-4.1-.93-6.01,0,0-.02-.1-.03-.08-1.29-3.3-3.8-6.22-7.3-8.3-3.36-2-7.35-3.06-11.56-3.06-1.49,0-3.01.14-4.54.4-1.45.25-3.51.6-6.18,1.05l-2.52.43c-4.67.79-7.69,1.48-9.08,1.81-5.15,1.26-11.97,2.46-16.48,3.25-3.29.58-6.78,1.3-10.2,3.22-3.64,2.05-6.42,4.99-8.48,9.01-1.72,3.33-3.63,6.71-5.66,10.29-1.06,1.88-2.16,3.82-3.23,5.75-1.88,3.4-3.76,6.86-5.58,10.21-1.57,2.88-3.14,5.76-4.71,8.62-1.88,3.41-3.77,6.84-5.65,10.27-.84-6.33-1.68-12.66-2.52-18.96-.05-1.48-.25-3.24-.54-5.72l-.1-.83-.2-.81c-.46-1.88-1.09-3.52-1.92-5.01-3.22-5.81-10.03-9.43-17.76-9.43-.29,0-.59,0-.89.02-1.44.05-2.68.15-3.82.3-1.77.23-3.51.66-6.21,1.5-1.6.5-2.07.64-2.12.65-5.32,1.46-10.73,2.97-16.07,4.51-5.46,1.57-10.99,3.2-16.43,4.83-3.24.97-6.18,2.55-8.74,4.69-3.06,2.56-5.11,5.52-6.1,8.81l-1.16,3.89c-1.39,4.64-.5,9.33,2.49,13.21.92,1.19,2.03,2.27,3.27,3.21-10.93,37.77-21.86,75.53-32.8,113.29-1.16,3.36-2.13,4.85-2.5,5.34-1.33,1.76-5.08,4.18-6.88,5.35l-.34.22-.33.23c-4.1,2.92-6.93,6.65-8.16,10.79l-1.49,4.99c-.71,2.38-.82,4.77-.38,7.05l-.59.27.87.89c1.07,3.83,3.72,7.25,7.65,9.6.99.6,2.04,1.11,3.14,1.53l28.55,29.45c1.26,2.4,3.26,4.51,5.9,6.08,3.01,1.8,6.56,2.76,10.28,2.76,2.4,0,4.8-.4,7.14-1.19l.39-.13.38-.15c1.22-.48,2.44-.96,3.66-1.44,4.81-1.9,9.35-3.7,13.79-5.13,3.96-1.28,8.31-2.35,12.91-3.49,1.06-.26,2.12-.52,3.18-.79l.47-.12.46-.14c3.22-.99,6.11-2.63,8.58-4.87,2.7-2.45,4.48-5.23,5.3-8.28l1.19-4.44c.6-2.23.62-4.44.15-6.52.27.04.54.08.81.11.88.11,1.8.16,2.72.16,2.14,0,4.41-.29,6.95-.88,1.79-.42,3.87-1,6.37-1.77,1.86-.58,2.67-.82,2.94-.9.15-.04.49-.12,1.12-.26.9,3.38,3.13,6.44,6.45,8.62,3.19,2.1,7.03,3.21,11.09,3.21,1.82,0,3.65-.23,5.44-.68l.37-.09.36-.11c17.82-5.24,34.73-9.05,51.68-11.63l.43-.07.43-.09c2.83-.56,5.47-1.6,7.76-3.04,1.32.25,2.67.38,4.04.38s2.72-.13,4.07-.37l.51-.09.5-.12c1.1-.27,2.21-.54,3.32-.81,4.29-1.05,8.34-2.05,12.13-2.69,3.71-.62,7.84-1,12.21-1.39,1.12-.1,2.25-.2,3.36-.31l.54-.05.53-.08c4.02-.61,7.72-2.26,10.69-4.78,3.54-3,5.31-6.76,5.91-11.29.27-1.99.21-3.19,2.4-3.55,2.35-.39,5.1.26,7.26,1.16,3.27,1.36,5.07,3.97,7.68,6.22,2.66,2.29,6.99,6.3,10.79,6.31.8,0,1.61-.04,2.41-.13l.44-.05.43-.07c16.79-2.57,33.11-3.9,49.89-4.06h.45s.45-.03.45-.03c2.62-.15,5.18-.76,7.51-1.77,2.13.69,4.4,1.05,6.73,1.05.31,0,.63,0,.95-.02l.45-.02.44-.04c10.13-.89,20.29-1.34,30.22-1.34,6.34,0,12.77.18,19.09.55l.46.03h.7c4.97,0,9.65-1.52,13.19-4.29,3.34-2.61,5.39-5.99,5.94-9.7,2.52,3.4,5.21,5.86,8.25,7.59,3.84,2.19,8.9,3.98,12.46,5.11,6.32,1.99,12.05,3.16,17.52,3.57,3.05.23,6.14.44,9.14.64,3.35.23,6.82.46,10.14.71.68.05,1.35.08,2.01.08,5.39,0,10.29-1.75,13.79-4.93,1.89-1.71,3.26-3.74,4.06-5.95,4.4,3.3,9.24,6.34,14.41,9.02,10.09,5.23,21.37,8.83,32.61,10.42,3.87.55,7.71.82,11.42.82,12.15,0,22.66-3.02,30.49-8.63l.56,3.1c.63,3.45,2.56,6.67,5.58,9.29,2.77,2.41,6.2,4.09,9.93,4.85l.41.08.41.07c17.34,2.77,34.29,6.69,51.82,11.98l.37.11.37.1c1.95.5,3.93.76,5.86.76,4.06,0,7.87-1.09,11.03-3.16.51-.34,1-.69,1.46-1.07.9,2.7,2.59,5.17,5.03,7.36,2.53,2.28,5.5,3.92,8.82,4.87l.37.11.38.09c17.94,4.36,35.6,9.9,53.99,16.94l.32.12.33.11c2.48.84,4.99,1.27,7.46,1.27,3.71,0,7.24-.94,10.22-2.73,2.72-1.62,4.75-3.81,6-6.28l27.7-28.99c1.36-.47,2.66-1.07,3.87-1.79,6.64-3.97,9.61-10.96,7.56-17.82Z"/><path class="cls-3" d="M250.23,505.98c4.5-20.82,9.4-42.41,13.75-62.52.91-4.22.96-6.52.59-6.43-2.1,3.84-3.16,5.78-5.3,9.7-.96,1.95-2.63,5.08-5.04,9.48-1.85,3.37-3.7,6.75-5.5,10.14-2.23,4.21-4.51,8.41-6.79,12.6-2.75,5.05-5.48,10.13-8.16,15.21-2.35,4.45-4.73,8.9-7.13,13.33-.07.31-.37,1-.91,2.08-.53,1.08-1.02,1.98-1.47,2.67-.45.7-1,1.47-1.66,2.3-.66.83-1.34,1.49-2.01,1.96-.67.47-1.58.89-2.69,1.26-1.12.37-2.13.68-3.03.92-.9.24-2.05.52-3.43.82-1.39.3-2.28.51-2.68.62-.4.11-1.72.51-3.95,1.2-2.23.69-4.1,1.22-5.58,1.56-1.49.35-2.61.48-3.33.39-.72-.09-1.3-.4-1.72-.93-.42-.54-.71-1.03-.87-1.5-.16-.46-.23-1.28-.21-2.45.02-1.17.05-1.82.09-1.98-.85-5.22-1.2-10.52-1.7-15.77-.11-1.66-.36-4.54-.74-8.59-.38-4.05-.77-7.2-1.02-9.4-.42-3.65-.69-7.43-1.03-11.15-.38-4.16-.74-8.33-1.12-12.47-.17-1.9-.43-2.74-.76-2.52-.33.23-.68,1.67-1.26,4.1-.13.56-.26.93-.3,1.07-3.08,11.17-6.16,22.33-9.25,33.49-1.04,3.78-1.84,6.68-2.39,8.66-2.31,8.35-4.61,16.7-6.92,25.06-1.06,3.82-1.27,6.61-.61,8.32.65,1.72,3.18,2.78,7.57,3.23.89.18,1.21.75.95,1.72-.52,1.95-.78,2.93-1.31,4.89-.18.66-.64,1.32-1.39,2-.75.68-1.54,1.15-2.37,1.4-6.37,1.6-12.88,3.1-19.02,5.08-6.86,2.21-13.64,5.01-20.38,7.65-.84.29-1.5.28-1.98,0-.48-.29-.62-.76-.42-1.43.6-2.01.9-3.01,1.49-5,.3-1,1.04-1.92,2.23-2.77,4.1-2.65,8.39-5.61,11.16-9.28,1.87-2.47,3.45-5.77,4.77-9.69,11.24-38.81,22.48-77.62,33.71-116.44.12-.4.3-1.03.55-1.89.25-.86.42-1.46.52-1.79.1-.33.2-.85.32-1.54.12-.69.13-1.18.04-1.46-.09-.27-.19-.67-.29-1.17-.1-.51-.26-.97-.48-1.38-.21-.41-.62-.77-1.19-1.08-1.05-1-2.79-1.6-5.23-1.81-.8-.11-1.08-.56-.85-1.34.47-1.56.7-2.34,1.16-3.89.15-.51.56-1.05,1.22-1.6.66-.55,1.35-.94,2.08-1.16,5.38-1.62,10.79-3.21,16.19-4.76,5.25-1.51,10.53-2.99,15.82-4.44.54-.15,1.49-.44,2.85-.87,1.36-.43,2.26-.67,2.69-.73.43-.06,1.03-.1,1.78-.13.76-.03,1.25.17,1.47.57.23.41.42.95.58,1.61.36,3.08.51,4.77.44,5.03,2.97,22.19,5.89,44.47,8.82,66.58.56,4.26,1.07,6.4,1.46,6.3.38-.1,2.05-2.91,4.93-8.33.87-1.43,2.04-3.52,3.48-6.27,1.44-2.75,2.43-4.5,2.97-5.3,7.01-12.87,14.02-25.74,21.1-38.58,3.45-6.27,6.84-12.58,10.29-18.82,3.01-5.45,6.28-10.96,9.09-16.41.59-1.16,1.21-1.95,1.88-2.33.66-.37,2.02-.65,3.85-.98,5.77-1.01,12.3-2.18,17.83-3.53,1.03-.25,3.6-.83,7.59-1.51,3.99-.67,6.94-1.17,8.85-1.5.87-.15,1.53-.09,1.99.18.46.27.64.65.56,1.13-.25,1.45-.38,2.18-.64,3.65-.13.73-.75,1.37-1.86,1.92-1.11.55-2.19,1.13-3.23,1.73-1.04.6-1.91,1.21-2.61,1.81-.71.61-1.35,1.11-1.93,1.51-.58.4-1.07,1-1.48,1.79-.4.79-.71,1.33-.93,1.61-.22.28-.46.9-.72,1.85-.26.95-.41,1.55-.46,1.8-.05.25-.18.97-.4,2.16-.22,1.19-.35,1.92-.4,2.17-6.75,36.56-13.53,73.12-20.31,109.67-.68,3.64-.57,6.35.34,8.08.91,1.74,3.45,3.08,7.64,4.04,1.1.23,1.56.81,1.4,1.74-.33,1.86-.49,2.79-.82,4.67-.11.63-.5,1.23-1.18,1.82-.68.59-1.51.98-2.5,1.18-20.36,3.1-40.13,7.67-59.67,13.42-.81.2-1.46.14-1.96-.19-.5-.33-.67-.81-.53-1.45.43-1.92.65-2.87,1.07-4.77.21-.95.87-1.79,1.98-2.51,3.8-2.21,7.86-4.78,10.28-8.09,1.65-2.26,2.85-5.33,3.64-9.02Z"/><path class="cls-3" d="M451.63,473.37c.32,1,.66,2.36,1.03,4.09.37,1.73.68,2.93.93,3.57.25.65.72,1.54,1.41,2.68.69,1.14,1.69,2.08,2.98,2.82,1.29.74,2.97,1.43,5.04,2.06.93.4,1.38,1.04,1.34,1.94-.09,1.8-.13,2.7-.22,4.52-.03.61-.34,1.15-.94,1.64-.6.49-1.29.75-2.06.79-19.53.19-38.76,1.78-57.97,4.72-.78.08-1.43-.07-1.97-.47-.54-.39-.78-.89-.72-1.5.18-1.82.27-2.73.45-4.55.09-.91.73-1.65,1.93-2.22,3.53-2.04,7.67-4.17,9.14-7.83,1.11-2.75,1.13-5.77.11-9.01-.44-1.41-.97-3.82-1.59-7.2-.62-3.38-1.17-5.91-1.53-7.55-.27-1.23-.72-2.23-1.39-2.93-.67-.7-1.27-1.24-1.79-1.61-.52-.37-1.52-.58-2.99-.63-1.48-.05-2.49-.04-3.05.02s-1.88.24-3.94.54c-2.07.3-3.38.49-3.94.55-.94.11-3.46.36-7.57.79-4.11.43-7.73.92-10.84,1.47-3.11.55-5.38,1.25-6.76,1.96-1.15.59-2.28,1.51-3.27,2.78-1,1.27-1.75,2.37-2.24,3.29-.49.92-1.1,2.32-1.82,4.21-.72,1.89-1.26,3.02-1.42,3.32-.35.65-.84,2.06-1.65,3.91-.81,1.85-1.6,3.3-1.98,4.2-.4.96-1.04,2.81-2.13,5.24-1.09,2.44-1.74,4.09-1.96,4.93-.21.84-.17,1.91.13,3.2.29,1.29,1.16,2.2,2.62,2.73.89.47,1.28,1.08,1.18,1.84-.25,1.83-.37,2.75-.62,4.59-.08.62-.45,1.2-1.1,1.75-.65.55-1.37.88-2.15,1-6.23.59-12.62,1.05-18.68,2.07-6.13,1.03-12.33,2.67-18.45,4.14-.79.15-1.44.04-1.95-.32-.51-.36-.72-.85-.61-1.47.31-1.87.47-2.8.78-4.65.13-.77.73-1.56,1.82-2.35,4.05-2.59,8.18-5.19,11.34-8.59,2.66-2.86,5.01-6.42,6.62-9.81,18.07-39.42,36.9-78.6,55.55-117.83.22-.39.69-1.47,1.42-3.24.72-1.76,1.37-3.27,1.95-4.53.57-1.25,1.28-2.58,2.13-3.98.84-1.4,1.45-2.46,1.86-2.87.56-.55,1.6-1.06,2.59-1.53.98-.46,2.21-.83,3.67-1.11,1.46-.28,2.62-.46,3.48-.55.85-.09,2.22-.23,4.1-.43,1.88-.19,2.9-.29,3.08-.31,1.54-.15,2.94-.23,4.21-.24,1.27,0,2.32.01,3.17.05.84.04,1.58.27,2.22.68.64.41,1.16.69,1.58.83.41.14.75.64,1.01,1.5.26.86.47,1.44.61,1.72.14.28.33,1.07.55,2.36.23,1.29.4,2.17.53,2.64.6,2.82,1.29,5.8,2.05,8.95.76,3.15,1.59,6.67,2.48,10.55.89,3.89,1.61,6.96,2.13,9.18,3.73,14.95,7.38,29.91,10.86,44.9.44,1.6,1.01,3.88,1.73,6.86.72,2.98,1.21,5.31,1.47,6.96,2.1,8.25,4.05,16.52,6.01,24.79ZM380.56,425.58c-2.37,5.24-4.69,10.57-7.1,15.82-.99,2.17-1.14,3.66-.42,4.46.72.8,1.96,1.08,3.73.86,1.76-.22,3.85-.49,6.26-.78,1.67-.2,4.12-.47,7.35-.77,3.23-.3,5.66-.68,7.09-.9,1.39-.22,2.74-.43,3.79-.82,1.04-.38,1.77-.77,2.17-1.16.4-.38.65-.99.73-1.82.08-.83.1-1.48.06-1.95-.04-.47-.24-1.23-.59-2.28-.35-1.05-.59-1.83-.72-2.36-2.23-11.31-4.51-22.61-6.86-33.89-.77-4.24-2.07-4.22-3.97.07-.22.41-.41,1.18-.76,2-.32.77-.68,1.36-.71,1.62-3.31,7.32-6.76,14.64-10.06,21.93Z"/><path class="cls-3" d="M488.1,473.77c1.08-36.31,2.16-72.62,3.24-108.94-.09-2.9-.62-5.1-1.6-6.63-.98-1.52-3.5-2.94-7.54-4.21-.84-.32-1.25-.84-1.22-1.55.06-1.42.08-2.13.14-3.54.02-.47.29-.89.81-1.26.52-.37,1.12-.57,1.8-.59,8.95.03,17.91-.25,26.84-.4,8.51-.14,17.07-.2,25.56-.3,15.98-.19,33.02,1.16,46.58,8.93,12.64,7.25,17.24,19.29,18.31,31.57,1.1,12.62-3.57,26.57-18.13,32.63-.52.37-1.36.73-2.52,1.07-1.16.34-2,.64-2.53.88-1.6.59-1.47,1.6.41,3.03.37.15.56.3.56.43,3.88,2.98,6.47,6.77,8.57,10.6,2.68,4.9,4.29,10.53,5.82,15.91,1.18,4.16,2.25,8.41,3.65,12.55,2.47,5.56,5.2,10.91,9.43,15.63,4.23,4.73,10,8.65,16.2,11.47,1.19.55,1.82,1.27,1.89,2.18.14,1.81.21,2.71.36,4.53.12,1.52-.9,2.16-3.01,2-7.02-.54-14.23-.97-21.28-1.49-5.05-.37-9.93-1.56-14.56-3.02-4.71-1.49-8.09-2.93-9.95-3.98-1.86-1.06-4.12-3.73-6.45-7.87-1.99-3.54-3.93-7.22-5.06-11.09-1.59-5.43-3.22-10.88-4.84-16.32-.21-.86-.32-1.42-.33-1.71-1.22-3.85-2.37-7.03-3.45-9.56-1.08-2.53-2.61-5.2-4.6-7.99-1.98-2.79-4.59-5.06-7.8-6.81-3.21-1.75-7.1-3.05-11.64-3.88-1.09-.41-2-.45-2.72-.11-.73.34-1.27.54-1.63.6-.36.07-.59.41-.68,1.01-.09.61-.18,1.09-.27,1.42-.09.34-.09.92,0,1.73.09.81.14,1.43.14,1.84.01,8.64.02,17.28.03,25.92,0,4.9.01,9.8.02,14.7,0,3.5.62,6.23,1.86,8.16,1.24,1.92,4.05,3.79,8.46,5.63,1.15.46,1.73,1.14,1.74,2.04.02,1.8.03,2.7.05,4.51,0,.6-.28,1.13-.85,1.57-.57.45-1.34.67-2.3.66-19.21-1.1-38.25-.76-57.4.92-.77.03-1.44-.17-1.99-.6-.56-.43-.83-.94-.8-1.55.07-1.81.11-2.71.18-4.51.04-.9.54-1.59,1.51-2.08,4.66-1.99,7.57-3.94,8.78-5.91,1.2-1.96,1.94-4.72,2.24-8.23ZM526.55,405.56c0,3.26.18,5.17.55,5.49.44.4,2.78.59,6.73.62.18,0,3.8-.01,10.77.14,17.43.37,21.04-14.95,20.6-26.81-.11-2.88-.5-5.7-1.21-8.44-.7-2.74-1.75-5.6-3.14-8.56-1.39-2.96-3.57-5.35-6.53-7.17-2.96-1.82-6.56-2.89-10.61-3.01-6.73-.21-10.64-.11-11.3-.13-2.85-.08-4.67.13-5.26.79-.6.66-.72,2.07-.64,4.05.18,4.17.01,8.66.02,12.99.01,10.01.03,20.03.04,30.04Z"/><path class="cls-3" d="M655.64,423.73c.43,4.19,1.08,8.41,1.78,12.57.9,5.32,2.42,10.67,4.08,15.8,1.83,5.64,4.07,11.3,7.04,16.69,2.67,4.85,6.34,9.31,10.7,13.15,3.9,3.44,9.18,5.89,14.68,6.54,4.06.48,9.29.48,13.35-.5,3.88-.93,6.99-2.31,9.23-4.18,2.24-1.87,4.09-4.08,5.54-6.62,1.46-2.54,2.49-5.05,3.1-7.56.61-2.5,1.16-4.79,1.64-6.86.49-2.07.94-3.72,1.38-4.96.43-1.23,1.15-1.7,2.1-1.39,5.24,1.76,6.68,8.67,7.64,12.64,2.53,10.36,2.29,21.85-5.39,31.22-8.16,9.95-23.47,10.91-35.76,9.17-10.28-1.45-20.46-4.77-29.45-9.43-8.34-4.32-16.36-9.94-22.68-16.6-6.05-6.38-11.47-13.48-15.53-20.91-3.89-7.13-7.31-14.5-9.54-22-1.99-6.69-3.38-13.79-3.91-20.66-.51-6.7-.34-13.75.7-20.36,1.02-6.44,3.09-13,6.09-18.94,2.86-5.67,6.81-10.95,11.8-15.48,4.8-4.37,11.71-7.66,18.68-9.41,8.65-2.18,17.54-2.34,26.06-1.3,7.34.9,15.22,3.55,21.35,7.62,1.13.76,1.93,1.27,2.39,1.51.46.25,1.12.41,1.98.48.85.07,1.5-.15,1.92-.67.13-.21.34-.5.62-.87.28-.37.49-.63.63-.78.14-.15.37-.29.69-.42.31-.12.82-.13,1.51-.02,3.11.5,4.67.76,7.79,1.28.69.12,1.37.41,2.04.87.67.46.96.93.87,1.38.3,3.89.82,7.81,1.49,11.65.79,4.55,1.69,9.1,2.6,13.64.81,4.01,1.22,8.59,2.33,12.04.16.5.13,1-.42,1.34-.55.35-1.19.45-1.91.33-.54-.09-1.62-.28-3.23-.56-1.62-.28-2.87-.49-3.77-.64-1.61-.27-2.79-.78-3.52-1.52-.73-.75-1.38-1.79-1.94-3.14-.26-.54-.65-1.64-1.18-3.28-.52-1.64-1.04-2.99-1.56-4.06-3.17-5.46-6.81-10.04-11.65-14.44-4.43-4.03-10.71-6.75-17.12-7.67-31.8-4.56-26.78,40.19-25.23,55.29Z"/><path class="cls-3" d="M766.94,498.59c-7.21-37.71-14.4-75.42-21.58-113.13-.75-3.05-1.81-5.46-3.17-7.27-1.36-1.81-4.29-3.85-8.76-6.08-.94-.53-1.48-1.16-1.61-1.89-.27-1.47-.4-2.2-.66-3.65-.09-.48.1-.86.55-1.13.46-.27,1.03-.34,1.73-.22,17.34,3.9,34.75,7.49,52.28,10.68.88.2,1.63.55,2.25,1.04.62.49.98.99,1.09,1.48.34,1.49.51,2.23.86,3.73.17.75-.23,1.19-1.21,1.32-3.75.56-6.02,1.54-6.82,2.91-.8,1.37-.86,3.57-.19,6.63,2.69,12.21,5.38,24.41,8.07,36.62.9,4.07,1.48,6.29,1.72,6.61.24.32.58.62,1,.91.42.29.91.5,1.47.64.56.13,1.02.24,1.4.33.37.09.88.21,1.54.36.65.15,1.16.28,1.54.37,11.8,2.81,23.55,5.81,35.22,8.93,4.34,1.16,6.78,1.72,7.27,1.59.84-.16.91-2.05-.05-5.26-1.43-4.78-2.83-9.91-4.13-14.88-2.1-8.09-4.2-16.18-6.3-24.26-.81-3.12-1.97-5.64-3.49-7.59-1.51-1.95-4.63-4.26-9.33-6.88-1-.61-1.58-1.29-1.77-2.05-.38-1.51-.57-2.27-.95-3.77-.13-.5.03-.87.47-1.11.44-.24,1.02-.27,1.73-.09,17.8,5.3,35.7,10.31,53.75,14.94.91.27,1.69.69,2.36,1.24.66.55,1.07,1.09,1.22,1.6.46,1.55.7,2.33,1.16,3.89.23.78-.14,1.2-1.13,1.26-3.75.28-5.98,1.11-6.68,2.45-.7,1.34-.6,3.59.32,6.77,11.52,39.81,23.05,79.62,34.58,119.42,1.12,3.86,2.64,7.12,4.62,9.64,2.83,3.6,6.96,6.56,11,9.23,1.4.92,2.25,1.88,2.55,2.87.59,1.99.89,2.99,1.49,5,.2.67.06,1.15-.42,1.43-.48.29-1.25.25-2.3-.1-20.15-7.71-40.69-14.26-61.94-19.42-.82-.24-1.6-.69-2.34-1.35-.74-.66-1.19-1.32-1.35-1.97-.49-1.95-.73-2.91-1.22-4.85-.24-.97.08-1.55.98-1.74,4.39-.54,6.92-1.65,7.6-3.37.68-1.72.52-4.49-.47-8.27-4.39-16.88-8.79-33.75-13.18-50.63-.91-4.16-1.54-6.43-1.92-6.87-.38-.44-.78-.79-1.2-1.03-.42-.25-.93-.49-1.52-.72-.59-.23-1.13-.41-1.61-.54-.48-.13-1.1-.3-1.87-.51-.77-.21-1.25-.34-1.44-.39-7.6-2.07-15.23-4.07-22.87-6.01-5.37-1.37-10.97-2.6-16.18-3.98-2.44-.65-3.88-.75-4.18-.09-.3.66-.04,2.06.49,4.03,1.03,3.9,1.8,8.15,2.7,12.23,2.95,13.36,5.91,26.72,8.86,40.08.82,3.7,2.09,6.77,3.85,9.1,2.52,3.33,6.55,5.75,10.19,8.14,1.31.78,2.08,1.65,2.3,2.61.44,1.91.66,2.87,1.1,4.79.15.64-.03,1.12-.52,1.45-.5.32-1.25.36-2.26.1-19.57-5.9-39.39-10.56-59.8-13.82-.8-.16-1.53-.54-2.21-1.13-.68-.59-1.08-1.2-1.19-1.83-.34-1.88-.51-2.81-.85-4.68-.17-.93.19-1.53,1.1-1.8,4.39-.9,6.98-2.21,7.78-3.97.8-1.75.94-4.45.44-8.06Z"/><path d="M552.24,573.01c-1.2-3.06-2.85-6.07-4.91-8.97-7.32-11.18-16.02-13.53-22.07-13.51-4.39.01-12.71,1.42-19.6,10.55-1.01,1.26-2.72,3.63-7.77,11.25,0,0-8.66,13.07-13.67,20.64-5.33,8.04-11.04,16.64-17.13,25.8-3.07,4.62-6.05,9.12-8.92,13.49-.59-.02-1.18-.03-1.77-.02-3.57.01-7.15.37-10.68,1.06-4.3.86-8.43,1.94-12.25,3.23-4.17,1.4-7.96,3.05-11.26,4.9-3.4,1.9-5.9,3.56-7.87,5.2l-.31.26-.3.27c-1.87,1.71-4.81,4.37-8.8,7.95-1.31,1.17-2.61,2.4-3.9,3.65-.06-.13-.11-.25-.17-.38-1.57-3.23-3.09-5.73-4.76-7.78-.18-.41-.33-.83-.46-1.25-2.76-8.92-10.23-15.01-19.99-16.29l-.31-.04-.31-.03c-.71-.07-1.43-.11-2.16-.15,3.33.18,8.33-10.64,9.47-12.94,3.39-6.86,5.36-14.35,6.81-21.83,2.03-10.55,3.06-21.3,5.76-31.7.51-1.96,1.08-3.98.75-5.98-.92-5.48-11.74-14.21-15.82-17.84-4.11-3.65-9.33-5.65-14.84-5.64l-.46-.08c-1.48-.26-2.96-.39-4.4-.39-8.15.02-15.24,4.27-18.96,11.31-.15.29-.25.4-.25.41l-.06.07c-1.5,1.83-3.11,3.4-4.81,4.7-2.11,1.61-4.34,3.15-6.65,4.6-3.25,1.63-6.21,3.71-8.81,6.17-.62.59-1.39,1.18-2.3,1.76l-1.06.68-.96.82c-1.81,1.54-3.67,2.99-5.56,4.33-.85.6-1.13-10.59-3.09-16.43-1.6-4.76-4.36-9.02-8.06-12.47-.71-1.11-1.51-2.23-2.42-3.37l-10.06-12.57-5.12,3.08-15.71.05-5.48,7.71c-.42.59-.89,1.17-1.41,1.74-1.32,1.44-2.52,2.96-3.57,4.52-2.27,1.17-4.45,2.46-6.53,3.87-3.03,2.06-6.06,4.31-9,6.68-2.43,1.93-4.73,3.76-6.91,5.51-2.14,1.72-4.34,3.54-6.55,5.42-1.13.84-2.28,1.68-3.42,2.5-1.96,1.39-3.9,2.93-5.77,4.57l-.06.06c-5.9,5.24-11.81,10.52-17.54,15.69-5.65,5.09-11.47,10.37-17.29,15.7l-.85.77-.74.87c-.89,1.04-1.78,2.05-2.67,3.01-.75.82-1.61,1.73-2.56,2.69-1.79,1.65-3.66,3.34-5.58,5.02-2.36,2.08-4.66,4.24-6.84,6.43-1.16,1.17-2.3,2.44-3.38,3.78-3.47,1.54-6.52,3.79-9,6.67-.86.99-1.65,1.85-2.35,2.56-2.43,2.44-4.6,5.01-6.47,7.64-.51.72-1.14,1.42-1.88,2.09l-.64.58-.59.64c-1.45,1.59-2.97,3.08-4.51,4.44-2.37,2.09-4.67,4.25-6.83,6.43-.7.71-1.97,2.05-6.46,7.05-3.17,3.53-6.98,7.75-11.43,12.66-4.37,4.82-9.05,10.05-14.34,16-4.98,5.62-9.67,10.9-14.05,15.83-4.31,4.85-8.03,8.98-11.04,12.26-2.29,2.5-3.54,3.85-4.21,4.57-3.6,2.87-6.09,5.82-7.75,9.18l-.48.97-.36,1.02c-1.04,2.91-2.36,5.59-3.94,7.97-1.39,2.1-3.05,3.98-5.05,5.75-4.59,3.59-7.83,8.34-9.47,13.87-.87,2.19-1.67,4.43-2.39,6.69-.7,2.22-1.4,4.48-2.11,6.78,0,0-6.61,21.7-6.61,21.7,2.81,3.29,5.62,6.57,8.43,9.86,3.64,4.26,7.73,11.69,13.64,12.2,10.6.92,39.29-10.56,40.26-11.76,3.77-4.62,8.3-8.76,12.5-12.98,2.71-2.72,5.59-5.54,8.56-8.37,3.05-2.9,9.3-8.87,9.3-8.87l.16-.16c1.61-1.62,3.09-3.45,4.41-5.44l.11-.08,1-1c.55-.55,1.06-1.03,1.49-1.38.53-.43,1.05-.88,1.56-1.34l.46-.23,1.18-.87c1.59-1.17,3.13-2.25,4.58-3.22,2.14-1.43,4.33-3.07,6.56-4.91,1.68-1.39,4-2.83,6.88-4.25,5.33-2.63,9.77-5.44,13.56-8.58l.29-.25c1.34-1.16,2.67-2.32,4-3.48l4.67,18.92-12.01,53.65,9.34,20.5,32.68-6.09c1-.19,1.93-.37,2.8-.56,1.43.27,2.87.4,4.32.4,5.05-.02,9.94-1.71,14.18-4.91.87-.63,1.74-1.16,2.63-1.58,3.52-1.7,8.13-5.02,11.36-11.36.27-.28.54-.53.81-.75,2.54-2.04,4.71-4.51,6.46-7.34,2.19-2.87,4.35-5.87,6.44-8.93,1.98-2.92,4.08-5.97,6.23-9.06,3.46-4.69,7.06-9.56,10.73-14.47,3.55-4.76,7.12-9.43,10.67-13.93,2.28-2.92,4.55-5.82,6.81-8.71l.56.8c6.01,8.7,14.81,14.43,25.45,16.59,3.37.76,6.74,1.14,10.04,1.13,5.26-.02,10.39-1.01,15.26-2.96,3.26-1.27,6.34-2.9,9.16-4.84,1.11-.77,2.31-1.47,3.54-2.09l.42-.21.41-.24c1.75-1.01,3.69-2.25,5.86-3.76,1.84,1.1,3.85,1.98,6.01,2.6,2.11.64,4.33.96,6.62.95,3.44-.01,7.05-.77,10.94-2.29,6.06,5.71,13.53,9.55,21.92,11.21,3.52.77,7.02,1.16,10.4,1.15,5.09-.02,10.01-.92,14.63-2.69l.25-.1.25-.1c3.16-1.33,6.13-3.02,8.85-5.05,2.2.52,4.58.78,7.22.77,5.79-.02,9.88-2.85,12.07-4.36,1.32-.91,2.97-2.07,5-3.52,2.15-1.53,4.42-3.24,6.94-5.24,2.35-1.85,4.75-3.84,7.14-5.9,5.34-4.4,11.45-9.56,18.18-15.36l15.08-28.87-6.92-14.97,8.02-12.11c3.4-5.13,6.68-10.05,9.76-14.61,3.19-4.74,6.13-9.19,8.73-13.24,2.56-3.99,4.46-7.01,5.83-9.24l.15-.24.14-.25c2.26-3.98,3.32-8.3,3.18-12.69,3.05-4.55,5.88-8.85,8.41-12.78,2.75-4.29,4.8-7.54,6.27-9.93l.16-.26.15-.27c4.23-7.46,4.57-16.03.96-24.21Z"/><path class="cls-3" d="M367.79,556.52c1.73,1.38,3.25,2.93,4.55,4.65,1.3,1.72,2.73,3.36,4.29,4.91l-.25,1.81c-1.89,3.81-4.04,7.31-6.45,10.52-2.41,3.21-4.9,6.45-7.48,9.74-.86.87-1.64,1.82-2.32,2.86-.69,1.04-1.46,2.08-2.32,3.12-5.33,7.27-10.67,14.5-16,21.69-5.34,7.19-10.75,14.41-16.26,21.69-2.24,2.95-4.43,5.84-6.58,8.7-2.15,2.86-4.09,5.93-5.8,9.22-3.44,5.89-7.27,11.38-11.48,16.49-4.22,5.11-8.31,10.26-12.26,15.45-4.48,5.54-8.91,11.13-13.29,16.75-4.39,5.63-8.82,11.3-13.29,17.01-3.96,5.02-7.87,10.13-11.74,15.32-3.87,5.19-7.79,10.47-11.74,15.84-2.41,3.46-4.73,6.84-6.97,10.13-2.24,3.29-4.56,6.49-6.97,9.61-.86,1.56-1.93,2.86-3.23,3.9-1.29,1.04-2.54,2.25-3.75,3.64-.69.69-1.12,1.21-1.29,1.56-1.03,2.76-2.54,4.63-4.52,5.58-1.98.95-3.93,2.13-5.82,3.52-2.24,1.73-4.57,2.09-6.99,1.06-1.04-.34-2.2-.34-3.5.01-1.29.35-2.89.7-4.79,1.05,1.37-2.94,3.69-7.31,6.96-13.11,3.26-5.8,6.7-11.73,10.31-17.78,3.61-6.06,6.87-11.47,9.8-16.23,2.92-4.76,4.64-7.57,5.16-8.44,2.23-2.95,4.43-5.89,6.58-8.83,2.15-2.94,4.34-5.88,6.58-8.83,2.41-3.46,4.94-6.84,7.61-10.13,2.67-3.29,4.77-6.75,6.32-10.38,1.03-2.42,2.36-4.32,4-5.71,1.64-1.39,3.06-3.12,4.26-5.2,1.37-2.08,2.79-4.07,4.26-5.97,1.46-1.9,2.88-3.81,4.26-5.71,3.44-4.84,7.23-9.69,11.36-14.55,2.75-3.29,5.46-6.58,8.13-9.87,2.67-3.29,5.38-6.58,8.13-9.87.34-.52.64-1.25.9-2.21.26-.95.64-2.03,1.16-3.24-1.38.87-2.55,1.52-3.49,1.95-.95.44-1.86,1.09-2.71,1.95-4.65,3.82-9.31,7.63-13.96,11.44-4.65,3.82-9.31,7.72-13.96,11.7-10.34,8.84-21.63,16.31-33.88,22.39-.86.52-2.46,1.61-4.78,3.25-2.33,1.65-4.96,3.64-7.89,5.98-2.93,2.34-6.07,4.81-9.44,7.41-3.36,2.6-6.42,5.03-9.18,7.28-2.76,2.26-5.13,4.25-7.11,5.98-1.98,1.74-3.15,2.78-3.49,3.12h-1.3c.34-1.38.64-2.67.9-3.89.26-1.21.73-2.5,1.41-3.89.68-1.38,1.42-2.77,2.19-4.15.77-1.38,1.42-2.77,1.93-4.15.17-.52.94-2.12,2.32-4.8,1.37-2.68,3-5.88,4.89-9.6,1.89-3.72,3.9-7.66,6.05-11.81,2.15-4.15,4.16-8.05,6.05-11.68,1.89-3.63,3.48-6.66,4.77-9.08,1.29-2.42,2.02-3.8,2.19-4.15,1.03-1.21,2.36-3.38,4-6.49,1.63-3.11,3.26-6.27,4.89-9.47,1.63-3.2,3.09-6.05,4.38-8.56,1.29-2.51,2.02-3.93,2.19-4.28-.52-.17-1.13-.26-1.81-.25l-5.43,4.68c-2.07,1.91-4.13,3.64-6.2,5.2-2.07,1.56-4.14,3.21-6.2,4.94l-13.18,13.26c-1.38,1.56-2.84,3.25-4.39,5.07-1.55,1.82-3.19,3.6-4.91,5.33-2.24,1.91-4.39,3.86-6.46,5.85-2.07,1.99-4.22,4.03-6.46,6.11-1.38,1.39-2.8,2.77-4.26,4.16-1.47,1.39-2.89,2.77-4.26,4.16-5,4.16-9.91,8.37-14.73,12.61-4.83,4.25-9.74,8.54-14.73,12.87-2.93,2.43-6.59,4.73-10.99,6.9-4.4,2.18-8.06,4.47-10.99,6.9-1.89,1.56-3.75,2.95-5.56,4.16-1.81,1.21-3.66,2.51-5.56,3.9-.34.17-.6.3-.78.39-.17.09-.43.22-.78.39-.86.87-1.76,1.69-2.71,2.47-.94.78-1.94,1.69-2.97,2.73-1.2.87-2.24,1.99-3.1,3.38-.86,1.38-1.81,2.6-2.84,3.64-3.27,3.12-6.54,6.24-9.82,9.36-3.27,3.12-6.46,6.24-9.56,9.36-6.2,6.24-12.14,12.48-17.82,18.71-.52.86-.99,1.64-1.42,2.34-.43.69-.81,1.38-1.16,2.08l-2.85-.25c.69-2.25,1.37-4.45,2.05-6.61.69-2.16,1.46-4.28,2.31-6.36.51-2.25,1.72-4.07,3.61-5.45,3.45-2.95,6.37-6.24,8.78-9.87,2.41-3.64,4.38-7.62,5.92-11.94.52-1.04,1.72-2.25,3.62-3.64.52-.52,2.32-2.47,5.42-5.85,3.1-3.38,6.84-7.54,11.23-12.47,4.39-4.94,9.08-10.22,14.07-15.85,4.99-5.63,9.73-10.91,14.2-15.85,4.48-4.94,8.31-9.18,11.49-12.73,3.18-3.55,5.12-5.67,5.81-6.37,1.89-1.91,3.88-3.77,5.94-5.59,2.07-1.82,4.05-3.77,5.94-5.85,1.72-1.56,3.23-3.25,4.52-5.07s2.8-3.59,4.52-5.33c1.03-1.04,2.11-2.21,3.23-3.51,1.12-1.3,2.63-2.12,4.53-2.48,1.21-.35,2.37-1.3,3.49-2.86,1.12-1.56,2.28-2.94,3.49-4.16,1.89-1.9,3.88-3.77,5.94-5.59,2.07-1.82,4.13-3.68,6.2-5.59,1.2-1.21,2.33-2.38,3.36-3.51,1.03-1.12,2.07-2.29,3.1-3.51,5.68-5.2,11.41-10.4,17.18-15.6,5.77-5.2,11.58-10.4,17.44-15.6,1.38-1.21,2.8-2.34,4.27-3.38,1.46-1.04,2.88-2.08,4.27-3.12,2.24-1.91,4.43-3.73,6.59-5.46,2.15-1.73,4.43-3.55,6.85-5.46,2.59-2.08,5.21-4.03,7.89-5.85,2.67-1.82,5.56-3.34,8.67-4.56.34-.52.69-1.04,1.03-1.56.34-.52.69-1.04,1.03-1.56.68-1.21,1.55-2.38,2.58-3.51,1.03-1.12,1.98-2.29,2.84-3.51h1.3c.87,1.72,1.82,2.71,2.86,2.97,1.04.26,1.98.12,2.85-.4.69.86,1.26,1.68,1.69,2.46.43.78.91,1.42,1.43,1.94,2.08,1.55,3.51,3.49,4.29,5.82.78,2.33.66,4.97-.36,7.91-1.2,2.77-2.53,5.49-3.99,8.17-1.46,2.68-3.05,5.32-4.77,7.92-3.44,6.06-6.96,12.07-10.57,18.04-3.61,5.97-7.22,11.9-10.83,17.78-.86,1.04-1.59,2.12-2.19,3.25-.6,1.13-1.25,2.21-1.93,3.24-3.61,6.58-7.47,13.59-11.6,21.02,1.38-1.04,2.54-1.99,3.49-2.86.95-.87,1.94-1.65,2.97-2.34,2.41-1.56,4.74-3.12,6.98-4.69,2.24-1.56,4.57-3.29,6.98-5.2,2.59-1.91,5.17-3.94,7.76-6.11,2.58-2.17,5.17-4.29,7.75-6.37,2.41-2.25,4.91-4.42,7.49-6.5,2.59-2.08,5.08-4.16,7.5-6.24,3.27-2.77,6.5-5.55,9.69-8.32,3.19-2.77,6.42-5.46,9.69-8.06,2.41-1.73,4.78-3.42,7.11-5.07,2.33-1.65,4.61-3.42,6.85-5.33,1.9-1.21,3.58-2.51,5.04-3.9,1.46-1.39,3.14-2.51,5.04-3.38,3.1-1.91,6.08-3.95,8.92-6.12,2.84-2.17,5.47-4.72,7.88-7.67.86-1.04,1.63-2.21,2.32-3.51.68-1.3,1.98-1.78,3.88-1.44,1.04.35,2.16.47,3.37.38,1.21-.09,2.24.3,3.11,1.16Z"/><path class="cls-3" d="M376.8,707.56c0,.35,1.68-.26,5.05-1.83,3.36-1.56,7.12-3.47,11.25-5.73,4.66-2.43,10.09-5.38,16.3-8.86v2.85c-5.34,3.99-10.42,7.46-15.25,10.41-4.14,2.43-8.28,4.65-12.42,6.65-4.14,2-7.25,2.66-9.32,1.97-3.11-.85-4.98-2.75-5.59-5.68-.62-2.93-.75-5.44-.41-7.51-4.31,3.82-8.31,7.11-12.02,9.88-3.71,2.78-6.77,4.86-9.18,6.25-2.07,1.04-4.05,2.21-5.95,3.52-1.9,1.3-3.97,2.39-6.21,3.26-5.18,2.09-10.71,2.45-16.58,1.09-6.92-1.36-12.28-4.8-16.1-10.32-.35-.69-.7-1.46-1.04-2.33-.35-.86-.7-1.72-1.04-2.59-.36-3.97,1.1-8.34,4.37-13.1,3.26-4.76,7.14-9.39,11.62-13.9,4.48-4.5,9-8.58,13.57-12.22,4.56-3.64,7.88-6.33,9.95-8.06,1.2-.87,3.1-1.95,5.69-3.26,2.59-1.3,5.47-2.48,8.67-3.52,3.19-1.05,6.64-1.92,10.36-2.62,3.71-.7,7.29-.88,10.75-.55,2.59.34,4.19,1.5,4.8,3.48.61,1.99,1.44,3.93,2.48,5.82.17.35.43.69.78,1.03.87.86,1.86,2.46,2.99,4.78,1.13,2.33,1.53,5.22,1.19,8.68,0,.69-.08,1.43-.25,2.2-.17.78-.43,1.6-.77,2.46-.17.18-.26.3-.26.39,0,.09-.09.22-.26.39-.69,2.25-1.41,4.84-2.18,7.78-.77,2.94-1.54,5.8-2.31,8.56-.77,2.77-1.41,5.15-1.92,7.13-.51,1.99-.77,3.16-.77,3.5ZM322.64,706.17c2.42-.18,5.99-1.87,10.74-5.09,4.74-3.21,9.52-6.94,14.35-11.19,4.82-4.25,9.08-8.49,12.79-12.74,3.7-4.24,5.72-7.4,6.06-9.48-1.9-.51-3.8-.77-5.7-.76-1.73,0-3.63.23-5.7.66-2.07.44-4.06,1.27-5.95,2.48-1.21.87-3.23,2.34-6.08,4.42-2.84,2.08-5.86,4.42-9.05,7.02-3.19,2.6-6.29,5.33-9.3,8.19-3.02,2.86-5.29,5.5-6.84,7.92-1.55,2.43-2.06,4.41-1.54,5.96.52,1.55,2.6,2.41,6.23,2.57Z"/><path class="cls-3" d="M461,702.64c3.27-1.73,6.9-3.69,10.87-5.86,3.97-2.17,7.67-4.21,11.12-6.12,4.14-2.26,8.28-4.52,12.42-6.78-7.24,6.24-13.7,11.7-19.39,16.38-2.41,2.08-4.83,4.08-7.24,5.98-2.42,1.91-4.65,3.6-6.72,5.07-2.07,1.48-3.79,2.69-5.17,3.64-1.38.96-2.24,1.43-2.59,1.43-1.9,0-3.37-.2-4.41-.63-1.04-.43-1.82-.9-2.34-1.42s-.91-.95-1.17-1.29c-.26-.34-.65-.52-1.17-.51-.87.52-1.64,1.04-2.33,1.56-.69.52-1.29.96-1.81,1.3-1.9,1.22-3.71,2.47-5.43,3.77-1.73,1.3-3.62,2.39-5.69,3.26-5.01,1.92-10.53,2.19-16.58.83-7.09-1.36-12.89-4.8-17.39-10.31-.52-.69-1-1.46-1.43-2.33-.44-.86-.91-1.72-1.43-2.59-.87-3.97-.03-8.33,2.55-13.09,2.58-4.76,5.8-9.39,9.68-13.89,3.87-4.5,7.83-8.57,11.88-12.21,4.05-3.64,7.02-6.33,8.92-8.06,1.03-.87,2.71-1.95,5.04-3.25,2.33-1.3,5.05-2.48,8.15-3.52,3.11-1.05,6.43-1.92,9.97-2.62,3.54-.7,7.12-.88,10.75-.55,1.38.34,2.46.86,3.24,1.55.78.69,1.52,1.47,2.21,2.33,5.16-7.96,10.79-16.53,16.89-25.71,6.1-9.17,11.82-17.79,17.15-25.84,5.33-8.05,9.89-14.93,13.67-20.64,3.78-5.71,6.1-9.09,6.97-10.13,3.78-5.19,7.76-4.51,11.93,2.04,1.39,1.9,2.43,3.79,3.13,5.69,1.39,2.94,1.4,5.61.02,8.03-1.38,2.25-3.4,5.45-6.06,9.61-2.67,4.15-5.72,8.79-9.16,13.89-3.44,5.11-6.96,10.39-10.58,15.84-3.61,5.45-6.96,10.52-10.06,15.19-3.1,4.67-5.8,8.74-8.13,12.2-2.32,3.47-3.83,5.71-4.51,6.75l-5.16,8.31-20.63,32.71ZM455.71,667.16c-3.46-1.89-7.05-2.27-10.76-1.13-3.71,1.14-7.29,3.13-10.74,5.99-3.45,2.86-6.59,6.24-9.43,10.13-2.84,3.9-5.07,7.57-6.7,11.03-1.63,3.46-2.49,6.4-2.56,8.82-.08,2.42.92,3.54,2.99,3.36,2.07-.52,5.18-2.43,9.31-5.73,4.14-3.29,8.27-6.98,12.4-11.05,4.13-4.07,7.75-8.14,10.85-12.21,3.1-4.07,4.64-7.14,4.64-9.21Z"/><path d="M1051.49,530.05c.64-3.57.48-7.26-.52-10.9-.7-2.55-1.53-5.06-2.49-7.47l-4.66-11.71h-20.91l-165.45,104.71c-.07-.05-.15-.09-.22-.14l1.64-2.05c.69-.75,1.38-1.51,2.06-2.28,2.54-2.9,22.98-65.03,22.98-65.03,2.11-5.07,2.47-10.6.99-16.03-.7-2.55-1.53-5.06-2.49-7.47l-4.66-11.71h-20.91l-23.41,15.37c-.17.11-.34.22-.51.34l-76.31,50.11,1.49-7.57c.2-1.02.41-2.15.61-3.38,0,0,.31-1.85.45-2.73l1.65-9.86-6.76-6.76c-.33-.33-.62-.67-.89-1.05l-.04-.06c-1.47-2.05-3.1-3.97-4.83-5.7l-.45-.45-.48-.42c-1.93-1.68-3.89-3.21-5.9-4.59-1.61-1.1-3.23-2.16-4.81-3.15l-4.53-2.84h-20.09l-3.66,1.67c-1.73.79-3.5,1.57-5.25,2.32-1.84.79-3.75,1.63-5.7,2.52-7.08,2.94-14.11,5.87-21.11,8.81-7.24,3.04-14.62,6.3-21.9,9.67-5.24,2.42-10.41,5.23-15.36,8.36-3.74,2.36-7.58,4.66-11.44,6.84-1.88.86-3.68,1.73-5.39,2.58-2.35,1.18-4.69,2.56-6.97,4.12-1.42.85-2.58,1.54-3.51,2.08-.78.46-1.61.92-2.51,1.42-1.42.77-2.85,1.64-4.44,2.7l-4.26,2.84-.35.25c-6.04,4.44-11.8,8.85-17.14,13.12-6.85,5.19-14.52,11.67-22.82,19.25-8.36,7.63-16.76,16.03-24.96,24.95-8.24,8.97-16,18.36-23.09,27.93-7.39,9.99-13.26,19.84-17.44,29.29-.46.91-.94,1.8-1.41,2.63-.87,1.52-1.73,3.14-2.57,4.82-1.52,3.04-2.94,6.07-4.23,9.04-.99,2.29-2.12,4.71-3.35,7.17l-1.49,2.98-.36,3.31c-.17,1.59-.35,3.22-.53,4.94-.11,1.07-.29,2.19-.52,3.35l-.74,3.67.74,3.67c.41,2.01.77,3.74,1.13,5.35.17.77.31,1.72.41,2.82l.02.26.03.26c1.06,8.96,5.04,14.6,8.19,17.74,1.35,1.35,2.7,2.78,4.03,4.25l5.53,6.15,30.18,24.87h15.62l79.1-23.12s.02,0,.02,0v17.32l9.13,4.54c1.12.56,2.26,1.06,3.41,1.49.08.03.15.06.21.09l1.56.79,1.69.44c2.34.61,4.76.93,7.19.93,4.42,0,8.89-1.02,13.3-3.02l.38-.17.37-.19c.61-.32,1.23-.62,1.84-.93l108.94-29.57-.15,5.09-.62.38v20.14l9.13,4.54c1.12.56,2.26,1.06,3.41,1.49.08.03.15.06.21.09l1.56.79,1.69.44c2.34.61,4.76.93,7.19.93,4.42,0,8.89-1.02,13.3-3.02l.38-.17.37-.19c4.46-2.3,8.96-4.46,13.37-6.41,4.28-1.89,8.72-3.63,13.18-5.17l.23-.08c3.22-1.16,6.41-2.1,9.51-2.79,4.38-.98,8.85-2.29,13.29-3.88,2.7-.92,5.35-2.24,7.89-3.93.45-.3.9-.54,1.37-.72l.31-.12.3-.13c2.49-1.11,5.04-2.15,7.6-3.12,3.5-1.33,6.99-2.94,10.37-4.81,5.78-2.97,11.53-5.96,17.09-8.89,5.66-2.98,11.48-6.09,17.3-9.24l.12-.07c2.79-1.54,5.7-3.05,8.66-4.49,3.4-1.66,6.8-3.42,10.09-5.23,5.06-2.77,10.06-5.69,14.86-8.65,4.16-2.56,8.42-4.9,12.67-6.96l.19-.09c4.01-2,8-4.52,11.84-7.48,3.1-2.38,6.06-4.94,8.83-7.61l.95-.47.47-.28c2.24-1.32,4.25-2.85,6.04-4.58l.82-.33,26.36-34.85c3.89-3.16,7.01-7.03,9.28-11.58.34-.68.69-1.37,1.04-2.07l2.7-3.56-.85-.02c.49-.94.99-1.89,1.5-2.86l.1-.19.09-.19c1.56-3.13,2.37-6.56,2.38-10.03l.11-.42v-2.29c0-4.1-1.24-7.5-2.49-10.35-.76-1.72-1.33-2.97-1.81-3.92l-.59-1.19-.75-1.09c-5.55-8.05-12.31-11.29-17.04-12.6-2.52-.69-5.19-1.26-7.97-1.69,2.44-2.81,4.74-5.73,6.86-8.74,1.58-2.27,2.71-4.71,3.38-7.24l20.62-33.66c2.82-3.23,5.48-6.61,7.93-10.08,2.1-3,3.49-6.27,4.16-9.66l.15-.25-.06-.22Z"/><path class="cls-5" d="M739.9,554.64c-2.09,1.4-4.45,3.49-7.06,6.28-2.61,2.79-5.1,5.58-7.45,8.37-2.35,2.79-4.45,5.32-6.28,7.58-1.83,2.27-2.92,3.58-3.27,3.92-1.4,1.4-2.84,2.79-4.31,4.18-1.48,1.4-2.92,2.79-4.32,4.18-1.92,1.92-3.79,3.75-5.62,5.49-1.83,1.74-3.71,3.49-5.62,5.23-1.92,1.57-3.62,2.05-5.1,1.44-1.48-.61-2.66-1.61-3.53-3.01-1.05-1.39-1.09-2.88-.13-4.45.96-1.57,1.87-2.96,2.75-4.18.52-.69,1.48-1.87,2.88-3.53,1.39-1.65,2.92-3.4,4.58-5.23,1.66-1.83,3.27-3.53,4.84-5.1,1.57-1.57,2.79-2.7,3.66-3.4,0-.35-.04-.61-.13-.78-.09-.17-.13-.35-.13-.52-2.79,1.05-5.54,2.01-8.24,2.88-2.71.87-5.36,2.01-7.98,3.4-6.63,3.66-13.21,7.37-19.75,11.11-6.54,3.75-13.12,7.54-19.75,11.38-1.75,1.05-4.49,2.92-8.24,5.62-3.75,2.71-8.2,6.06-13.34,10.07-5.14,4.01-10.85,8.54-17.13,13.6-6.28,5.06-12.64,10.51-19.09,16.35-6.45,5.84-12.9,11.86-19.35,18.04-6.45,6.19-12.55,12.42-18.31,18.7-4.01,5.06-7.89,10.33-11.64,15.82-3.75,5.49-7.54,11.02-11.38,16.61.35.35.57.69.65,1.05.09.35.31.69.65,1.05,2.44-1.22,4.84-2.44,7.19-3.66,2.35-1.22,4.75-2.44,7.19-3.66,2.79-1.22,6.54-2.97,11.25-5.23,4.71-2.27,9.42-4.54,14.12-6.8,4.71-2.26,8.98-4.36,12.81-6.28,3.83-1.92,6.28-3.14,7.32-3.66,1.92-1.22,3.88-2.35,5.88-3.4,2-1.05,3.96-2.09,5.88-3.14,3.31-1.92,6.49-3.88,9.55-5.88,3.05-2,6.23-3.79,9.55-5.36,5.23-2.79,10.5-5.36,15.82-7.72,5.32-2.35,10.68-4.84,16.08-7.45,1.57-.69,3.14-1.44,4.71-2.22,1.57-.78,3.14-1.61,4.71-2.48,1.74-.87,3.44-1.83,5.1-2.88,1.66-1.05,3.36-2,5.1-2.88.35-.35.83-.3,1.44.13.61.44,1,.92,1.18,1.44.87,3.31,1.05,6.8.52,10.46-.35,2.61-1.01,4.54-1.96,5.75-.96,1.22-2.48,2.35-4.58,3.4-5.06,2.61-10.07,5.45-15.04,8.5-4.97,3.05-9.98,6.06-15.04,9.02-.18.18-2.09,1.22-5.75,3.14-3.66,1.92-8.5,4.49-14.51,7.71-6.01,3.22-12.81,6.84-20.4,10.85-7.58,4.01-15.34,8.11-23.28,12.29-7.94,4.18-15.69,8.32-23.28,12.42-7.58,4.09-14.43,7.76-20.53,10.98-6.1,3.22-11.02,5.93-14.78,8.11-3.75,2.18-5.79,3.36-6.15,3.53h-4.97c-1.57-1.75-3.14-3.4-4.71-4.97s-2.53-3.84-2.88-6.8c-.17-1.92-.43-3.66-.78-5.23-.35-1.57-.69-3.23-1.05-4.97.35-1.75.61-3.44.78-5.1.18-1.66.35-3.27.52-4.84,1.4-2.79,2.66-5.49,3.79-8.11,1.14-2.62,2.4-5.32,3.79-8.11.7-1.4,1.4-2.7,2.09-3.92.7-1.22,1.4-2.53,2.09-3.92,3.66-8.37,8.85-17.08,15.56-26.15,6.71-9.06,13.99-17.87,21.84-26.41,7.85-8.54,15.78-16.48,23.8-23.8,8.02-7.32,15.25-13.42,21.71-18.31,5.23-4.18,10.81-8.45,16.74-12.81,1.57-1.05,2.88-1.92,3.92-2.62,1.05-.69,2.05-1.31,3.01-1.83.96-.52,1.96-1.09,3.01-1.7,1.05-.61,2.44-1.44,4.18-2.48,1.74-1.22,3.49-2.26,5.23-3.14,1.74-.87,3.57-1.74,5.49-2.61,4.36-2.44,8.67-5.01,12.95-7.72,4.27-2.7,8.67-5.1,13.21-7.19,7.15-3.31,14.25-6.45,21.31-9.41,7.06-2.96,14.16-5.93,21.31-8.89,1.92-.87,3.79-1.7,5.62-2.48s3.7-1.61,5.62-2.48h10.72c1.39.87,2.79,1.79,4.18,2.75,1.39.96,2.79,2.05,4.18,3.27,1.05,1.05,2,2.18,2.88,3.4.87,1.22,1.83,2.35,2.88,3.4-.18,1.05-.35,2.09-.52,3.14-.18,1.05-.35,2.01-.52,2.88Z"/><path class="cls-5" d="M625.09,751.56c4.01-2.44,7.94-4.71,11.77-6.8,3.84-2.09,7.67-4.27,11.51-6.54,3.31-1.92,6.63-3.79,9.94-5.62,3.31-1.83,6.71-3.71,10.2-5.62,2.09-1.22,4.23-2.44,6.41-3.66,2.18-1.22,4.32-2.44,6.41-3.66,3.49-2.09,6.84-4.1,10.07-6.01,3.22-1.92,6.49-3.84,9.81-5.75,4.36-2.61,8.67-5.23,12.95-7.85,4.27-2.61,8.59-5.14,12.95-7.58,5.93-3.49,11.9-6.97,17.91-10.46,6.01-3.49,11.98-6.97,17.91-10.46,2.96-1.57,6.58-3.4,10.85-5.49,4.27-2.09,8.67-4.22,13.21-6.41,4.53-2.18,8.89-4.31,13.08-6.41,4.18-2.09,7.76-3.92,10.72-5.49,1.92-1.05,3.75-2.52,5.49-4.45-5.41.7-10.72,1.4-15.95,2.09-5.23.7-10.55,1.48-15.95,2.35-3.49.52-7.72,1.4-12.68,2.62-4.97,1.22-10.07,2.48-15.3,3.79-5.23,1.31-10.33,2.48-15.3,3.53-4.97,1.05-9.28,1.83-12.95,2.35-3.14.35-6.32.92-9.55,1.7-3.23.78-6.41,1.35-9.55,1.7-2.09.18-4.18-.22-6.28-1.18-2.09-.96-3.84-2.57-5.23-4.84-.87-1.39-1.88-2.61-3.01-3.66-1.14-1.05-2.31-2.18-3.53-3.4,1.39-5.05,3.75-9.37,7.06-12.95,3.31-3.57,6.8-7.02,10.46-10.33,6.28-5.23,12.9-10.55,19.88-15.95,1.74-1.39,3.49-2.48,5.23-3.27,1.74-.78,3.49-1.79,5.23-3.01,3.66-2.62,7.32-5.23,10.98-7.85s7.23-5.23,10.72-7.85c4.53-2.96,8.98-5.88,13.34-8.76,4.36-2.88,8.8-5.79,13.34-8.76,1.92-1.39,3.75-2.75,5.49-4.05,1.74-1.31,3.57-2.66,5.49-4.05,3.31-2.26,6.58-4.58,9.81-6.93,3.22-2.35,6.41-4.75,9.55-7.19,4.01-2.96,8.11-5.93,12.29-8.89,4.18-2.96,8.28-5.84,12.29-8.63,1.39-1.05,2.92-1.92,4.58-2.62,1.65-.69,3.27-1.48,4.84-2.35.87-.35,1.83-.83,2.88-1.44,1.05-.61,2-1.26,2.88-1.96,1.05-.69,2.09-1.48,3.14-2.35,1.05-.87,2.09-1.74,3.14-2.62h1.57c.69,1.75,1.31,3.58,1.83,5.49.52,1.92.17,3.75-1.05,5.49-2.09,2.97-4.36,5.84-6.8,8.63-2.44,2.79-4.97,5.41-7.58,7.85-4.71,3.66-9.5,7.11-14.38,10.33-4.88,3.23-9.85,6.58-14.91,10.07-6.45,4.71-12.29,10.03-17.52,15.95-2.09,2.44-4.27,4.75-6.54,6.93-2.27,2.18-4.62,4.31-7.06,6.41-1.92,1.92-3.92,3.71-6.02,5.36-2.09,1.66-4.1,3.36-6.01,5.1-.87.87-2.4,2.14-4.58,3.79-2.18,1.66-4.49,3.44-6.93,5.36-2.44,1.92-4.71,3.75-6.8,5.49-2.09,1.74-3.58,3.14-4.45,4.18-1.57,1.57-3.14,3.23-4.71,4.97-1.57,1.74-3.31,3.58-5.23,5.49h3.66c3.31-.69,7.32-1.79,12.03-3.27,4.71-1.48,9.5-3.01,14.38-4.58,4.88-1.57,9.63-3.09,14.25-4.58,4.62-1.48,8.67-2.57,12.16-3.27,2.26-.35,4.49-.74,6.67-1.18,2.18-.43,4.4-1,6.67-1.7,3.66-.87,7.19-1.05,10.59-.52,3.4.52,6.84,1.05,10.33,1.57,2.96.35,5.71.87,8.24,1.57,2.52.7,4.75,2.44,6.67,5.23.35.7.83,1.75,1.44,3.14.61,1.4.92,2.35.92,2.88-.18.7-.22,1.44-.13,2.22.09.78-.04,1.53-.39,2.22-1.57,2.97-3.1,5.93-4.58,8.89-1.48,2.97-3.71,5.32-6.67,7.06-.7.35-1.4.7-2.09,1.05-.7.35-1.31.78-1.83,1.31-2.97,2.97-6.15,5.75-9.55,8.37-3.4,2.62-6.84,4.8-10.33,6.54-5.41,2.62-10.72,5.54-15.95,8.76-5.23,3.23-10.55,6.32-15.95,9.28-3.49,1.92-7.02,3.75-10.59,5.49-3.58,1.74-7.11,3.57-10.59,5.49-6.45,3.49-12.9,6.93-19.35,10.33-6.45,3.4-12.9,6.75-19.35,10.07-3.14,1.74-6.32,3.22-9.55,4.45-3.23,1.22-6.41,2.52-9.55,3.92-1.74.69-3.4,1.57-4.97,2.62-1.57,1.05-3.14,1.83-4.71,2.35-4.36,1.57-8.67,2.83-12.95,3.79-4.27.96-8.59,2.22-12.95,3.79-5.58,1.92-11.02,4.05-16.35,6.41-5.32,2.35-10.68,4.92-16.08,7.72-3.83,1.74-7.41,2.18-10.72,1.31-.69-.35-1.39-.65-2.09-.92-.69-.26-1.39-.57-2.09-.92v-.78Z"/><path class="cls-5" d="M791.15,751.56c4.01-2.44,7.94-4.71,11.77-6.8,3.84-2.09,7.67-4.27,11.51-6.54,3.31-1.92,6.63-3.79,9.94-5.62,3.31-1.83,6.71-3.71,10.2-5.62,2.09-1.22,4.23-2.44,6.41-3.66,2.18-1.22,4.32-2.44,6.41-3.66,3.49-2.09,6.84-4.1,10.07-6.01,3.22-1.92,6.49-3.84,9.81-5.75,4.36-2.61,8.67-5.23,12.95-7.85,4.27-2.61,8.59-5.14,12.95-7.58,5.93-3.49,11.9-6.97,17.91-10.46,6.01-3.49,11.98-6.97,17.91-10.46,2.96-1.57,6.58-3.4,10.85-5.49,4.27-2.09,8.67-4.22,13.21-6.41,4.53-2.18,8.89-4.31,13.08-6.41,4.18-2.09,7.76-3.92,10.72-5.49,1.92-1.05,3.75-2.52,5.49-4.45-5.41.7-10.72,1.4-15.95,2.09-5.23.7-10.55,1.48-15.95,2.35-3.49.52-7.72,1.4-12.68,2.62-4.97,1.22-10.07,2.48-15.3,3.79-5.23,1.31-10.33,2.48-15.3,3.53-4.97,1.05-9.28,1.83-12.95,2.35-3.14.35-6.32.92-9.55,1.7-3.23.78-6.41,1.35-9.55,1.7-2.09.18-4.18-.22-6.28-1.18-2.09-.96-3.84-2.57-5.23-4.84-.87-1.39-1.88-2.61-3.01-3.66-1.14-1.05-2.31-2.18-3.53-3.4,1.39-5.05,3.75-9.37,7.06-12.95,3.31-3.57,6.8-7.02,10.46-10.33,6.28-5.23,12.9-10.55,19.88-15.95,1.74-1.39,3.49-2.48,5.23-3.27,1.74-.78,3.49-1.79,5.23-3.01,3.66-2.62,7.32-5.23,10.98-7.85,3.66-2.62,7.23-5.23,10.72-7.85,4.53-2.96,8.98-5.88,13.34-8.76,4.36-2.88,8.8-5.79,13.34-8.76,1.92-1.39,3.75-2.75,5.49-4.05,1.74-1.31,3.57-2.66,5.49-4.05,3.31-2.26,6.58-4.58,9.81-6.93,3.22-2.35,6.41-4.75,9.55-7.19,4.01-2.96,8.11-5.93,12.29-8.89,4.18-2.96,8.28-5.84,12.29-8.63,1.39-1.05,2.92-1.92,4.58-2.62,1.65-.69,3.27-1.48,4.84-2.35.87-.35,1.83-.83,2.88-1.44,1.05-.61,2-1.26,2.88-1.96,1.05-.69,2.09-1.48,3.14-2.35,1.05-.87,2.09-1.74,3.14-2.62h1.57c.69,1.75,1.31,3.58,1.83,5.49.52,1.92.17,3.75-1.05,5.49-2.09,2.97-4.36,5.84-6.8,8.63-2.44,2.79-4.97,5.41-7.58,7.85-4.71,3.66-9.5,7.11-14.38,10.33-4.88,3.23-9.85,6.58-14.91,10.07-6.45,4.71-12.29,10.03-17.52,15.95-2.09,2.44-4.27,4.75-6.54,6.93-2.27,2.18-4.62,4.31-7.06,6.41-1.92,1.92-3.92,3.71-6.02,5.36-2.09,1.66-4.1,3.36-6.01,5.1-.87.87-2.4,2.14-4.58,3.79-2.18,1.66-4.49,3.44-6.93,5.36-2.44,1.92-4.71,3.75-6.8,5.49-2.09,1.74-3.58,3.14-4.45,4.18-1.57,1.57-3.14,3.23-4.71,4.97-1.57,1.74-3.31,3.58-5.23,5.49h3.66c3.31-.69,7.32-1.79,12.03-3.27,4.71-1.48,9.5-3.01,14.38-4.58,4.88-1.57,9.63-3.09,14.25-4.58,4.62-1.48,8.67-2.57,12.16-3.27,2.26-.35,4.49-.74,6.67-1.18,2.18-.43,4.4-1,6.67-1.7,3.66-.87,7.19-1.05,10.59-.52,3.4.52,6.84,1.05,10.33,1.57,2.96.35,5.71.87,8.24,1.57,2.52.7,4.75,2.44,6.67,5.23.35.7.83,1.75,1.44,3.14.61,1.4.92,2.35.92,2.88-.18.7-.22,1.44-.13,2.22.09.78-.04,1.53-.39,2.22-1.57,2.97-3.1,5.93-4.58,8.89-1.48,2.97-3.71,5.32-6.67,7.06-.7.35-1.4.7-2.09,1.05-.7.35-1.31.78-1.83,1.31-2.97,2.97-6.15,5.75-9.55,8.37-3.4,2.62-6.84,4.8-10.33,6.54-5.41,2.62-10.72,5.54-15.95,8.76-5.23,3.23-10.55,6.32-15.95,9.28-3.49,1.92-7.02,3.75-10.59,5.49-3.58,1.74-7.11,3.57-10.59,5.49-6.45,3.49-12.9,6.93-19.35,10.33-6.45,3.4-12.9,6.75-19.35,10.07-3.14,1.74-6.32,3.22-9.55,4.45-3.23,1.22-6.41,2.52-9.55,3.92-1.74.69-3.4,1.57-4.97,2.62-1.57,1.05-3.14,1.83-4.71,2.35-4.36,1.57-8.67,2.83-12.95,3.79-4.27.96-8.59,2.22-12.95,3.79-5.58,1.92-11.02,4.05-16.35,6.41-5.32,2.35-10.68,4.92-16.08,7.72-3.83,1.74-7.41,2.18-10.72,1.31-.69-.35-1.39-.65-2.09-.92-.69-.26-1.39-.57-2.09-.92v-.78Z"/></svg>