<?xml version="1.0" encoding="utf-8"?>

<!DOCTYPE svg PUBLIC "-//W3C//DTD SVG 1.1//EN" "http://www.w3.org/Graphics/SVG/1.1/DTD/svg11.dtd">
<!-- Uploaded to: SVG Repo, www.svgrepo.com, Generator: SVG Repo Mixer Tools -->
<svg fill="#ffffff" version="1.1" id="Layer_1" xmlns="http://www.w3.org/2000/svg" xmlns:xlink="http://www.w3.org/1999/xlink"
	 width="800px" height="800px" viewBox="0 0 70 70" enable-background="new 0 0 70 70" xml:space="preserve">
<g>
	<path d="M13.651,54.99c-0.085-0.367-0.146-0.77-0.188-1.231c-0.048-0.549-0.517-0.954-1.085-0.907
		c-0.55,0.049-0.956,0.534-0.907,1.085c0.05,0.555,0.125,1.048,0.232,1.507c0.107,0.462,0.519,0.773,0.973,0.773
		c0.075,0,0.151-0.008,0.228-0.026C13.442,56.065,13.776,55.528,13.651,54.99z"/>
	<path d="M38.417,58.583H25.15c-5.955,0-8.961-0.323-10.376-1.565c-0.416-0.365-1.047-0.154-1.411,0.261
		c-0.365,0.415-0.324,0.923,0.091,1.286c1.865,1.639,5.035,2.019,11.696,2.019h13.267c0.553,0,1-0.447,1-1
		S38.97,58.583,38.417,58.583z"/>
	<path d="M36.824,14.104l-2.25,2c-0.413,0.366-0.45,0.999-0.083,1.411c0.197,0.223,0.472,0.336,0.747,0.336
		c0.236,0,0.474-0.083,0.664-0.253l2.25-2c0.413-0.366,0.45-0.999,0.083-1.411C37.868,13.773,37.235,13.735,36.824,14.104z"/>
	<path d="M24.085,17.173c0.162,0,0.326-0.039,0.478-0.122c0.485-0.265,0.664-0.872,0.399-1.356l-1.441-2.643
		c-0.265-0.485-0.874-0.665-1.356-0.399c-0.485,0.265-0.664,0.872-0.399,1.356l1.441,2.643
		C23.388,16.984,23.73,17.173,24.085,17.173z"/>
	<path d="M45.807,11.099l-2.229,2.022c-0.409,0.371-0.439,1.003-0.068,1.412c0.197,0.218,0.469,0.328,0.74,0.328
		c0.24,0,0.48-0.086,0.672-0.26l2.229-2.022c0.409-0.371,0.439-1.003,0.068-1.412C46.847,10.757,46.215,10.729,45.807,11.099z"/>
	<path d="M25.807,18.099l-2.229,2.022c-0.409,0.371-0.439,1.003-0.068,1.412c0.197,0.218,0.469,0.328,0.74,0.328
		c0.24,0,0.48-0.086,0.672-0.26l2.229-2.022c0.409-0.371,0.439-1.003,0.068-1.412C26.848,17.757,26.215,17.729,25.807,18.099z"/>
	<path d="M33.09,10.312L30.199,9.47c-0.533-0.157-1.085,0.15-1.239,0.681s0.15,1.085,0.681,1.239l2.891,0.842
		c0.093,0.027,0.188,0.04,0.279,0.04c0.434,0,0.833-0.283,0.96-0.721C33.925,11.021,33.62,10.466,33.09,10.312z"/>
	<path d="M16.15,16.355c-0.55,0.047-0.958,0.531-0.91,1.082l0.258,2.998c0.045,0.521,0.481,0.914,0.995,0.914
		c0.028,0,0.058-0.001,0.087-0.004c0.55-0.047,0.958-0.531,0.91-1.082l-0.258-2.998C17.185,16.717,16.712,16.303,16.15,16.355z"/>
	<path d="M53.141,17.059c-0.362-0.42-0.994-0.465-1.41-0.105c-0.419,0.36-0.466,0.992-0.105,1.41l1.964,2.28
		c0.198,0.229,0.478,0.348,0.758,0.348c0.231,0,0.464-0.08,0.652-0.242c0.419-0.36,0.466-0.992,0.105-1.41L53.141,17.059z"/>
	<path d="M41.141,18.059c-0.363-0.42-0.994-0.464-1.41-0.105c-0.419,0.36-0.466,0.992-0.105,1.41l1.964,2.28
		c0.198,0.229,0.478,0.348,0.758,0.348c0.231,0,0.464-0.08,0.652-0.242c0.419-0.36,0.466-0.992,0.105-1.41L41.141,18.059z"/>
	<path d="M64.583,40.055c1.104,0,2-0.896,2-2v-1.457c0-2.508-1-4.724-4-5.674v-3.34h2.347c0.008,0,0.016,0,0.02,0
		c1.105,0,2-0.686,2-1.79c0-0.103-0.007-0.006-0.021-0.105C66.721,12.961,53.417,3.355,35.821,3.355
		c-17.734,0-31.107,9.583-31.107,22.46c0,1.104,0.896,1.768,2,1.768h0.869v3.028c-2,0.663-5,3.132-5,5.987v1.457
		c0,1.104,0.896,2,2,2s2-0.896,2-2v-1.457c0-0.643,1-1.259,1-1.67v11.655H6.714c-1.104,0-2,0.896-2,2c0,13.963,4.734,18,21.108,18
		h20c16.373,0,21.107-4.037,21.107-18c0-1.104-0.896-2-2-2h-2.347v-8.528C62.583,39.159,63.479,40.055,64.583,40.055z M35.821,6.995
		c14.466,0,25.602,7.588,26.968,16.588H8.854C10.221,14.583,21.356,6.995,35.821,6.995z M58.583,27.583v3.028
		c-2,0.663-5,3.132-5,5.987v0.688c0,1.077-0.687,2.167-2,2.167s-2-1.09-2-2.167v-0.688c0-3.458-2.636-6.167-6-6.167
		s-6,2.709-6,6.167v0.688c0,1.114-1.215,2.167-2.5,2.167s-2.5-1.053-2.5-2.167v-0.688c0-3.458-2.636-6.167-6-6.167s-6,2.709-6,6.167
		v0.688c0,1.114-1.215,2.167-2.5,2.167s-2.5-1.053-2.5-2.167v-0.688c0-2.508-1-4.724-4-5.674v-3.34H58.583z M45.822,62.583h-20
		c-14.563,0-16.84-3-17.084-12h0.052c0.336,0,54.115,0,54.115,0C62.661,59.583,60.385,62.583,45.822,62.583z M11.583,46.583v-9.298
		c0,3.343,2.977,6.167,6.5,6.167s6.5-2.824,6.5-6.167v-0.688c0-1.077,0.687-2.167,2-2.167s2,1.09,2,2.167v0.688
		c0,3.343,2.977,6.167,6.5,6.167s6.5-2.824,6.5-6.167v-0.688c0-1.077,0.687-2.167,2-2.167s2,1.09,2,2.167v0.688
		c0,3.458,2.636,6.167,6,6.167s6-2.709,6-6.167v-0.688c0-0.643,1-1.259,1-1.67v11.655H11.583z"/>
</g>
</svg>
