<?xml version="1.0" encoding="iso-8859-1"?>
<!-- Uploaded to: SVG Repo, www.svgrepo.com, Generator: SVG Repo Mixer Tools -->
<!DOCTYPE svg PUBLIC "-//W3C//DTD SVG 1.1//EN" "http://www.w3.org/Graphics/SVG/1.1/DTD/svg11.dtd">
<svg fill="#ffffff" height="800px" width="800px" version="1.1" id="Capa_1" xmlns="http://www.w3.org/2000/svg" xmlns:xlink="http://www.w3.org/1999/xlink"
	 viewBox="0 0 297 297" xml:space="preserve">
<g>
	<path d="M145.182,116.641L44.026,94.07c-4.077-0.91-8.279,0.845-10.501,4.379c-10.294,16.384-17.878,33.319-20.805,46.462
		c-7.835,35.123,11.812,70.069,44.602,82.326l-9.235,41.428l-20.36-4.543c-5.314-1.19-10.589,2.162-11.775,7.479
		c-1.187,5.316,2.162,10.589,7.479,11.775l59.978,13.384c0.724,0.162,1.446,0.239,2.158,0.239c4.518,0,8.593-3.124,9.617-7.718
		c1.188-5.316-2.161-10.589-7.479-11.775l-20.362-4.544l9.237-41.436c1.933,0.158,3.867,0.265,5.8,0.265
		c15.958,0,31.674-5.487,44.247-15.448c12.764-10.111,21.749-24.45,25.302-40.373c2.927-13.132,3.254-31.687,0.895-50.903
		C152.315,120.924,149.255,117.549,145.182,116.641z M46.654,114.87l87.309,19.48c0.445,5.133,0.67,10.163,0.684,14.942
		l-94.959-21.188C41.732,123.784,44.072,119.326,46.654,114.87z M132.673,171.675c-5.221,23.402-26.372,40.388-50.293,40.388
		c-3.769,0-7.564-0.421-11.282-1.249c-0.002,0-0.004-0.002-0.007-0.002c-0.002,0-0.004-0.001-0.006-0.001
		c-27.76-6.2-45.305-33.833-39.109-61.607c0.559-2.51,1.36-5.247,2.361-8.143l99.656,22.235
		C133.67,166.345,133.232,169.166,132.673,171.675z"/>
	<path d="M285.594,175.345c-1.541-5.225-7.024-8.216-12.251-6.672l-19.954,5.884l-11.965-40.607
		c31.835-14.412,49.059-50.539,38.905-85c-3.803-12.902-12.492-29.262-23.842-44.882c-2.452-3.377-6.766-4.845-10.77-3.664
		l-99.231,29.261c-4.002,1.18-6.829,4.751-7.059,8.918c-1.064,19.282,0.505,37.741,4.305,50.644
		c8.865,30.089,36.939,51.104,68.27,51.106c0.002,0,0.002,0,0.004,0c3.513,0,7.021-0.268,10.499-0.789l11.959,40.594l-19.96,5.887
		c-5.227,1.541-8.212,7.026-6.672,12.251c1.267,4.295,5.196,7.078,9.458,7.078c0.922,0,1.862-0.131,2.793-0.406l58.839-17.351
		C284.147,186.055,287.134,180.569,285.594,175.345z M158.868,46.581l85.625-25.248c2.864,4.256,5.488,8.53,7.809,12.687
		l-93.115,27.458C158.883,56.726,158.769,51.711,158.868,46.581z M212.003,120.604c-22.645-0.001-42.937-15.197-49.346-36.952
		c-0.725-2.46-1.35-5.236-1.875-8.246l97.73-28.818c1.189,2.812,2.169,5.479,2.893,7.938c8.025,27.239-7.596,55.931-34.821,63.96
		l0,0h-0.002l-0.002,0.001c-4.763,1.405-9.667,2.117-14.575,2.117C212.005,120.604,212.004,120.604,212.003,120.604z"/>
</g>
</svg>
