<?xml version="1.0" encoding="utf-8"?>
<svg fill="#ffffff" width="800px" height="800px" viewBox="0 0 50 50" xmlns="http://www.w3.org/2000/svg" xmlns:xlink="http://www.w3.org/1999/xlink"><path d="M28.8125 0C28.367188 0.0820313 28.035156 0.457031 28 0.90625L27.8125 3.15625L21.71875 3.15625L21.5 0.9375C21.433594 0.421875 20.988281 0.0429688 20.46875 0.0625L13.125 0.375C12.847656 0.390625 12.589844 0.519531 12.410156 0.734375C12.234375 0.945313 12.152344 1.222656 12.1875 1.5L12.40625 3.5625L5.6875 4.78125C5.160156 4.875 4.800781 5.375 4.875 5.90625L6.6875 18L4 18C3.96875 18 3.9375 18 3.90625 18C3.605469 18.023438 3.332031 18.183594 3.164063 18.433594C2.996094 18.679688 2.945313 18.992188 3.03125 19.28125L11.4375 49.28125C11.5625 49.710938 11.957031 50.003906 12.40625 50L37.59375 50C38.042969 50.003906 38.4375 49.710938 38.5625 49.28125L46.96875 19.28125C47.058594 18.976563 46.996094 18.648438 46.808594 18.398438C46.617188 18.144531 46.316406 17.996094 46 18L42.90625 18L44.5625 9C44.617188 8.726563 44.550781 8.441406 44.386719 8.214844C44.21875 7.988281 43.964844 7.84375 43.6875 7.8125L36.78125 7.0625L37.25 1.90625C37.289063 1.375 36.902344 0.910156 36.375 0.84375L29.09375 0C29 -0.0117188 28.90625 -0.0117188 28.8125 0 Z M 19.59375 2.09375L22.15625 26.71875C19.578125 26.199219 17.761719 25.011719 16.4375 23.6875L14.5 4.5625C14.5 4.542969 14.5 4.519531 14.5 4.5L14.5 4.4375C14.503906 4.308594 14.480469 4.183594 14.4375 4.0625L14.28125 2.34375 Z M 29.875 2.125L35.1875 2.71875L33.1875 24.03125C31.90625 25.203125 30.226563 26.238281 27.90625 26.71875 Z M 21.9375 5.15625L27.65625 5.15625L25.90625 26.9375C25.605469 26.953125 25.316406 27 25 27C24.71875 27 24.457031 26.984375 24.1875 26.96875 Z M 12.59375 5.5625L14.125 20.46875C13.621094 19.476563 13.375 18.75 13.375 18.75C13.261719 18.308594 12.863281 18 12.40625 18L8.71875 18L7 6.5625 Z M 36.59375 9.03125L42.40625 9.6875L40.875 18L37.59375 18C37.136719 18 36.738281 18.308594 36.625 18.75C36.625 18.75 36.308594 19.851563 35.4375 21.28125 Z M 5.3125 20L11.71875 20C11.996094 20.792969 12.597656 22.324219 14.125 24.15625C14.257813 24.316406 14.417969 24.464844 14.5625 24.625C14.5625 24.636719 14.5625 24.644531 14.5625 24.65625C14.65625 24.90625 14.847656 25.109375 15.09375 25.21875C15.097656 25.222656 15.121094 25.214844 15.125 25.21875C17.222656 27.234375 20.417969 29 25 29C30.382813 29 33.855469 26.578125 35.875 24.15625C37.402344 22.324219 38.003906 20.792969 38.28125 20L44.6875 20L36.8125 48L13.1875 48Z"/></svg>
