<svg width="672" height="236" viewBox="0 0 672 236" fill="none" xmlns="http://www.w3.org/2000/svg">
<path fill-rule="evenodd" clip-rule="evenodd" d="M672 0H0V236H672V0ZM331 5C331.6 5 332 4.60001 332 4C332 3.39999 331.6 3 331 3C330.4 3 330 3.39999 330 4C330 4.60001 330.4 5 331 5ZM375 5.94736C376.6 5.10526 378 4.26315 378 3.8421C378 3.42105 376.6 3 375 3H372V5.10526V7L375 5.94736ZM147.478 9C148.717 9 150.576 7.94737 151.196 6.89474C152.848 4.36842 152.022 4.36842 148.098 6.89474L145 9H147.478ZM335.391 7.48892C336.913 6.62544 338 5.54608 338 4.89847C338 3.17151 336.043 4.03499 334.522 6.62543L333 9L335.391 7.48892ZM475 9V7.10526V5L471.103 5.42105L467 5.63159L468.026 7.3158C468.641 8.1579 470.487 9 472.128 9H475ZM494 7C494.6 7 495 6.60001 495 6C495 5.39999 494.6 5 494 5C493.4 5 493 5.39999 493 6C493 6.60001 493.4 7 494 7ZM486 9C486.6 9 487 8.60001 487 8C487 7.39999 486.6 7 486 7C485.4 7 485 7.39999 485 8C485 8.60001 485.4 9 486 9ZM132.5 14L133.846 12.6154L135 11H132.5H130L131.154 12.6154L132.5 14ZM102.5 16L103.846 14.6154L105 13H102.5H100L101.154 14.6154L102.5 16ZM370.095 17H372L370.857 15C370.286 13.8 369.333 13 368.762 13C368.381 13 368 13.8 368 15V17H370.095ZM116 19V17C116 15.8 115.619 15 115.238 15C114.667 15 113.714 15.8 113.143 17L112 19H113.905H116ZM140 17C140.6 17 141 16.6 141 16C141 15.4 140.6 15 140 15C139.4 15 139 15.4 139 16C139 16.6 139.4 17 140 17ZM186 17C186.6 17 187 16.6 187 16C187 15.4 186.6 15 186 15C185.4 15 185 15.4 185 16C185 16.6 185.4 17 186 17ZM482 17C482.6 17 483 16.6 483 16C483 15.4 482.6 15 482 15C481.4 15 481 15.4 481 16C481 16.6 481.4 17 482 17ZM363 19C363.6 19 364 18.6 364 18C364 17.4 363.6 17 363 17C362.4 17 362 17.4 362 18C362 18.6 362.4 19 363 19ZM476 21L477.615 19.8462L479 18.5L477.615 17.1538L476 16V18.5V21ZM490 19C490.6 19 491 18.6 491 18C491 17.4 490.6 17 490 17C489.4 17 489 17.4 489 18C489 18.6 489.4 19 490 19ZM502.391 20.4889C503.913 19.6254 505 18.5461 505 17.8985C505 16.1715 503.043 17.035 501.522 19.6254L500 22L502.391 20.4889ZM184 21C184.6 21 185 20.6 185 20C185 19.4 184.6 19 184 19C183.4 19 183 19.4 183 20C183 20.6 183.4 21 184 21ZM319.5 22L320.846 20.6154L322 19H319.5H317L318.154 20.6154L319.5 22ZM499 29L498.556 25.8605C498.333 24.1861 497.444 22.093 496.556 21.4651L495 20V24.3954V29H497H499ZM121 27C121.6 27 122 26.6 122 26C122 25.4 121.6 25 121 25C120.4 25 120 25.4 120 26C120 26.6 120.4 27 121 27ZM188.564 36.1864C189.458 35.5763 190.799 32.9322 191.246 30.0847C191.916 27.2373 192.14 25 191.916 25C190.128 25 187 30.6949 187 33.5424V37L188.564 36.1864ZM386.474 27L387.737 26L389 25L385 25.1667L381 25.3333L383.737 26.1667L386.474 27ZM461.333 32L462.167 29.2632L463 26.5263L462 25.2632L461 24L461.167 28L461.333 32ZM197 31L198.615 29.8462L200 28.5L198.615 27.1538L197 26V28.5V31ZM390 31L391.615 29.8462L393 28.5L391.615 27.1538L390 26V28.5V31ZM468 29C468.6 29 469 28.6 469 28C469 27.4 468.6 27 468 27C467.4 27 467 27.4 467 28C467 28.6 467.4 29 468 29ZM487.038 35.0392C487.038 34.0588 488.385 31.7059 490.115 30.1373L493 27H491.269C490.308 27 488 28.7647 486.269 30.7255L483 34.451L484.923 35.8235L487.038 37V35.0392ZM206 31C206.6 31 207 30.6 207 30C207 29.4 206.6 29 206 29C205.4 29 205 29.4 205 30C205 30.6 205.4 31 206 31ZM376 33L377.615 31.8462L379 30.5L377.615 29.1538L376 28V30.5V33ZM125 37C125.6 37 126 36.6 126 36C126 35.4 125.6 35 125 35C124.4 35 124 35.4 124 36C124 36.6 124.4 37 125 37ZM170.875 41C171.812 41 173.312 40 173.875 39L175 37H173.125C172.188 37 170.688 37.8 170.125 39L169 41H170.875ZM462 43V40.0772C462 36.5698 460.8 35.9852 459 38.7132L458 40.6617L460 41.8309L462 43ZM183.842 45C184.263 45 185.105 43.6 185.947 42L187 39H185.105H183V42C183 43.6 183.421 45 183.842 45ZM91 43C91.6 43 92 42.6 92 42C92 41.4 91.6 41 91 41C90.4 41 90 41.4 90 42C90 42.6 90.4 43 91 43ZM205 43.8571C206.2 43.2857 207 42.3333 207 41.7619C207 41.381 206.2 41 205 41H203V43.0952V45L205 43.8571ZM374.652 45C375.228 45 375.036 44 374.46 43C373.884 41.8 372.924 41 372.348 41C371.772 41 371.964 41.8 372.54 43C373.116 44 374.076 45 374.652 45ZM512 43C512.6 43 513 42.6 513 42C513 41.4 512.6 41 512 41C511.4 41 511 41.4 511 42C511 42.6 511.4 43 512 43ZM158 47C158.6 47 159 46.6 159 46C159 45.4 158.6 45 158 45C157.4 45 157 45.4 157 46C157 46.6 157.4 47 158 47ZM359 47C359.6 47 360 46.6 360 46C360 45.4 359.6 45 359 45C358.4 45 358 45.4 358 46C358 46.6 358.4 47 359 47ZM510 47C510.6 47 511 46.6 511 46C511 45.4 510.6 45 510 45C509.4 45 509 45.4 509 46C509 46.6 509.4 47 510 47ZM524 47C524.6 47 525 46.6 525 46C525 45.4 524.6 45 524 45C523.4 45 523 45.4 523 46C523 46.6 523.4 47 524 47ZM528 47C528.6 47 529 46.6 529 46C529 45.4 528.6 45 528 45C527.4 45 527 45.4 527 46C527 46.6 527.4 47 528 47ZM538 47C538.6 47 539 46.6 539 46C539 45.4 538.6 45 538 45C537.4 45 537 45.4 537 46C537 46.6 537.4 47 538 47ZM75 49C75.6 49 76 48.6 76 48C76 47.4 75.6 47 75 47C74.4 47 74 47.4 74 48C74 48.6 74.4 49 75 49ZM172.238 51C172.619 51 173 50 173 49V47H170.905H169L170.143 49C170.714 50 171.667 51 172.238 51ZM188 49C188.6 49 189 48.6 189 48C189 47.4 188.6 47 188 47C187.4 47 187 47.4 187 48C187 48.6 187.4 49 188 49ZM518 49C518.6 49 519 48.6 519 48C519 47.4 518.6 47 518 47C517.4 47 517 47.4 517 48C517 48.6 517.4 49 518 49ZM200 51C200.6 51 201 50.6 201 50C201 49.4 200.6 49 200 49C199.4 49 199 49.4 199 50C199 50.6 199.4 51 200 51ZM357 51C357.6 51 358 50.6 358 50C358 49.4 357.6 49 357 49C356.4 49 356 49.4 356 50C356 50.6 356.4 51 357 51ZM534 51C534.6 51 535 50.6 535 50C535 49.4 534.6 49 534 49C533.4 49 533 49.4 533 50C533 50.6 533.4 51 534 51ZM93 53C93.6 53 94 52.6 94 52C94 51.4 93.6 51 93 51C92.4 51 92 51.4 92 52C92 52.6 92.4 53 93 53ZM369 53C369.6 53 370 52.6 370 52C370 51.4 369.6 51 369 51C368.4 51 368 51.4 368 52C368 52.6 368.4 53 369 53ZM381 53C381.6 53 382 52.6 382 52C382 51.4 381.6 51 381 51C380.4 51 380 51.4 380 52C380 52.6 380.4 53 381 53ZM450.5 54L451.846 52.6154L453 51H450.5H448L449.154 52.6154L450.5 54ZM514 53C514.6 53 515 52.6 515 52C515 51.4 514.6 51 514 51C513.4 51 513 51.4 513 52C513 52.6 513.4 53 514 53ZM361 57C362.6 57 364 56.5789 364 56.1579C364 55.7368 362.6 54.8947 361 54.0526L358 53V54.8947V57H361ZM533 56.9623C533 61.9152 534.263 62.3114 535.737 58.151L537 55.3774L535.105 54.1887L533 53V56.9623ZM558.478 59C559.717 59 561.576 57.9474 562.196 56.8947C563.848 54.3684 563.022 54.3684 559.098 56.8947L556 59H558.478ZM193 61V59C193 57.8 192.619 57 192.238 57C191.667 57 190.714 57.8 190.143 59L189 61H190.905H193ZM387 59C387.6 59 388 58.6 388 58C388 57.4 387.6 57 387 57C386.4 57 386 57.4 386 58C386 58.6 386.4 59 387 59ZM28 64L29.6154 62.8462L31 61.5L29.6154 60.1538L28 59V61.5V64ZM510.605 68L512.698 66L515 63.8L511.86 61.4L508.93 59L507.465 61.2L506 63.6L508.302 65.8L510.605 68ZM59 63C59.6 63 60 62.6 60 62C60 61.4 59.6 61 59 61C58.4 61 58 61.4 58 62C58 62.6 58.4 63 59 63ZM168 63C168.6 63 169 62.6 169 62C169 61.4 168.6 61 168 61C167.4 61 167 61.4 167 62C167 62.6 167.4 63 168 63ZM393.652 65C394.228 65 394.036 64 393.46 63C392.884 61.8 391.924 61 391.348 61C390.772 61 390.964 61.8 391.54 63C392.116 64 393.076 65 393.652 65ZM280 67C280.6 67 281 66.6 281 66C281 65.4 280.6 65 280 65C279.4 65 279 65.4 279 66C279 66.6 279.4 67 280 67ZM449 67C449.6 67 450 66.6 450 66C450 65.4 449.6 65 449 65C448.4 65 448 65.4 448 66C448 66.6 448.4 67 449 67ZM47 69C47.6 69 48 68.6 48 68C48 67.4 47.6 67 47 67C46.4 67 46 67.4 46 68C46 68.6 46.4 69 47 69ZM205 71C206.2 71 207 70 207 69C207 67.8 206.2 67 205 67C204 67 203 67.8 203 69C203 70 204 71 205 71ZM85 71C85.6 71 86 70.6 86 70C86 69.4 85.6 69 85 69C84.4 69 84 69.4 84 70C84 70.6 84.4 71 85 71ZM20 76L21.6154 74.8462L23 73.5L21.6154 72.1538L20 71V73.5V76ZM378 75V73C378 71.8 377.619 71 377.238 71C376.667 71 375.714 71.8 375.143 73L374 75H375.905H378ZM317 77C317.6 77 318 76.6 318 76C318 75.4 317.6 75 317 75C316.4 75 316 75.4 316 76C316 76.6 316.4 77 317 77ZM156 81C156.6 81 157 80.6 157 80C157 79.4 156.6 79 156 79C155.4 79 155 79.4 155 80C155 80.6 155.4 81 156 81ZM465.238 83C465.619 83 466 82 466 81V79H463.905H462L463.143 81C463.714 82 464.667 83 465.238 83ZM149 91V88C149 86.4 148.579 85 148.158 85C147.737 85 146.895 86.4 146.053 88L145 91H146.895H149ZM289.6 89.1801C291.4 87.7701 293 86.1587 293 85.7559C293 84.1445 291.4 85.1516 288.8 88.3744L286 92L289.6 89.1801ZM426.5 88L427.846 86.6154L429 85H426.5H424L425.154 86.6154L426.5 88ZM379 89C379.6 89 380 88.6 380 88C380 87.4 379.6 87 379 87C378.4 87 378 87.4 378 88C378 88.6 378.4 89 379 89ZM415 89C415.6 89 416 88.6 416 88C416 87.4 415.6 87 415 87C414.4 87 414 87.4 414 88C414 88.6 414.4 89 415 89ZM161 93V91C161 89.8 160.619 89 160.238 89C159.667 89 158.714 89.8 158.143 91L157 93H158.905H161ZM520.875 93C521.812 93 523.312 92 523.875 91L525 89H523.125C522.188 89 520.688 89.8 520.125 91L519 93H520.875ZM423 93C423.6 93 424 92.6 424 92C424 91.4 423.6 91 423 91C422.4 91 422 91.4 422 92C422 92.6 422.4 93 423 93ZM564 93C564.6 93 565 92.6 565 92C565 91.4 564.6 91 564 91C563.4 91 563 91.4 563 92C563 92.6 563.4 93 564 93ZM93.7437 99L94.9744 96L96 93L94.5641 93.2C91.282 93.6 88 95.4 88 97.2V99H90.8718H93.7437ZM417 95C417.6 95 418 94.6 418 94C418 93.4 417.6 93 417 93C416.4 93 416 93.4 416 94C416 94.6 416.4 95 417 95ZM136 97C136.6 97 137 96.6 137 96C137 95.4 136.6 95 136 95C135.4 95 135 95.4 135 96C135 96.6 135.4 97 136 97ZM413 97C413.6 97 414 96.6 414 96C414 95.4 413.6 95 413 95C412.4 95 412 95.4 412 96C412 96.6 412.4 97 413 97ZM518 97C518.6 97 519 96.6 519 96C519 95.4 518.6 95 518 95C517.4 95 517 95.4 517 96C517 96.6 517.4 97 518 97ZM152 99C152.6 99 153 98.6 153 98C153 97.4 152.6 97 152 97C151.4 97 151 97.4 151 98C151 98.6 151.4 99 152 99ZM245 101V98.8947C245 96.3684 244.8 96.3684 241 98.8947L238 101H241.6H245ZM119 101C119.6 101 120 100.6 120 100C120 99.4 119.6 99 119 99C118.4 99 118 99.4 118 100C118 100.6 118.4 101 119 101ZM130 104L131.615 102.846L133 101.5L131.615 100.154L130 99V101.5V104ZM282 103C282.6 103 283 102.6 283 102C283 101.4 282.6 101 282 101C281.4 101 281 101.4 281 102C281 102.6 281.4 103 282 103ZM297 107V104.077C297 100.57 295.8 99.9852 294 102.713L293 104.662L295 105.831L297 107ZM515.588 105.966C516.294 105.345 517 104.103 517 102.862C517 101.828 516.294 101 515.588 101H514V104.103V107L515.588 105.966ZM620 103C620.6 103 621 102.6 621 102C621 101.4 620.6 101 620 101C619.4 101 619 101.4 619 102C619 102.6 619.4 103 620 103ZM87.3914 106.489C88.9131 105.625 90 104.546 90 103.898C90 102.172 88.0435 103.035 86.5217 105.625L85 108L87.3914 106.489ZM93 105C93.6 105 94 104.6 94 104C94 103.4 93.6 103 93 103C92.4 103 92 103.4 92 104C92 104.6 92.4 105 93 105ZM109 105C109.6 105 110 104.6 110 104C110 103.4 109.6 103 109 103C108.4 103 108 103.4 108 104C108 104.6 108.4 105 109 105ZM19 107C19.6 107 20 106.6 20 106C20 105.4 19.6 105 19 105C18.4 105 18 105.4 18 106C18 106.6 18.4 107 19 107ZM317.391 108.489C318.913 107.625 320 106.546 320 105.898C320 104.172 318.043 105.035 316.522 107.625L315 110L317.391 108.489ZM165 111V109C165 107.8 164.619 107 164.238 107C163.667 107 162.714 107.8 162.143 109L161 111H162.905H165ZM284 109C284.6 109 285 108.6 285 108C285 107.4 284.6 107 284 107C283.4 107 283 107.4 283 108C283 108.6 283.4 109 284 109ZM622 111C622.6 111 623 110.6 623 110C623 109.4 622.6 109 622 109C621.4 109 621 109.4 621 110C621 110.6 621.4 111 622 111ZM138 113C138.6 113 139 112.6 139 112C139 111.4 138.6 111 138 111C137.4 111 137 111.4 137 112C137 112.6 137.4 113 138 113ZM311 116L312.615 114.846L314 113.5L312.615 112.154L311 111V113.5V116ZM512 115L509 112.895C507.4 111.842 504.6 111 503 111H500L504 112.895C506.2 113.947 509 114.789 510 114.789L512 115ZM89 115C89.6 115 90 114.6 90 114C90 113.4 89.6 113 89 113C88.4 113 88 113.4 88 114C88 114.6 88.4 115 89 115ZM121 115C121.6 115 122 114.6 122 114C122 113.4 121.6 113 121 113C120.4 113 120 113.4 120 114C120 114.6 120.4 115 121 115ZM129 115C129.6 115 130 114.6 130 114C130 113.4 129.6 113 129 113C128.4 113 128 113.4 128 114C128 114.6 128.4 115 129 115ZM146 115C146.6 115 147 114.6 147 114C147 113.4 146.6 113 146 113C145.4 113 145 113.4 145 114C145 114.6 145.4 115 146 115ZM275.5 116L276.846 114.615L278 113H275.5H273L274.154 114.615L275.5 116ZM280 115C280.6 115 281 114.6 281 114C281 113.4 280.6 113 280 113C279.4 113 279 113.4 279 114C279 114.6 279.4 115 280 115ZM61 117C61.6 117 62 116.6 62 116C62 115.4 61.6 115 61 115C60.4 115 60 115.4 60 116C60 116.6 60.4 117 61 117ZM153 121.829C154.2 121.244 155 119.293 155 117.732V115H153H151V119.098V123L153 121.829ZM618 117C618.6 117 619 116.6 619 116C619 115.4 618.6 115 618 115C617.4 115 617 115.4 617 116C617 116.6 617.4 117 618 117ZM113 119C113.6 119 114 118.6 114 118C114 117.4 113.6 117 113 117C112.4 117 112 117.4 112 118C112 118.6 112.4 119 113 119ZM117 119C117.6 119 118 118.6 118 118C118 117.4 117.6 117 117 117C116.4 117 116 117.4 116 118C116 118.6 116.4 119 117 119ZM138.5 120L139.846 118.615L141 117H138.5H136L137.154 118.615L138.5 120ZM584 119C584.6 119 585 118.6 585 118C585 117.4 584.6 117 584 117C583.4 117 583 117.4 583 118C583 118.6 583.4 119 584 119ZM103 121C103.6 121 104 120.6 104 120C104 119.4 103.6 119 103 119C102.4 119 102 119.4 102 120C102 120.6 102.4 121 103 121ZM162 121C162.6 121 163 120.6 163 120C163 119.4 162.6 119 162 119C161.4 119 161 119.4 161 120C161 120.6 161.4 121 162 121ZM594 123C594.6 123 595 122.6 595 122C595 121.4 594.6 121 594 121C593.4 121 593 121.4 593 122C593 122.6 593.4 123 594 123ZM607 124.857C608.2 124.286 609 123.333 609 122.762C609 122.381 608.2 122 607 122H605V124.095V126L607 124.857ZM75 125C75.6 125 76 124.6 76 124C76 123.4 75.6 123 75 123C74.4 123 74 123.4 74 124C74 124.6 74.4 125 75 125ZM140 125C140.6 125 141 124.6 141 124C141 123.4 140.6 123 140 123C139.4 123 139 123.4 139 124C139 124.6 139.4 125 140 125ZM160 125C160.6 125 161 124.6 161 124C161 123.4 160.6 123 160 123C159.4 123 159 123.4 159 124C159 124.6 159.4 125 160 125ZM622 125C622.6 125 623 124.6 623 124C623 123.4 622.6 123 622 123C621.4 123 621 123.4 621 124C621 124.6 621.4 125 622 125ZM151.652 129C152.228 129 152.036 128 151.46 127C150.884 125.8 149.924 125 149.348 125C148.772 125 148.964 125.8 149.54 127C150.116 128 151.076 129 151.652 129ZM577 132V129.077C577 125.57 575.8 124.985 574 127.713L573 129.662L575 130.831L577 132ZM47 129C47.6 129 48 128.6 48 128C48 127.4 47.6 127 47 127C46.4 127 46 127.4 46 128C46 128.6 46.4 129 47 129ZM93 129C93.6 129 94 128.6 94 128C94 127.4 93.6 127 93 127C92.4 127 92 127.4 92 128C92 128.6 92.4 129 93 129ZM111 129C111.6 129 112 128.6 112 128C112 127.4 111.6 127 111 127C110.4 127 110 127.4 110 128C110 128.6 110.4 129 111 129ZM597 132.839C598.2 132.258 599 130.903 599 129.742C599 128.774 598.2 128 597 128H595V131.097V134L597 132.839ZM401 131C401.6 131 402 130.6 402 130C402 129.4 401.6 129 401 129C400.4 129 400 129.4 400 130C400 130.6 400.4 131 401 131ZM564.238 133C564.619 133 565 132 565 131V129H562.905H561L562.143 131C562.714 132 563.667 133 564.238 133ZM113 133C113.6 133 114 132.6 114 132C114 131.4 113.6 131 113 131C112.4 131 112 131.4 112 132C112 132.6 112.4 133 113 133ZM608 133C608.6 133 609 132.6 609 132C609 131.4 608.6 131 608 131C607.4 131 607 131.4 607 132C607 132.6 607.4 133 608 133ZM13 135C13.6 135 14 134.6 14 134C14 133.4 13.6 133 13 133C12.4 133 12 133.4 12 134C12 134.6 12.4 135 13 135ZM121 135C121.6 135 122 134.6 122 134C122 133.4 121.6 133 121 133C120.4 133 120 133.4 120 134C120 134.6 120.4 135 121 135ZM142 135C142.6 135 143 134.6 143 134C143 133.4 142.6 133 142 133C141.4 133 141 133.4 141 134C141 134.6 141.4 135 142 135ZM512.238 137C512.619 137 513 136 513 135V133H510.905H509L510.143 135C510.714 136 511.667 137 512.238 137ZM149.857 139C151.381 139 153.286 138 153.857 137L155 135H152.143C150.619 135 148.714 135.8 148.143 137L147 139H149.857ZM158 137C158.6 137 159 136.6 159 136C159 135.4 158.6 135 158 135C157.4 135 157 135.4 157 136C157 136.6 157.4 137 158 137ZM567.071 142.769C568.143 142.154 569 140.923 569 139.897C569 139.077 567.714 137.846 566 137.231L563 136L564.071 140.103L565.143 144L567.071 142.769ZM590 137C590.6 137 591 136.6 591 136C591 135.4 590.6 135 590 135C589.4 135 589 135.4 589 136C589 136.6 589.4 137 590 137ZM144 140C144.6 140 145 139.6 145 139C145 138.4 144.6 138 144 138C143.4 138 143 138.4 143 139C143 139.6 143.4 140 144 140ZM399 140C399.6 140 400 139.6 400 139C400 138.4 399.6 138 399 138C398.4 138 398 138.4 398 139C398 139.6 398.4 140 399 140ZM508 140C508.6 140 509 139.6 509 139C509 138.4 508.6 138 508 138C507.4 138 507 138.4 507 139C507 139.6 507.4 140 508 140ZM559.895 143.438C560.947 143.062 562 141.938 562 141C562 140.062 560.947 138.938 559.895 138.562L558 138V141V144L559.895 143.438ZM168 142C168.6 142 169 141.6 169 141C169 140.4 168.6 140 168 140C167.4 140 167 140.4 167 141C167 141.6 167.4 142 168 142ZM179 146L176.659 143C175.293 141.4 173.927 140 173.732 140C173.409 140 172.954 140.954 172.366 142.188C172.242 142.448 172.112 142.721 171.976 143L171 146H175.098H179ZM427 142C427.6 142 428 141.6 428 141C428 140.4 427.6 140 427 140C426.4 140 426 140.4 426 141C426 141.6 426.4 142 427 142ZM118.324 148L119.559 146.765L121 145.529L118.735 143.265L116.471 141L115.235 143.059L114 145.324L116.265 146.559L118.324 148ZM158 146.949V144.077V141H156.2C155.4 141 154.6 142.026 154.6 143.256V145.513L151.4 144.282L148 143.051L150.4 145.923L152.8 149L155.4 147.974L158 146.949ZM413 144C413.6 144 414 143.6 414 143C414 142.4 413.6 142 413 142C412.4 142 412 142.4 412 143C412 143.6 412.4 144 413 144ZM406 148L407.615 146.846L409 145.5L407.615 144.154L406 143V145.5V148ZM419 148C419.6 148 420 147.6 420 147C420 146.4 419.6 146 419 146C418.4 146 418 146.4 418 147C418 147.6 418.4 148 419 148ZM566 148C566.6 148 567 147.6 567 147C567 146.4 566.6 146 566 146C565.4 146 565 146.4 565 147C565 147.6 565.4 148 566 148ZM575 150L576.615 148.846L578 147.5L576.615 146.154L575 145V147.5V150ZM426 154L424.8 151.077C423.4 147.57 422 146.985 422 149.713C422 150.882 422.8 152.246 424 152.831L426 154ZM57 152C57.6 152 58 151.6 58 151C58 150.4 57.6 150 57 150C56.4 150 56 150.4 56 151C56 151.6 56.4 152 57 152ZM129 152C129.6 152 130 151.6 130 151C130 150.4 129.6 150 129 150C128.4 150 128 150.4 128 151C128 151.6 128.4 152 129 152ZM564 152C564.6 152 565 151.6 565 151C565 150.4 564.6 150 564 150C563.4 150 563 150.4 563 151C563 151.6 563.4 152 564 152ZM148.913 154.301L151.355 153.273L154 152.245L151.762 152.04C150.541 151.834 148.913 152.451 148.303 153.273C146.268 155.328 146.675 158 149.117 158H151.151L150.134 156.15L148.913 154.301ZM170 154C170.6 154 171 153.6 171 153C171 152.4 170.6 152 170 152C169.4 152 169 152.4 169 153C169 153.6 169.4 154 170 154ZM181 160L183 158.085L185 156.17L184 153.489L183 151L182.8 154.447L182.6 157.894L180.2 156.553L178 155.213L179.6 157.511L181 160ZM192 156C192.6 156 193 155.6 193 155C193 154.4 192.6 154 192 154C191.4 154 191 154.4 191 155C191 155.6 191.4 156 192 156ZM570 156C570.6 156 571 155.6 571 155C571 154.4 570.6 154 570 154C569.4 154 569 154.4 569 155C569 155.6 569.4 156 570 156ZM51 158C51.6 158 52 157.6 52 157C52 156.4 51.6 156 51 156C50.4 156 50 156.4 50 157C50 157.6 50.4 158 51 158ZM14 162L15.6154 160.846L17 159.5L15.6154 158.154L14 157V159.5V162ZM85 160C85.6 160 86 159.6 86 159C86 158.4 85.6 158 85 158C84.4 158 84 158.4 84 159C84 159.6 84.4 160 85 160ZM551.405 164.222C553.486 163.639 555 162.472 555 161.694C555 160.917 553.865 159.75 552.351 159.167L549.703 158L548.757 161.5L548 165L551.405 164.222ZM118.101 168L119.361 166.75C119.992 166.125 120.202 163.833 119.781 161.75L118.941 158L117.471 161.958L116 165.917L117.05 166.958L118.101 168ZM126.862 166C127.897 166 129.138 165.2 129.966 164.2L131 162.2L129.138 161.2L127.276 160L126.034 163L125 166H126.862ZM144 162C144.6 162 145 161.6 145 161C145 160.4 144.6 160 144 160C143.4 160 143 160.4 143 161C143 161.6 143.4 162 144 162ZM158 162C158.6 162 159 161.6 159 161C159 160.4 158.6 160 158 160C157.4 160 157 160.4 157 161C157 161.6 157.4 162 158 162ZM179 162.857L177.8 160.929C177.2 159.857 175.4 159 173.8 159H171V162V165L175 163.929L179 162.857ZM411 162C411.6 162 412 161.6 412 161C412 160.4 411.6 160 411 160C410.4 160 410 160.4 410 161C410 161.6 410.4 162 411 162ZM499 162.857C500.2 162.286 501 161.333 501 160.762C501 160.381 500.2 160 499 160H497V162.095V164L499 162.857ZM566.6 163.48C569 162.22 571 160.54 571 160.12C571 157.81 567.4 159.28 564.8 162.64L562 166L566.6 163.48ZM105 164C105.6 164 106 163.6 106 163C106 162.4 105.6 162 105 162C104.4 162 104 162.4 104 163C104 163.6 104.4 164 105 164ZM194.5 164L195.846 162.615L197 161H194.5H192L193.154 162.615L194.5 164ZM101 166C101.6 166 102 165.6 102 165C102 164.4 101.6 164 101 164C100.4 164 100 164.4 100 165C100 165.6 100.4 166 101 166ZM150 166C150.6 166 151 165.6 151 165C151 164.4 150.6 164 150 164C149.4 164 149 164.4 149 165C149 165.6 149.4 166 150 166ZM185 168L186.615 166.846L188 165.5L186.615 164.154L185 163V165.5V168ZM422 168L423.615 166.846L425 165.5L423.615 164.154L422 163V165.5V168ZM142 168C142.6 168 143 167.6 143 167C143 166.4 142.6 166 142 166C141.4 166 141 166.4 141 167C141 167.6 141.4 168 142 168ZM373 168C373.6 168 374 167.6 374 167C374 166.4 373.6 166 373 166C372.4 166 372 166.4 372 167C372 167.6 372.4 168 373 168ZM577.5 168L578.846 166.615L580 165H577.5H575L576.154 166.615L577.5 168ZM585 170C586.2 170 587 169 587 168C587 166.8 586.2 166 585 166C584 166 583 166.8 583 168C583 169 584 170 585 170ZM59.3914 170.489C60.9131 169.625 62 168.546 62 167.898C62 166.172 60.0435 167.035 58.5217 169.625L57 172L59.3914 170.489ZM109 170C109.6 170 110 169.6 110 169C110 168.4 109.6 168 109 168C108.4 168 108 168.4 108 169C108 169.6 108.4 170 109 170ZM194 170C194.6 170 195 169.6 195 169C195 168.4 194.6 168 194 168C193.4 168 193 168.4 193 169C193 169.6 193.4 170 194 170ZM200 170C200.6 170 201 169.6 201 169C201 168.4 200.6 168 200 168C199.4 168 199 168.4 199 169C199 169.6 199.4 170 200 170ZM566.895 174C568.439 174 570.947 173.172 572.491 172.138L575 170.276L573.263 169.241L571.333 168L567.667 170.897L564 173.793L566.895 174ZM164 172C164.6 172 165 171.6 165 171C165 170.4 164.6 170 164 170C163.4 170 163 170.4 163 171C163 171.6 163.4 172 164 172ZM184 172C184.6 172 185 171.6 185 171C185 170.4 184.6 170 184 170C183.4 170 183 170.4 183 171C183 171.6 183.4 172 184 172ZM618 172C618.6 172 619 171.6 619 171C619 170.4 618.6 170 618 170C617.4 170 617 170.4 617 171C617 171.6 617.4 172 618 172ZM140 174C140.6 174 141 173.6 141 173C141 172.4 140.6 172 140 172C139.4 172 139 172.4 139 173C139 173.6 139.4 174 140 174ZM144 174C144.6 174 145 173.6 145 173C145 172.4 144.6 172 144 172C143.4 172 143 172.4 143 173C143 173.6 143.4 174 144 174ZM425 174C425.6 174 426 173.6 426 173C426 172.4 425.6 172 425 172C424.4 172 424 172.4 424 173C424 173.6 424.4 174 425 174ZM148 176C148.6 176 149 175.6 149 175C149 174.4 148.6 174 148 174C147.4 174 147 174.4 147 175C147 175.6 147.4 176 148 176ZM160.474 176L161.737 175L163 174L159 174.167L155 174.333L157.737 175.167L160.474 176ZM400 178L398.831 176C398.246 174.8 396.882 174 395.713 174C392.985 174 393.57 175.4 397.077 176.8L400 178ZM609 180V177C609 175.4 608.231 174 607.462 174C606.692 174 605.731 175.4 604.962 177L604 180H606.5H609ZM73 180C73.6 180 74 179.6 74 179C74 178.4 73.6 178 73 178C72.4 178 72 178.4 72 179C72 179.6 72.4 180 73 180ZM81 180C81.6 180 82 179.6 82 179C82 178.4 81.6 178 81 178C80.4 178 80 178.4 80 179C80 179.6 80.4 180 81 180ZM178.5 181L179.846 179.615L181 178H178.5H176L177.154 179.615L178.5 181ZM411 180C411.6 180 412 179.6 412 179C412 178.4 411.6 178 411 178C410.4 178 410 178.4 410 179C410 179.6 410.4 180 411 180ZM125 182C125.6 182 126 181.6 126 181C126 180.4 125.6 180 125 180C124.4 180 124 180.4 124 181C124 181.6 124.4 182 125 182ZM142 182C142.6 182 143 181.6 143 181C143 180.4 142.6 180 142 180C141.4 180 141 180.4 141 181C141 181.6 141.4 182 142 182ZM404 184C405.2 184 406 183 406 182C406 180.8 405.2 180 404 180C403 180 402 180.8 402 182C402 183 403 184 404 184ZM424.5 183L425.846 181.615L427 180H424.5H422L423.154 181.615L424.5 183ZM498 182C498.6 182 499 181.6 499 181C499 180.4 498.6 180 498 180C497.4 180 497 180.4 497 181C497 181.6 497.4 182 498 182ZM629 182C629.6 182 630 181.6 630 181C630 180.4 629.6 180 629 180C628.4 180 628 180.4 628 181C628 181.6 628.4 182 629 182ZM99 184C99.6 184 100 183.6 100 183C100 182.4 99.6 182 99 182C98.4 182 98 182.4 98 183C98 183.6 98.4 184 99 184ZM130.5 185L131.846 183.615L133 182H130.5H128L129.154 183.615L130.5 185ZM528 184C528.6 184 529 183.6 529 183C529 182.4 528.6 182 528 182C527.4 182 527 182.4 527 183C527 183.6 527.4 184 528 184ZM578 186C578.6 186 579 185.6 579 185C579 184.4 578.6 184 578 184C577.4 184 577 184.4 577 185C577 185.6 577.4 186 578 186ZM160 188C160.6 188 161 187.6 161 187C161 186.4 160.6 186 160 186C159.4 186 159 186.4 159 187C159 187.6 159.4 188 160 188ZM401 188C401.6 188 402 187.6 402 187C402 186.4 401.6 186 401 186C400.4 186 400 186.4 400 187C400 187.6 400.4 188 401 188ZM136 190C136.6 190 137 189.6 137 189C137 188.4 136.6 188 136 188C135.4 188 135 188.4 135 189C135 189.6 135.4 190 136 190ZM576.875 192C577.812 192 579.312 191 579.875 190L581 188H579.125C578.188 188 576.688 188.8 576.125 190L575 192H576.875ZM127 192C127.6 192 128 191.6 128 191C128 190.4 127.6 190 127 190C126.4 190 126 190.4 126 191C126 191.6 126.4 192 127 192ZM160.5 193L161.846 191.615L163 190H160.5H158L159.154 191.615L160.5 193ZM407 192C407.6 192 408 191.6 408 191C408 190.4 407.6 190 407 190C406.4 190 406 190.4 406 191C406 191.6 406.4 192 407 192ZM415 192C415.6 192 416 191.6 416 191C416 190.4 415.6 190 415 190C414.4 190 414 190.4 414 191C414 191.6 414.4 192 415 192ZM367 196H370L368.875 194C368.312 192.8 367.375 192 367 192C366.625 192 365.688 192.8 365.125 194L364 196H367ZM398.095 196H400L398.857 194C398.286 192.8 397.333 192 396.762 192C396.381 192 396 192.8 396 194V196H398.095ZM164 196C164.6 196 165 195.6 165 195C165 194.4 164.6 194 164 194C163.4 194 163 194.4 163 195C163 195.6 163.4 196 164 196ZM459 196C459.6 196 460 195.6 460 195C460 194.4 459.6 194 459 194C458.4 194 458 194.4 458 195C458 195.6 458.4 196 459 196ZM13 198C13.6 198 14 197.6 14 197C14 196.4 13.6 196 13 196C12.4 196 12 196.4 12 197C12 197.6 12.4 198 13 198ZM137.238 206C137.619 206 138 205 138 204V202H135.905H134L135.143 204C135.714 205 136.667 206 137.238 206ZM57 208C57.6 208 58 207.6 58 207C58 206.4 57.6 206 57 206C56.4 206 56 206.4 56 207C56 207.6 56.4 208 57 208ZM17 210C17.6 210 18 209.6 18 209C18 208.4 17.6 208 17 208C16.4 208 16 208.4 16 209C16 209.6 16.4 210 17 210ZM498 210C498.6 210 499 209.6 499 209C499 208.4 498.6 208 498 208C497.4 208 497 208.4 497 209C497 209.6 497.4 210 498 210ZM177 216L178.615 214.846L180 213.5L178.615 212.154L177 211V213.5V216ZM224.391 215.489C225.913 214.625 227 213.546 227 212.898C227 211.172 225.043 212.035 223.522 214.625L222 217L224.391 215.489ZM563 214.857C564.2 214.286 565 213.333 565 212.762C565 212.381 564.2 212 563 212H561V214.095V216L563 214.857ZM447 216C447.6 216 448 215.6 448 215C448 214.4 447.6 214 447 214C446.4 214 446 214.4 446 215C446 215.6 446.4 216 447 216ZM554 220C554.6 220 555 219.6 555 219C555 218.4 554.6 218 554 218C553.4 218 553 218.4 553 219C553 219.6 553.4 220 554 220ZM428.281 228L429.422 226.865C429.992 226.297 430.182 224.784 429.802 223.459L429.042 221L427.521 223.459L426 225.73L427.141 226.865L428.281 228ZM504 224C504.6 224 505 223.6 505 223C505 222.4 504.6 222 504 222C503.4 222 503 222.4 503 223C503 223.6 503.4 224 504 224ZM498 232C498.6 232 499 231.6 499 231C499 230.4 498.6 230 498 230C497.4 230 497 230.4 497 231C497 231.6 497.4 232 498 232Z" fill="black"/>
</svg>
