<svg width="80px" viewBox="0 0 1371 1212" fill="none" xmlns="http://www.w3.org/2000/svg">
<path d="M255.125 590.149C293.973 588.793 328.25 580.303 357.957 564.68C387.663 549.056 410.404 527.329 426.179 499.497C441.953 471.665 449.219 439.944 447.975 404.333C446.675 367.104 436.983 337.055 418.897 314.187C400.812 291.319 379.282 274.244 354.308 262.961C329.334 251.679 298.565 240.733 262 230.125C226.514 219.48 201.053 209.7 185.615 200.785C170.178 191.87 162.167 179.05 161.583 162.324C161.074 147.756 166.619 136.352 178.216 128.114C189.813 119.876 205.593 115.409 225.557 114.711C274.117 113.016 316.128 132.617 351.59 173.516L418.564 95.8166C389.992 66.5623 359.962 45.8673 328.476 33.7315C296.99 21.5958 263.172 16.1591 227.021 17.4215C170.368 19.3999 124.856 34.8997 90.4849 63.9211C56.1142 92.9425 39.7956 132.273 41.529 181.912C42.6784 214.825 51.4441 241.53 67.8261 262.026C84.2081 282.523 103.788 297.91 126.566 308.189C149.344 318.468 177.917 328.41 212.286 338.014C239.566 345.705 260.872 352.524 276.206 358.471C291.54 364.418 303.962 372.087 313.474 381.479C322.986 390.871 328.005 403.12 328.533 418.228C329.211 437.652 322.608 453.549 308.725 465.919C294.841 478.288 275.759 484.897 251.479 485.745C223.961 486.706 197.905 479.242 173.311 463.354C148.716 447.467 126.672 423.386 107.178 391.114L22.1153 461.341C49.0383 505.239 82.5988 538.101 122.797 559.926C162.995 581.752 207.104 591.826 255.125 590.149ZM482.056 719.98C528.998 718.34 566.24 713.528 593.782 705.544C621.324 697.559 643.794 683.539 661.191 663.484C678.588 643.429 693.911 614.262 707.16 575.984L852.655 147.915L725.589 152.352L651.48 443.415L645.815 443.613L552.391 158.4L426.135 162.809L591.584 561.383C584.69 580.531 572.668 595.942 555.518 607.615C538.369 619.289 512.798 625.719 478.806 626.906L482.056 719.98ZM1015.6 557.11L1007.04 311.881C1006.19 287.601 1013.33 267.769 1028.46 252.385C1043.59 237 1063.56 228.875 1088.38 228.008C1110.51 227.236 1127.98 232.703 1140.82 244.409C1153.65 256.116 1160.49 274.109 1161.34 298.39L1170.19 551.712L1288.35 547.586L1278.77 273.22C1277.22 228.977 1262.89 193.688 1235.77 167.354C1208.65 141.02 1173.51 128.607 1130.34 130.114C1101.75 131.113 1076.85 137.52 1055.66 149.334C1034.46 161.149 1017.7 176.185 1005.37 194.443L1001.32 194.584L999.514 142.786L882.16 146.884L896.631 561.265L1015.6 557.11ZM302.156 1194.4L298.934 1102.13L249.564 1103.86C236.615 1104.31 227.194 1101.4 221.303 1095.12C215.412 1088.84 212.202 1078.15 211.674 1063.04L204.581 859.9L290.37 856.904L287.685 780.017L201.896 783.013L196.865 638.951L78.7017 643.077L83.7324 787.139L26.2695 789.146L28.9545 866.033L86.4174 864.026L94.5288 1096.31C95.697 1129.76 105.099 1155.36 122.736 1173.11C140.373 1190.86 164.838 1199.19 196.133 1198.1L302.156 1194.4ZM473.605 1197.32C495.727 1196.55 518.763 1191.02 542.714 1180.73C566.664 1170.44 587.501 1156.07 605.224 1137.63L606.835 1183.76L711.24 1180.11L701.376 897.653C699.737 850.712 681.516 816.234 646.714 794.22C611.911 772.206 566.993 762.16 511.958 764.082C469.872 765.552 434.646 773.94 406.279 789.246C377.912 804.552 354.218 826.043 335.196 853.718L409.986 907.019C423.914 888.165 438.964 874.404 455.138 865.736C471.312 857.068 491.539 852.31 515.819 851.462C543.337 850.501 563.456 854.255 576.177 862.725C588.897 871.194 595.886 885.671 597.141 906.155C585.384 909.807 576.556 912.276 570.659 913.563C523.611 927.631 489.409 938.279 468.053 945.507C446.697 952.735 426.997 960.986 408.954 970.26C358.06 997.967 333.49 1036.91 335.242 1087.09C336.486 1122.7 349.606 1150.33 374.602 1169.99C399.598 1189.64 432.599 1198.76 473.605 1197.32ZM502.898 1107.98C490.488 1108.41 480.119 1105.39 471.79 1098.93C463.461 1092.47 459.08 1083.04 458.647 1070.63C457.969 1051.2 469.572 1035.4 493.456 1023.22C504.059 1017.45 519.369 1011.11 539.385 1004.2C559.402 997.284 579.558 990.503 599.854 983.852L602.398 1056.69C589.455 1072.81 574.358 1085.22 557.105 1093.93C539.852 1102.63 521.783 1107.32 502.898 1107.98ZM882.378 1174.14L960.267 1037.71L1047.48 1168.37L1191.55 1163.34L1039.38 959.589L1177.07 748.959L1033.01 753.99L955.011 887.176L867.908 759.755L723.846 764.786L874.277 965.355L738.316 1179.17L882.378 1174.14Z" fill="var(--primary, #fabf46)"/>
<path id="logo_dot" d="M1366.31 1031.2L1370.78 1159.08L1227.52 1164.08L1223.06 1036.21L1366.31 1031.2Z" fill="var(--logo-color, var(--primary, #fabf46))"/>
</svg>