<?xml version="1.0" encoding="UTF-8"?>
<svg width="2664px" height="777px" viewBox="0 0 2664 777" version="1.1" xmlns="http://www.w3.org/2000/svg" xmlns:xlink="http://www.w3.org/1999/xlink">
    <title>Syntax Wordmark Wide</title>
    <g id="Syntax-Wordmark-Wide" stroke="none" stroke-width="1" fill="none" fill-rule="evenodd">
        <path d="M240.02088,593.225454 C278.892721,593.225454 313.445468,585.936984 343.679122,571.360044 C373.912776,556.783103 397.397846,535.862495 414.134333,508.598217 C430.87082,481.33394 439.239064,449.885541 439.239064,414.25302 C439.239064,377.00084 430.600877,346.632214 413.324503,323.147143 C396.04813,299.662073 375.127521,281.845813 350.562677,269.698362 C325.997833,257.550912 295.629208,245.538433 259.4568,233.660927 C224.364166,221.78342 199.259436,211.120658 184.142609,201.672641 C169.025782,192.224624 161.467368,179.132372 161.467368,162.395885 C161.467368,147.818945 167.406122,136.616296 179.283629,128.787939 C191.161135,120.959582 207.087792,117.045404 227.0636,117.045404 C275.653401,117.045404 316.954731,138.100985 350.967592,180.212145 L350.967592,180.212145 L420.612974,104.897954 C393.078753,74.6642998 363.789901,52.933861 332.746417,39.7066374 C301.702933,26.4794138 268.094987,19.865802 231.92258,19.865802 C175.234478,19.865802 129.209139,33.767884 93.8465617,61.5720479 C58.4839843,89.3762118 40.8026956,128.113081 40.8026956,177.782655 C40.8026956,210.715743 48.6310524,237.710077 64.2877661,258.765657 C79.9444797,279.821237 98.9754851,295.882866 121.380782,306.950543 C143.786079,318.01822 171.995158,328.950925 206.008019,339.748659 C233.002353,348.386846 254.057933,355.945259 269.17476,362.423899 C284.291587,368.902539 296.439038,377.00084 305.617111,386.7188 C314.795185,396.43676 319.384221,408.854154 319.384221,423.970981 C319.384221,443.406901 312.230723,459.063615 297.923726,470.941122 C283.616729,482.818628 264.31578,488.757382 240.02088,488.757382 C212.486659,488.757382 186.70707,480.389138 162.682113,463.652651 C138.657156,446.916164 117.466604,422.081377 99.1104568,389.14829 L99.1104568,389.14829 L11.648815,456.364181 C37.0234888,501.174775 69.4166895,535.187636 108.828417,558.402763 C148.240145,581.617891 191.970965,593.225454 240.02088,593.225454 Z M462.283275,730.896557 C509.253416,730.896557 546.640568,727.387294 574.444732,720.368767 C602.248896,713.35024 625.19408,700.123016 643.280284,680.687096 C661.366487,661.251176 677.698059,632.637182 692.275,594.845114 L692.275,594.845114 L852.621343,172.113845 L725.47803,172.113845 L641.255709,460.413331 L635.586898,460.413331 L552.174407,172.113845 L425.840924,172.113845 L577.279137,576.219024 C569.720724,595.115057 557.168358,610.096913 539.622041,621.16459 C522.075724,632.232267 496.296136,637.766105 462.283275,637.766105 L462.283275,637.766105 L462.283275,730.896557 Z M1001.18921,586.746814 L1001.18921,341.368319 C1001.18921,317.073418 1009.01756,297.502526 1024.67428,282.655643 C1040.33099,267.808759 1060.57674,260.385317 1085.41153,260.385317 C1107.54688,260.385317 1124.82326,266.459042 1137.24065,278.606492 C1149.65804,290.753943 1155.86674,308.975118 1155.86674,333.270019 L1155.86674,333.270019 L1155.86674,586.746814 L1274.10192,586.746814 L1274.10192,312.214438 C1274.10192,267.943731 1261.00967,232.176238 1234.82517,204.911961 C1208.64066,177.647684 1173.95294,164.015545 1130.76201,164.015545 C1102.14802,164.015545 1077.04328,169.549383 1055.44782,180.61706 C1033.85235,191.684737 1016.57598,206.126706 1003.6187,223.942966 L1003.6187,223.942966 L999.569546,223.942966 L999.569546,172.113845 L882.144194,172.113845 L882.144194,586.746814 L1001.18921,586.746814 Z M1568.43919,586.746814 L1568.43919,494.426192 L1519.03956,494.426192 C1506.08228,494.426192 1496.76923,491.186872 1491.10042,484.708232 C1485.43161,478.229592 1482.59721,467.431858 1482.59721,452.315031 L1482.59721,452.315031 L1482.59721,249.047697 L1568.43919,249.047697 L1568.43919,172.113845 L1482.59721,172.113845 L1482.59721,27.9641022 L1364.36202,27.9641022 L1364.36202,172.113845 L1306.86409,172.113845 L1306.86409,249.047697 L1364.36202,249.047697 L1364.36202,481.468912 C1364.36202,514.941886 1372.86524,540.856446 1389.87167,559.212593 C1406.8781,577.56874 1431.03803,586.746814 1462.35146,586.746814 L1462.35146,586.746814 L1568.43919,586.746814 Z M1739.68229,595.654944 C1761.81765,595.654944 1785.03277,590.930936 1809.32767,581.482919 C1833.62257,572.034902 1854.9481,558.402763 1873.30425,540.586503 L1873.30425,540.586503 L1873.30425,586.746814 L1977.77232,586.746814 L1977.77232,304.116138 C1977.77232,257.145997 1960.76589,222.053363 1926.75303,198.838236 C1892.74017,175.623109 1848.19951,164.015545 1793.13107,164.015545 C1751.01991,164.015545 1715.52236,171.169044 1686.63843,185.476041 C1657.75449,199.783037 1633.32462,220.433703 1613.34881,247.428037 L1613.34881,247.428037 L1686.23351,303.306308 C1700.81045,284.950161 1716.33219,271.722937 1732.79874,263.624637 C1749.26528,255.526337 1769.646,251.477187 1793.9409,251.477187 C1821.47512,251.477187 1841.45093,255.931252 1853.86833,264.839382 C1866.28572,273.747512 1872.76436,288.459424 1873.30425,308.975118 C1861.42674,312.214438 1852.51861,314.373985 1846.57985,315.453758 C1799.06983,327.871152 1764.51708,337.319169 1742.92161,343.797809 C1721.32615,350.276449 1701.35034,357.834862 1682.99419,366.473049 C1631.16507,392.38761 1605.25051,430.449621 1605.25051,480.659082 C1605.25051,516.291602 1617.39796,544.36571 1641.69286,564.881404 C1665.98776,585.397097 1698.65091,595.654944 1739.68229,595.654944 Z M1772.07549,507.383472 C1759.6581,507.383472 1749.40025,504.009181 1741.30195,497.260597 C1733.20365,490.512014 1729.1545,480.929025 1729.1545,468.511631 C1729.1545,449.075711 1741.30195,433.688941 1765.59685,422.35132 C1776.39459,416.952454 1791.91633,411.148672 1812.16208,404.939975 C1832.40783,398.731278 1852.78855,392.657553 1873.30425,386.7188 L1873.30425,386.7188 L1873.30425,459.603501 C1859.80708,475.260215 1844.28534,487.137722 1826.73902,495.236022 C1809.1927,503.334322 1790.97153,507.383472 1772.07549,507.383472 Z M2149.01542,586.746814 L2231.61808,453.124861 L2314.22075,586.746814 L2458.37049,586.746814 L2313.41092,377.81067 L2458.37049,172.113845 L2314.22075,172.113845 L2231.61808,302.496478 L2149.01542,172.113845 L2004.86568,172.113845 L2148.20559,377.81067 L2004.86568,586.746814 L2149.01542,586.746814 Z M2637.71189,586.746814 L2637.71189,458.793671 L2494.37198,458.793671 L2494.37198,586.746814 L2637.71189,586.746814 Z" id="Syntax." fill="black" fill-rule="nonzero" transform="translate(1324.680354, 375.381180) rotate(-2.000000) translate(-1324.680354, -375.381180) "></path>
    </g>
</svg>